%TF.GenerationSoftware,KiCad,Pcbnew,7.0.10*%
%TF.CreationDate,2024-02-08T00:21:34+01:00*%
%TF.ProjectId,robot_pcb,726f626f-745f-4706-9362-2e6b69636164,rev?*%
%TF.SameCoordinates,Original*%
%TF.FileFunction,Paste,Top*%
%TF.FilePolarity,Positive*%
%FSLAX46Y46*%
G04 Gerber Fmt 4.6, Leading zero omitted, Abs format (unit mm)*
G04 Created by KiCad (PCBNEW 7.0.10) date 2024-02-08 00:21:34*
%MOMM*%
%LPD*%
G01*
G04 APERTURE LIST*
G04 Aperture macros list*
%AMRoundRect*
0 Rectangle with rounded corners*
0 $1 Rounding radius*
0 $2 $3 $4 $5 $6 $7 $8 $9 X,Y pos of 4 corners*
0 Add a 4 corners polygon primitive as box body*
4,1,4,$2,$3,$4,$5,$6,$7,$8,$9,$2,$3,0*
0 Add four circle primitives for the rounded corners*
1,1,$1+$1,$2,$3*
1,1,$1+$1,$4,$5*
1,1,$1+$1,$6,$7*
1,1,$1+$1,$8,$9*
0 Add four rect primitives between the rounded corners*
20,1,$1+$1,$2,$3,$4,$5,0*
20,1,$1+$1,$4,$5,$6,$7,0*
20,1,$1+$1,$6,$7,$8,$9,0*
20,1,$1+$1,$8,$9,$2,$3,0*%
G04 Aperture macros list end*
%ADD10R,1.500000X0.900000*%
%ADD11R,0.900000X1.500000*%
%ADD12R,0.900000X0.900000*%
%ADD13RoundRect,0.250000X-0.450000X0.262500X-0.450000X-0.262500X0.450000X-0.262500X0.450000X0.262500X0*%
%ADD14R,0.700000X0.350000*%
%ADD15R,0.900000X0.350000*%
%ADD16RoundRect,0.250000X0.475000X-0.250000X0.475000X0.250000X-0.475000X0.250000X-0.475000X-0.250000X0*%
%ADD17RoundRect,0.250000X0.503814X0.132583X0.132583X0.503814X-0.503814X-0.132583X-0.132583X-0.503814X0*%
%ADD18RoundRect,0.250000X0.262500X0.450000X-0.262500X0.450000X-0.262500X-0.450000X0.262500X-0.450000X0*%
%ADD19R,1.100000X1.450000*%
%ADD20R,0.800000X0.800000*%
%ADD21RoundRect,0.250000X0.450000X-0.262500X0.450000X0.262500X-0.450000X0.262500X-0.450000X-0.262500X0*%
%ADD22RoundRect,0.218750X-0.706250X0.218750X-0.706250X-0.218750X0.706250X-0.218750X0.706250X0.218750X0*%
%ADD23RoundRect,0.250000X0.250000X0.475000X-0.250000X0.475000X-0.250000X-0.475000X0.250000X-0.475000X0*%
%ADD24RoundRect,0.150000X0.150000X-0.512500X0.150000X0.512500X-0.150000X0.512500X-0.150000X-0.512500X0*%
%ADD25R,2.100000X1.400000*%
%ADD26RoundRect,0.250000X-0.132583X0.503814X-0.503814X0.132583X0.132583X-0.503814X0.503814X-0.132583X0*%
%ADD27RoundRect,0.150000X-0.587500X-0.150000X0.587500X-0.150000X0.587500X0.150000X-0.587500X0.150000X0*%
%ADD28RoundRect,0.250000X-0.262500X-0.450000X0.262500X-0.450000X0.262500X0.450000X-0.262500X0.450000X0*%
%ADD29RoundRect,0.150000X0.587500X0.150000X-0.587500X0.150000X-0.587500X-0.150000X0.587500X-0.150000X0*%
%ADD30R,1.500000X1.000000*%
G04 APERTURE END LIST*
D10*
%TO.C,U2*%
X141250000Y-78450000D03*
X141250000Y-79720000D03*
X141250000Y-80990000D03*
X141250000Y-82260000D03*
X141250000Y-83530000D03*
X141250000Y-84800000D03*
X141250000Y-86070000D03*
X141250000Y-87340000D03*
X141250000Y-88610000D03*
X141250000Y-89880000D03*
X141250000Y-91150000D03*
X141250000Y-92420000D03*
X141250000Y-93690000D03*
X141250000Y-94960000D03*
D11*
X144290000Y-96210000D03*
X145560000Y-96210000D03*
X146830000Y-96210000D03*
X148100000Y-96210000D03*
X149370000Y-96210000D03*
X150640000Y-96210000D03*
X151910000Y-96210000D03*
X153180000Y-96210000D03*
X154450000Y-96210000D03*
X155720000Y-96210000D03*
D10*
X158750000Y-94960000D03*
X158750000Y-93690000D03*
X158750000Y-92420000D03*
X158750000Y-91150000D03*
X158750000Y-89880000D03*
X158750000Y-88610000D03*
X158750000Y-87340000D03*
X158750000Y-86070000D03*
X158750000Y-84800000D03*
X158750000Y-83530000D03*
X158750000Y-82260000D03*
X158750000Y-80990000D03*
X158750000Y-79720000D03*
X158750000Y-78450000D03*
D12*
X147100000Y-87570000D03*
X147100000Y-84770000D03*
X149900000Y-87570000D03*
X148500000Y-84770000D03*
X149900000Y-84770000D03*
X147100000Y-86170000D03*
X148500000Y-86170000D03*
X149900000Y-86170000D03*
X148500000Y-87570000D03*
%TD*%
D13*
%TO.C,R4*%
X129000000Y-97337500D03*
X129000000Y-99162500D03*
%TD*%
%TO.C,R11*%
X140500000Y-100087500D03*
X140500000Y-101912500D03*
%TD*%
D14*
%TO.C,U17*%
X158150000Y-119900000D03*
X158150000Y-120600000D03*
D15*
X159750000Y-120600000D03*
D14*
X159850000Y-119900000D03*
%TD*%
%TO.C,U40*%
X143150000Y-124400000D03*
X143150000Y-125100000D03*
D15*
X144750000Y-125100000D03*
D14*
X144850000Y-124400000D03*
%TD*%
D13*
%TO.C,R17*%
X144600000Y-107687500D03*
X144600000Y-109512500D03*
%TD*%
D16*
%TO.C,C3*%
X147250000Y-109500000D03*
X147250000Y-107600000D03*
%TD*%
D14*
%TO.C,U30*%
X141650000Y-117650000D03*
X141650000Y-118350000D03*
D15*
X143250000Y-118350000D03*
D14*
X143350000Y-117650000D03*
%TD*%
D13*
%TO.C,R16*%
X142600000Y-107687500D03*
X142600000Y-109512500D03*
%TD*%
D14*
%TO.C,U36*%
X144650000Y-117650000D03*
X144650000Y-118350000D03*
D15*
X146250000Y-118350000D03*
D14*
X146350000Y-117650000D03*
%TD*%
%TO.C,U15*%
X161150000Y-124400000D03*
X161150000Y-125100000D03*
D15*
X162750000Y-125100000D03*
D14*
X162850000Y-124400000D03*
%TD*%
D13*
%TO.C,R3*%
X152750000Y-107587500D03*
X152750000Y-109412500D03*
%TD*%
D17*
%TO.C,R2*%
X170395235Y-114895235D03*
X169104765Y-113604765D03*
%TD*%
D18*
%TO.C,R13*%
X138662500Y-101750000D03*
X136837500Y-101750000D03*
%TD*%
D14*
%TO.C,U35*%
X146150000Y-124400000D03*
X146150000Y-125100000D03*
D15*
X147750000Y-125100000D03*
D14*
X147850000Y-124400000D03*
%TD*%
D19*
%TO.C,D3*%
X165250000Y-100725000D03*
D20*
X165250000Y-99100000D03*
%TD*%
D14*
%TO.C,U23*%
X144650000Y-122150000D03*
X144650000Y-122850000D03*
D15*
X146250000Y-122850000D03*
D14*
X146350000Y-122150000D03*
%TD*%
D21*
%TO.C,R9*%
X171000000Y-99162500D03*
X171000000Y-97337500D03*
%TD*%
D14*
%TO.C,U10*%
X153650000Y-117650000D03*
X153650000Y-118350000D03*
D15*
X155250000Y-118350000D03*
D14*
X155350000Y-117650000D03*
%TD*%
D17*
%TO.C,R1*%
X172870109Y-117370109D03*
X171579639Y-116079639D03*
%TD*%
D14*
%TO.C,U4*%
X150650000Y-117650000D03*
X150650000Y-118350000D03*
D15*
X152250000Y-118350000D03*
D14*
X152350000Y-117650000D03*
%TD*%
D22*
%TO.C,L1*%
X147000000Y-103987500D03*
X147000000Y-106112500D03*
%TD*%
D14*
%TO.C,U12*%
X162650000Y-122150000D03*
X162650000Y-122850000D03*
D15*
X164250000Y-122850000D03*
D14*
X164350000Y-122150000D03*
%TD*%
%TO.C,U37*%
X143150000Y-119900000D03*
X143150000Y-120600000D03*
D15*
X144750000Y-120600000D03*
D14*
X144850000Y-119900000D03*
%TD*%
D13*
%TO.C,R12*%
X157400000Y-107687500D03*
X157400000Y-109512500D03*
%TD*%
D14*
%TO.C,U7*%
X150650000Y-122150000D03*
X150650000Y-122850000D03*
D15*
X152250000Y-122850000D03*
D14*
X152350000Y-122150000D03*
%TD*%
%TO.C,U26*%
X147650000Y-117650000D03*
X147650000Y-118350000D03*
D15*
X149250000Y-118350000D03*
D14*
X149350000Y-117650000D03*
%TD*%
%TO.C,U31*%
X140150000Y-119900000D03*
X140150000Y-120600000D03*
D15*
X141750000Y-120600000D03*
D14*
X141850000Y-119900000D03*
%TD*%
D23*
%TO.C,C5*%
X145450000Y-98500000D03*
X143550000Y-98500000D03*
%TD*%
D21*
%TO.C,R14*%
X159400000Y-101512500D03*
X159400000Y-99687500D03*
%TD*%
D14*
%TO.C,U14*%
X155150000Y-124400000D03*
X155150000Y-125100000D03*
D15*
X156750000Y-125100000D03*
D14*
X156850000Y-124400000D03*
%TD*%
%TO.C,U11*%
X155150000Y-119900000D03*
X155150000Y-120600000D03*
D15*
X156750000Y-120600000D03*
D14*
X156850000Y-119900000D03*
%TD*%
D19*
%TO.C,D1*%
X134750000Y-100725000D03*
D20*
X134750000Y-99100000D03*
%TD*%
D14*
%TO.C,U41*%
X144650000Y-126650000D03*
X144650000Y-127350000D03*
D15*
X146250000Y-127350000D03*
D14*
X146350000Y-126650000D03*
%TD*%
%TO.C,U38*%
X141650000Y-126650000D03*
X141650000Y-127350000D03*
D15*
X143250000Y-127350000D03*
D14*
X143350000Y-126650000D03*
%TD*%
D23*
%TO.C,C4*%
X150950000Y-104300000D03*
X149050000Y-104300000D03*
%TD*%
D14*
%TO.C,U25*%
X137150000Y-119900000D03*
X137150000Y-120600000D03*
D15*
X138750000Y-120600000D03*
D14*
X138850000Y-119900000D03*
%TD*%
%TO.C,U42*%
X147650000Y-126650000D03*
X147650000Y-127350000D03*
D15*
X149250000Y-127350000D03*
D14*
X149350000Y-126650000D03*
%TD*%
%TO.C,U29*%
X146150000Y-119900000D03*
X146150000Y-120600000D03*
D15*
X147750000Y-120600000D03*
D14*
X147850000Y-119900000D03*
%TD*%
%TO.C,U28*%
X137150000Y-124400000D03*
X137150000Y-125100000D03*
D15*
X138750000Y-125100000D03*
D14*
X138850000Y-124400000D03*
%TD*%
D24*
%TO.C,U1*%
X149050000Y-108687500D03*
X150000000Y-108687500D03*
X150950000Y-108687500D03*
X150950000Y-106412500D03*
X150000000Y-106412500D03*
X149050000Y-106412500D03*
%TD*%
D14*
%TO.C,U19*%
X156650000Y-122150000D03*
X156650000Y-122850000D03*
D15*
X158250000Y-122850000D03*
D14*
X158350000Y-122150000D03*
%TD*%
D13*
%TO.C,R10*%
X155400000Y-107687500D03*
X155400000Y-109512500D03*
%TD*%
%TO.C,R5*%
X129000000Y-100837500D03*
X129000000Y-102662500D03*
%TD*%
D14*
%TO.C,U8*%
X152150000Y-124400000D03*
X152150000Y-125100000D03*
D15*
X153750000Y-125100000D03*
D14*
X153850000Y-124400000D03*
%TD*%
%TO.C,U9*%
X161150000Y-119900000D03*
X161150000Y-120600000D03*
D15*
X162750000Y-120600000D03*
D14*
X162850000Y-119900000D03*
%TD*%
D25*
%TO.C,SW1*%
X161450000Y-94750000D03*
X170550000Y-94750000D03*
X161450000Y-90250000D03*
X170550000Y-90250000D03*
%TD*%
D26*
%TO.C,R7*%
X135060527Y-85327735D03*
X133770057Y-86618205D03*
%TD*%
D14*
%TO.C,U16*%
X156650000Y-117650000D03*
X156650000Y-118350000D03*
D15*
X158250000Y-118350000D03*
D14*
X158350000Y-117650000D03*
%TD*%
%TO.C,U32*%
X147650000Y-122150000D03*
X147650000Y-122850000D03*
D15*
X149250000Y-122850000D03*
D14*
X149350000Y-122150000D03*
%TD*%
%TO.C,U34*%
X140150000Y-124400000D03*
X140150000Y-125100000D03*
D15*
X141750000Y-125100000D03*
D14*
X141850000Y-124400000D03*
%TD*%
D27*
%TO.C,Q2*%
X161562500Y-99650000D03*
X161562500Y-101550000D03*
X163437500Y-100600000D03*
%TD*%
D14*
%TO.C,U21*%
X153650000Y-126650000D03*
X153650000Y-127350000D03*
D15*
X155250000Y-127350000D03*
D14*
X155350000Y-126650000D03*
%TD*%
%TO.C,U33*%
X138650000Y-122150000D03*
X138650000Y-122850000D03*
D15*
X140250000Y-122850000D03*
D14*
X140350000Y-122150000D03*
%TD*%
%TO.C,U39*%
X141650000Y-122150000D03*
X141650000Y-122850000D03*
D15*
X143250000Y-122850000D03*
D14*
X143350000Y-122150000D03*
%TD*%
%TO.C,U22*%
X156650000Y-126650000D03*
X156650000Y-127350000D03*
D15*
X158250000Y-127350000D03*
D14*
X158350000Y-126650000D03*
%TD*%
D28*
%TO.C,R15*%
X161487500Y-97800000D03*
X163312500Y-97800000D03*
%TD*%
D14*
%TO.C,U24*%
X138650000Y-117650000D03*
X138650000Y-118350000D03*
D15*
X140250000Y-118350000D03*
D14*
X140350000Y-117650000D03*
%TD*%
%TO.C,U27*%
X135650000Y-122150000D03*
X135650000Y-122850000D03*
D15*
X137250000Y-122850000D03*
D14*
X137350000Y-122150000D03*
%TD*%
%TO.C,U3*%
X159650000Y-122150000D03*
X159650000Y-122850000D03*
D15*
X161250000Y-122850000D03*
D14*
X161350000Y-122150000D03*
%TD*%
D29*
%TO.C,Q1*%
X138437500Y-99950000D03*
X138437500Y-98050000D03*
X136562500Y-99000000D03*
%TD*%
D14*
%TO.C,U6*%
X159650000Y-117650000D03*
X159650000Y-118350000D03*
D15*
X161250000Y-118350000D03*
D14*
X161350000Y-117650000D03*
%TD*%
D30*
%TO.C,D4*%
X136700000Y-93350000D03*
X136700000Y-90150000D03*
X131800000Y-90150000D03*
X131800000Y-93350000D03*
%TD*%
D14*
%TO.C,U5*%
X152150000Y-119900000D03*
X152150000Y-120600000D03*
D15*
X153750000Y-120600000D03*
D14*
X153850000Y-119900000D03*
%TD*%
D26*
%TO.C,R6*%
X137535401Y-82852861D03*
X136244931Y-84143331D03*
%TD*%
D21*
%TO.C,R8*%
X171000000Y-102662500D03*
X171000000Y-100837500D03*
%TD*%
D16*
%TO.C,C2*%
X152750000Y-105950000D03*
X152750000Y-104050000D03*
%TD*%
D14*
%TO.C,U20*%
X158150000Y-124400000D03*
X158150000Y-125100000D03*
D15*
X159750000Y-125100000D03*
D14*
X159850000Y-124400000D03*
%TD*%
%TO.C,U13*%
X153650000Y-122150000D03*
X153650000Y-122850000D03*
D15*
X155250000Y-122850000D03*
D14*
X155350000Y-122150000D03*
%TD*%
%TO.C,U18*%
X150650000Y-126650000D03*
X150650000Y-127350000D03*
D15*
X152250000Y-127350000D03*
D14*
X152350000Y-126650000D03*
%TD*%
D30*
%TO.C,D2*%
X152450000Y-101600000D03*
X152450000Y-98400000D03*
X147550000Y-98400000D03*
X147550000Y-101600000D03*
%TD*%
M02*
