%TF.GenerationSoftware,KiCad,Pcbnew,7.0.10*%
%TF.CreationDate,2024-02-08T00:21:34+01:00*%
%TF.ProjectId,robot_pcb,726f626f-745f-4706-9362-2e6b69636164,rev?*%
%TF.SameCoordinates,Original*%
%TF.FileFunction,Copper,L2,Bot*%
%TF.FilePolarity,Positive*%
%FSLAX46Y46*%
G04 Gerber Fmt 4.6, Leading zero omitted, Abs format (unit mm)*
G04 Created by KiCad (PCBNEW 7.0.10) date 2024-02-08 00:21:34*
%MOMM*%
%LPD*%
G01*
G04 APERTURE LIST*
G04 Aperture macros list*
%AMHorizOval*
0 Thick line with rounded ends*
0 $1 width*
0 $2 $3 position (X,Y) of the first rounded end (center of the circle)*
0 $4 $5 position (X,Y) of the second rounded end (center of the circle)*
0 Add line between two ends*
20,1,$1,$2,$3,$4,$5,0*
0 Add two circle primitives to create the rounded ends*
1,1,$1,$2,$3*
1,1,$1,$4,$5*%
%AMRotRect*
0 Rectangle, with rotation*
0 The origin of the aperture is its center*
0 $1 length*
0 $2 width*
0 $3 Rotation angle, in degrees counterclockwise*
0 Add horizontal line*
21,1,$1,$2,0,0,$3*%
G04 Aperture macros list end*
%TA.AperFunction,HeatsinkPad*%
%ADD10C,0.600000*%
%TD*%
%TA.AperFunction,ComponentPad*%
%ADD11RotRect,2.500000X2.000000X333.000000*%
%TD*%
%TA.AperFunction,ComponentPad*%
%ADD12HorizOval,2.000000X0.222752X-0.113498X-0.222752X0.113498X0*%
%TD*%
%TA.AperFunction,ComponentPad*%
%ADD13RotRect,2.500000X2.500000X292.000000*%
%TD*%
%TA.AperFunction,ComponentPad*%
%ADD14C,2.500000*%
%TD*%
%TA.AperFunction,ComponentPad*%
%ADD15C,1.800000*%
%TD*%
%TA.AperFunction,ComponentPad*%
%ADD16C,1.600000*%
%TD*%
%TA.AperFunction,ComponentPad*%
%ADD17R,1.700000X1.700000*%
%TD*%
%TA.AperFunction,ComponentPad*%
%ADD18O,1.700000X1.700000*%
%TD*%
%TA.AperFunction,ViaPad*%
%ADD19C,0.800000*%
%TD*%
%TA.AperFunction,ViaPad*%
%ADD20C,0.500000*%
%TD*%
%TA.AperFunction,ViaPad*%
%ADD21C,0.700000*%
%TD*%
%TA.AperFunction,Conductor*%
%ADD22C,0.300000*%
%TD*%
%TA.AperFunction,Conductor*%
%ADD23C,0.150000*%
%TD*%
G04 APERTURE END LIST*
D10*
%TO.P,U2,39,GND*%
%TO.N,GND*%
X147100000Y-85470000D03*
X149200000Y-86170000D03*
X149900000Y-86870000D03*
X147800000Y-87570000D03*
X147100000Y-86870000D03*
X147800000Y-86170000D03*
X149900000Y-85470000D03*
X147800000Y-84770000D03*
X148475000Y-85470000D03*
X149200000Y-84770000D03*
X149200000Y-87570000D03*
X148475000Y-86870000D03*
%TD*%
D11*
%TO.P,C1,1*%
%TO.N,VCC*%
X169134976Y-106522484D03*
D12*
%TO.P,C1,2*%
%TO.N,GND*%
X166865024Y-110977517D03*
%TD*%
D13*
%TO.P,J1,1,Pin_1*%
%TO.N,GND*%
X126063484Y-107932040D03*
D14*
%TO.P,J1,2,Pin_2*%
%TO.N,Net-(J1-Pin_2)*%
X127936517Y-112567959D03*
%TD*%
D15*
%TO.P,M2,1,+*%
%TO.N,+3V3*%
X167250000Y-101500000D03*
%TO.P,M2,2,-*%
%TO.N,Net-(D3-A)*%
X167250000Y-98500000D03*
%TD*%
D16*
%TO.P,TH1,1*%
%TO.N,Net-(J1-Pin_2)*%
X133289230Y-106915681D03*
%TO.P,TH1,2*%
%TO.N,VCC*%
X138210770Y-107084319D03*
%TD*%
D15*
%TO.P,M1,1,+*%
%TO.N,+3V3*%
X132750000Y-101500000D03*
%TO.P,M1,2,-*%
%TO.N,Net-(D1-A)*%
X132750000Y-98500000D03*
%TD*%
D17*
%TO.P,J3,1,Pin_1*%
%TO.N,unconnected-(J3-Pin_1-Pad1)*%
X161650000Y-87250000D03*
D18*
%TO.P,J3,2,Pin_2*%
%TO.N,PROG_RX*%
X164190000Y-87250000D03*
%TO.P,J3,3,Pin_3*%
%TO.N,PROG_TX*%
X166730000Y-87250000D03*
%TO.P,J3,4,Pin_4*%
%TO.N,Net-(J3-Pin_4)*%
X169270000Y-87250000D03*
%TO.P,J3,5,Pin_5*%
%TO.N,unconnected-(J3-Pin_5-Pad5)*%
X171810000Y-87250000D03*
%TO.P,J3,6,Pin_6*%
%TO.N,GND*%
X174350000Y-87250000D03*
%TD*%
D19*
%TO.N,BUMPER4*%
X155500000Y-88600000D03*
%TO.N,SCL1*%
X157300000Y-93700000D03*
D20*
%TO.N,+3V3*%
X147218750Y-119900001D03*
X148700000Y-117700000D03*
X154700000Y-122200000D03*
D21*
X146000000Y-109600000D03*
D20*
X151700000Y-122200000D03*
X153200000Y-119900000D03*
X162218750Y-124400001D03*
D21*
X145900000Y-99800000D03*
D20*
X142700000Y-122200000D03*
D21*
X173800000Y-116400000D03*
D20*
X148700000Y-122200000D03*
X142700000Y-117700000D03*
D21*
X136536613Y-81871752D03*
D20*
X139700000Y-117700000D03*
X156200000Y-119900000D03*
X160700000Y-122200000D03*
X154700000Y-126700000D03*
D21*
X145550000Y-104000000D03*
D20*
X159200000Y-124400000D03*
X145700000Y-126700000D03*
X154700000Y-117700000D03*
X145700000Y-117700000D03*
D21*
X178000000Y-94700000D03*
D20*
X138181250Y-124399999D03*
X163700000Y-122200000D03*
D21*
X147000000Y-110400000D03*
X165400000Y-82400000D03*
D20*
X151700000Y-117700000D03*
D21*
X141400000Y-107400000D03*
D20*
X145700000Y-122200000D03*
X157700000Y-122200000D03*
X144181250Y-124399999D03*
X157700000Y-126700000D03*
X162218750Y-119900001D03*
X156200000Y-124400000D03*
X159200000Y-119900000D03*
D21*
X142600000Y-81000000D03*
D20*
X151700000Y-126700000D03*
D21*
X158600000Y-107600000D03*
D20*
X157700000Y-117700000D03*
X136700000Y-122200000D03*
X138200000Y-119900000D03*
X153200000Y-124400000D03*
X139700000Y-122200000D03*
X144200000Y-119900000D03*
D21*
X146000000Y-110400000D03*
D20*
X160700000Y-117700000D03*
X141200000Y-119900000D03*
X148700000Y-126700000D03*
X142700000Y-126700000D03*
X147200000Y-124400000D03*
D21*
X172400000Y-102800000D03*
D20*
X141181250Y-124399999D03*
D21*
%TO.N,BUMPER1*%
X142600000Y-86070000D03*
X165800000Y-114400000D03*
%TO.N,BUMPER4*%
X169600000Y-99200000D03*
%TO.N,PROG_RX*%
X160200000Y-82200000D03*
X169000000Y-83000000D03*
%TO.N,SDA1*%
X152800000Y-89800000D03*
X155400000Y-110600000D03*
D20*
%TO.N,SCL1*%
X157512666Y-122900001D03*
X153012667Y-120650000D03*
X156012666Y-125150001D03*
X154499999Y-127400001D03*
X154512666Y-118400001D03*
X160499999Y-118400001D03*
X157499999Y-127400001D03*
X154512667Y-122900000D03*
X151512666Y-122900001D03*
X157499999Y-118400001D03*
X162012666Y-125150001D03*
X159012666Y-120650001D03*
D21*
X157400000Y-110600000D03*
D20*
X163512666Y-122900001D03*
X151499999Y-127400001D03*
X159012666Y-125150001D03*
X162012666Y-120650001D03*
X156012666Y-120650001D03*
X153012667Y-125150000D03*
X160512666Y-122900001D03*
X151512666Y-118400001D03*
D21*
%TO.N,SDA2*%
X142600000Y-110600000D03*
X142600000Y-93700000D03*
D20*
%TO.N,SCL2*%
X142500000Y-127400000D03*
X145499999Y-127400001D03*
D21*
X144600000Y-110600000D03*
D20*
X139512667Y-118400000D03*
X148499999Y-127400001D03*
X145512666Y-122900001D03*
X148512666Y-118400001D03*
X147012666Y-120650001D03*
X148512666Y-122900001D03*
X138012667Y-120650000D03*
X142512666Y-118400001D03*
X144012666Y-125150001D03*
X141012666Y-120650001D03*
X147012666Y-125150001D03*
D21*
X143200000Y-91200000D03*
D20*
X141012666Y-125150001D03*
X142512666Y-122900001D03*
X138012667Y-125150000D03*
X139512666Y-122900001D03*
X136512667Y-122900000D03*
X144012666Y-120650001D03*
X145512666Y-118400001D03*
D21*
%TO.N,VCC*%
X143800000Y-103000000D03*
X143800000Y-87400000D03*
%TD*%
D22*
%TO.N,BUMPER1*%
X142600000Y-86070000D02*
X145270000Y-86070000D01*
X146250000Y-89100000D02*
X154300000Y-89100000D01*
X145270000Y-86070000D02*
X145800000Y-86600000D01*
X145800000Y-86600000D02*
X145800000Y-88650000D01*
X165800000Y-111893884D02*
X165800000Y-114400000D01*
X145800000Y-88650000D02*
X146250000Y-89100000D01*
X154300000Y-89100000D02*
X158000000Y-92800000D01*
X158000000Y-92800000D02*
X158000000Y-104093884D01*
X158000000Y-104093884D02*
X165800000Y-111893884D01*
%TO.N,BUMPER4*%
X160100000Y-93200000D02*
X155500000Y-88600000D01*
X160600000Y-93200000D02*
X160100000Y-93200000D01*
%TO.N,SCL1*%
X157300000Y-93700000D02*
X157400000Y-93800000D01*
X157400000Y-93800000D02*
X157400000Y-110600000D01*
%TO.N,SDA2*%
X142600000Y-110600000D02*
X142600000Y-93700000D01*
%TO.N,BUMPER4*%
X163647057Y-93200000D02*
X160600000Y-93200000D01*
X169600000Y-99152943D02*
X163647057Y-93200000D01*
X169600000Y-99200000D02*
X169600000Y-99152943D01*
%TO.N,PROG_RX*%
X168800000Y-83200000D02*
X161200000Y-83200000D01*
X164190000Y-87250000D02*
X164190000Y-86190000D01*
X169000000Y-83000000D02*
X168800000Y-83200000D01*
X161200000Y-83200000D02*
X160200000Y-82200000D01*
X164190000Y-86190000D02*
X160200000Y-82200000D01*
%TO.N,SDA1*%
X155400000Y-92400000D02*
X155400000Y-110600000D01*
X152800000Y-89800000D02*
X155400000Y-92400000D01*
D23*
%TO.N,SCL1*%
X163712666Y-122900001D02*
X151712666Y-122900001D01*
X157699999Y-127400001D02*
X153800000Y-127400001D01*
X162212665Y-125150000D02*
X162212666Y-125150001D01*
X157100000Y-118300001D02*
X157000000Y-118400001D01*
X153800000Y-118400001D02*
X153800000Y-127400001D01*
X153212667Y-120650000D02*
X162212665Y-120650000D01*
X151712666Y-118400001D02*
X153800000Y-118400001D01*
X162212665Y-120650000D02*
X162212666Y-120650001D01*
X153212667Y-125150000D02*
X162212665Y-125150000D01*
X157100000Y-110900000D02*
X157100000Y-118300001D01*
D22*
X157400000Y-110600000D02*
X157100000Y-110900000D01*
D23*
X153800000Y-118400001D02*
X157000000Y-118400001D01*
X157000000Y-118400001D02*
X160699999Y-118400001D01*
X153800000Y-127400001D02*
X151699999Y-127400001D01*
%TO.N,SCL2*%
X146550000Y-127400001D02*
X142700001Y-127400001D01*
X147212666Y-125150001D02*
X138212668Y-125150001D01*
X146550000Y-118400001D02*
X146550000Y-127400001D01*
X139712668Y-118400001D02*
X139712667Y-118400000D01*
X138212668Y-125150001D02*
X138212667Y-125150000D01*
X144600000Y-110600000D02*
X144600000Y-118400001D01*
X142700001Y-127400001D02*
X142700000Y-127400000D01*
D22*
X143200000Y-109200000D02*
X143200000Y-91200000D01*
D23*
X148712666Y-122900001D02*
X136712668Y-122900001D01*
D22*
X144600000Y-110600000D02*
X143200000Y-109200000D01*
D23*
X136712668Y-122900001D02*
X136712667Y-122900000D01*
X144600000Y-118400001D02*
X139712668Y-118400001D01*
X147212666Y-120650001D02*
X138212668Y-120650001D01*
X148699999Y-127400001D02*
X146550000Y-127400001D01*
X148712666Y-118400001D02*
X146550000Y-118400001D01*
X138212668Y-120650001D02*
X138212667Y-120650000D01*
X146550000Y-118400001D02*
X144600000Y-118400001D01*
D22*
%TO.N,VCC*%
X143800000Y-103000000D02*
X143800000Y-87400000D01*
%TD*%
%TA.AperFunction,Conductor*%
%TO.N,+3V3*%
G36*
X169440033Y-77155882D02*
G01*
X170080816Y-77712552D01*
X170081450Y-77713124D01*
X170725086Y-78314519D01*
X170874551Y-78454175D01*
X170875176Y-78454780D01*
X171640984Y-79224118D01*
X171641585Y-79224744D01*
X171897168Y-79500813D01*
X172129123Y-79751360D01*
X172325605Y-79963590D01*
X172326115Y-79964141D01*
X172326124Y-79964164D01*
X172326131Y-79964158D01*
X172326305Y-79964346D01*
X172335204Y-79973977D01*
X172380377Y-80022864D01*
X172380940Y-80023496D01*
X172727550Y-80426204D01*
X172909603Y-80637723D01*
X172974056Y-80712607D01*
X172974432Y-80713044D01*
X172974443Y-80713072D01*
X172974451Y-80713066D01*
X173091452Y-80849339D01*
X173091988Y-80849986D01*
X173620249Y-81510695D01*
X173620261Y-81510730D01*
X173620271Y-81510723D01*
X173772050Y-81701136D01*
X173772558Y-81701797D01*
X174250239Y-82345731D01*
X174250253Y-82345774D01*
X174250265Y-82345766D01*
X174421240Y-82577096D01*
X174421719Y-82577769D01*
X174857335Y-83211742D01*
X174900871Y-83275376D01*
X175038149Y-83476035D01*
X175038601Y-83476719D01*
X175437880Y-84105424D01*
X175437874Y-84105427D01*
X175437909Y-84105470D01*
X175621999Y-84396815D01*
X175622422Y-84397510D01*
X175700952Y-84531661D01*
X175979993Y-85008342D01*
X175988834Y-85023444D01*
X175988865Y-85023498D01*
X176171996Y-85338190D01*
X176172391Y-85338894D01*
X176508600Y-85964109D01*
X176508632Y-85964169D01*
X176687427Y-86298931D01*
X176687792Y-86299644D01*
X176995396Y-86924937D01*
X176995413Y-86925012D01*
X176995429Y-86925005D01*
X177167602Y-87277760D01*
X177167939Y-87278480D01*
X177332516Y-87646063D01*
X177445338Y-87898052D01*
X177448264Y-87904586D01*
X177539356Y-88109898D01*
X177611900Y-88273405D01*
X177612207Y-88274130D01*
X177866161Y-88901289D01*
X177866178Y-88901377D01*
X177866194Y-88901371D01*
X178019715Y-89284516D01*
X178019994Y-89285246D01*
X178117628Y-89553936D01*
X178248180Y-89913221D01*
X178248352Y-89913692D01*
X178248368Y-89913787D01*
X178248384Y-89913782D01*
X178390520Y-90309774D01*
X178390770Y-90310508D01*
X178594091Y-90940204D01*
X178594106Y-90940304D01*
X178594122Y-90940300D01*
X178723829Y-91347841D01*
X178724050Y-91348577D01*
X178902808Y-91979466D01*
X178902837Y-91979569D01*
X179019187Y-92397299D01*
X179019380Y-92398037D01*
X179173912Y-93029803D01*
X179173938Y-93029913D01*
X179276218Y-93456798D01*
X179276383Y-93457535D01*
X179406999Y-94089929D01*
X179407023Y-94090047D01*
X179494583Y-94524944D01*
X179494719Y-94525681D01*
X179601628Y-95158098D01*
X179601638Y-95158224D01*
X179601649Y-95158223D01*
X179673988Y-95600306D01*
X179674097Y-95601041D01*
X179757539Y-96233123D01*
X179757556Y-96233255D01*
X179814205Y-96681518D01*
X179814286Y-96682250D01*
X179874450Y-97313406D01*
X179874463Y-97313544D01*
X179915037Y-97767058D01*
X179915090Y-97767786D01*
X179952184Y-98397674D01*
X179952188Y-98397821D01*
X179952193Y-98397821D01*
X179976356Y-98855525D01*
X179976383Y-98856247D01*
X179990583Y-99484126D01*
X179990586Y-99484279D01*
X179998086Y-99945550D01*
X179998087Y-99946267D01*
X179989578Y-100571651D01*
X179989575Y-100571809D01*
X179980194Y-101035616D01*
X179980169Y-101036326D01*
X179949141Y-101658619D01*
X179949132Y-101658784D01*
X179922705Y-102124289D01*
X179922655Y-102124991D01*
X179869317Y-102743456D01*
X179869302Y-102743627D01*
X179825695Y-103210179D01*
X179825620Y-103210873D01*
X179750155Y-103825123D01*
X179750132Y-103825300D01*
X179689296Y-104291802D01*
X179689197Y-104292485D01*
X179591841Y-104901719D01*
X179591811Y-104901902D01*
X179513688Y-105367731D01*
X179513566Y-105368404D01*
X179394540Y-105972077D01*
X179394502Y-105972264D01*
X179299093Y-106436616D01*
X179298947Y-106437278D01*
X179158532Y-107034591D01*
X179158486Y-107034784D01*
X179045807Y-107496973D01*
X179045639Y-107497622D01*
X178884078Y-108088038D01*
X178884023Y-108088235D01*
X178754161Y-108547418D01*
X178753971Y-108548055D01*
X178571592Y-109130792D01*
X178571529Y-109130993D01*
X178424542Y-109586565D01*
X178424331Y-109587189D01*
X178221400Y-110161728D01*
X178221327Y-110161933D01*
X178057378Y-110613061D01*
X178057147Y-110613670D01*
X177833983Y-111179380D01*
X177833900Y-111179588D01*
X177653167Y-111625514D01*
X177652916Y-111626109D01*
X177409859Y-112182355D01*
X177409766Y-112182565D01*
X177212446Y-112622588D01*
X177212177Y-112623168D01*
X176949565Y-113169366D01*
X176949461Y-113169578D01*
X176735779Y-113603010D01*
X176735492Y-113603574D01*
X176453780Y-114138948D01*
X176453666Y-114139163D01*
X176223814Y-114565442D01*
X176223510Y-114565989D01*
X175922967Y-115090171D01*
X175922841Y-115090386D01*
X175677228Y-115508621D01*
X175676908Y-115509152D01*
X175358016Y-116021415D01*
X175357879Y-116021631D01*
X175096713Y-116431349D01*
X175096377Y-116431862D01*
X174759680Y-116931454D01*
X174759532Y-116931671D01*
X174483035Y-117332403D01*
X174482684Y-117332898D01*
X174128618Y-117819286D01*
X174128459Y-117819502D01*
X173837067Y-118210502D01*
X173836702Y-118210979D01*
X173465688Y-118683682D01*
X173465517Y-118683898D01*
X173159604Y-119064571D01*
X173159226Y-119065029D01*
X172771787Y-119523462D01*
X172771604Y-119523676D01*
X172451570Y-119893443D01*
X172451181Y-119893882D01*
X172047797Y-120337548D01*
X172047601Y-120337761D01*
X171713911Y-120696021D01*
X171713510Y-120696441D01*
X171294698Y-121124830D01*
X171294491Y-121125039D01*
X170947553Y-121471291D01*
X170947142Y-121471692D01*
X170513509Y-121884242D01*
X170513289Y-121884448D01*
X170153550Y-122218187D01*
X170153129Y-122218569D01*
X169705225Y-122614812D01*
X169704993Y-122615014D01*
X169332913Y-122935759D01*
X169332484Y-122936120D01*
X168870970Y-123315522D01*
X168870726Y-123315721D01*
X168486787Y-123623006D01*
X168486350Y-123623347D01*
X168011667Y-123985590D01*
X168011410Y-123985783D01*
X167616248Y-124279060D01*
X167615804Y-124279382D01*
X167128706Y-124623924D01*
X167128438Y-124624111D01*
X166722434Y-124903060D01*
X166721984Y-124903362D01*
X166223032Y-125229846D01*
X166222751Y-125230027D01*
X165806551Y-125494164D01*
X165806096Y-125494445D01*
X165295938Y-125802477D01*
X165295646Y-125802651D01*
X164869855Y-126051569D01*
X164869395Y-126051831D01*
X164348675Y-126341048D01*
X164348371Y-126341214D01*
X163913437Y-126574619D01*
X163912974Y-126574861D01*
X163382474Y-126844858D01*
X163382158Y-126845016D01*
X162938706Y-127062546D01*
X162938240Y-127062768D01*
X162398515Y-127313286D01*
X162398188Y-127313435D01*
X161946943Y-127514714D01*
X161946476Y-127514917D01*
X161398182Y-127745667D01*
X161397843Y-127745806D01*
X160939350Y-127930575D01*
X160938882Y-127930758D01*
X160382885Y-128141395D01*
X160382535Y-128141525D01*
X159917319Y-128309551D01*
X159916850Y-128309715D01*
X159353736Y-128500034D01*
X159353376Y-128500152D01*
X158882252Y-128651125D01*
X158881784Y-128651270D01*
X158312321Y-128821026D01*
X158311950Y-128821133D01*
X157835398Y-128954887D01*
X157834932Y-128955013D01*
X157259866Y-129103995D01*
X157259485Y-129104090D01*
X156778292Y-129220391D01*
X156777828Y-129220499D01*
X156197811Y-129348549D01*
X156197421Y-129348631D01*
X155712204Y-129447323D01*
X155711742Y-129447413D01*
X155127566Y-129554361D01*
X155127167Y-129554430D01*
X154638583Y-129635373D01*
X154638124Y-129635445D01*
X154050608Y-129721150D01*
X154050200Y-129721206D01*
X153558783Y-129784301D01*
X153558329Y-129784355D01*
X152968216Y-129848718D01*
X152967800Y-129848759D01*
X152474368Y-129893891D01*
X152473919Y-129893928D01*
X151881938Y-129936879D01*
X151881514Y-129936906D01*
X151386659Y-129964014D01*
X151386215Y-129964034D01*
X150793136Y-129985521D01*
X150792705Y-129985533D01*
X150297193Y-129994574D01*
X150296755Y-129994578D01*
X149703245Y-129994578D01*
X149702807Y-129994574D01*
X149207293Y-129985533D01*
X149206862Y-129985521D01*
X148613783Y-129964034D01*
X148613339Y-129964014D01*
X148118484Y-129936906D01*
X148118060Y-129936879D01*
X147526079Y-129893928D01*
X147525630Y-129893891D01*
X147032198Y-129848759D01*
X147031782Y-129848718D01*
X146441669Y-129784355D01*
X146441215Y-129784301D01*
X145949798Y-129721206D01*
X145949390Y-129721150D01*
X145361874Y-129635445D01*
X145361415Y-129635373D01*
X144872831Y-129554430D01*
X144872432Y-129554361D01*
X144288256Y-129447413D01*
X144287794Y-129447323D01*
X143802577Y-129348631D01*
X143802187Y-129348549D01*
X143222170Y-129220499D01*
X143221706Y-129220391D01*
X142740513Y-129104090D01*
X142740132Y-129103995D01*
X142165066Y-128955013D01*
X142164600Y-128954887D01*
X141688048Y-128821133D01*
X141687677Y-128821026D01*
X141118214Y-128651270D01*
X141117746Y-128651125D01*
X140646622Y-128500152D01*
X140646262Y-128500034D01*
X140083148Y-128309715D01*
X140082679Y-128309551D01*
X139617463Y-128141525D01*
X139617113Y-128141395D01*
X139061116Y-127930758D01*
X139060648Y-127930575D01*
X138602155Y-127745806D01*
X138601816Y-127745667D01*
X138053522Y-127514917D01*
X138053055Y-127514714D01*
X137601810Y-127313435D01*
X137601483Y-127313286D01*
X137061758Y-127062768D01*
X137061292Y-127062546D01*
X136617840Y-126845016D01*
X136617524Y-126844858D01*
X136087024Y-126574861D01*
X136086561Y-126574619D01*
X135651627Y-126341214D01*
X135651323Y-126341048D01*
X135130603Y-126051831D01*
X135130166Y-126051582D01*
X134917337Y-125927162D01*
X134704352Y-125802651D01*
X134704060Y-125802477D01*
X134193902Y-125494445D01*
X134193447Y-125494164D01*
X133777247Y-125230027D01*
X133776966Y-125229846D01*
X133375989Y-124967471D01*
X133278013Y-124903361D01*
X133277564Y-124903060D01*
X132871560Y-124624111D01*
X132871292Y-124623924D01*
X132384194Y-124279382D01*
X132383750Y-124279060D01*
X131988588Y-123985783D01*
X131988331Y-123985590D01*
X131513648Y-123623347D01*
X131513211Y-123623006D01*
X131129272Y-123315721D01*
X131129028Y-123315522D01*
X130667501Y-122936109D01*
X130667085Y-122935759D01*
X130625603Y-122900000D01*
X136107175Y-122900000D01*
X136127021Y-123025306D01*
X136184614Y-123138338D01*
X136184615Y-123138339D01*
X136184617Y-123138342D01*
X136274325Y-123228050D01*
X136274327Y-123228051D01*
X136274328Y-123228052D01*
X136387360Y-123285645D01*
X136387361Y-123285645D01*
X136387363Y-123285646D01*
X136512667Y-123305492D01*
X136637971Y-123285646D01*
X136751009Y-123228050D01*
X136840717Y-123138342D01*
X136866059Y-123088604D01*
X136880026Y-123076676D01*
X136887443Y-123075501D01*
X139137889Y-123075501D01*
X139154860Y-123082530D01*
X139159273Y-123088605D01*
X139184613Y-123138339D01*
X139184614Y-123138340D01*
X139184616Y-123138343D01*
X139274324Y-123228051D01*
X139274326Y-123228052D01*
X139274327Y-123228053D01*
X139387359Y-123285646D01*
X139387360Y-123285646D01*
X139387362Y-123285647D01*
X139512666Y-123305493D01*
X139637970Y-123285647D01*
X139751008Y-123228051D01*
X139840716Y-123138343D01*
X139866059Y-123088604D01*
X139880026Y-123076676D01*
X139887443Y-123075501D01*
X142137889Y-123075501D01*
X142154860Y-123082530D01*
X142159273Y-123088605D01*
X142184613Y-123138339D01*
X142184614Y-123138340D01*
X142184616Y-123138343D01*
X142274324Y-123228051D01*
X142274326Y-123228052D01*
X142274327Y-123228053D01*
X142387359Y-123285646D01*
X142387360Y-123285646D01*
X142387362Y-123285647D01*
X142512666Y-123305493D01*
X142637970Y-123285647D01*
X142751008Y-123228051D01*
X142840716Y-123138343D01*
X142866059Y-123088604D01*
X142880026Y-123076676D01*
X142887443Y-123075501D01*
X145137889Y-123075501D01*
X145154860Y-123082530D01*
X145159273Y-123088605D01*
X145184613Y-123138339D01*
X145184614Y-123138340D01*
X145184616Y-123138343D01*
X145274324Y-123228051D01*
X145274326Y-123228052D01*
X145274327Y-123228053D01*
X145387359Y-123285646D01*
X145387360Y-123285646D01*
X145387362Y-123285647D01*
X145512666Y-123305493D01*
X145637970Y-123285647D01*
X145751008Y-123228051D01*
X145840716Y-123138343D01*
X145866059Y-123088604D01*
X145880026Y-123076676D01*
X145887443Y-123075501D01*
X146350500Y-123075501D01*
X146367471Y-123082530D01*
X146374500Y-123099501D01*
X146374500Y-124950501D01*
X146367471Y-124967472D01*
X146350500Y-124974501D01*
X144387443Y-124974501D01*
X144370472Y-124967472D01*
X144366059Y-124961397D01*
X144366058Y-124961396D01*
X144340716Y-124911659D01*
X144251008Y-124821951D01*
X144251005Y-124821949D01*
X144251004Y-124821948D01*
X144137972Y-124764355D01*
X144012666Y-124744509D01*
X143887359Y-124764355D01*
X143774327Y-124821948D01*
X143684613Y-124911662D01*
X143664825Y-124950500D01*
X143659274Y-124961396D01*
X143659273Y-124961397D01*
X143645306Y-124973326D01*
X143637889Y-124974501D01*
X141387443Y-124974501D01*
X141370472Y-124967472D01*
X141366059Y-124961397D01*
X141366058Y-124961396D01*
X141340716Y-124911659D01*
X141251008Y-124821951D01*
X141251005Y-124821949D01*
X141251004Y-124821948D01*
X141137972Y-124764355D01*
X141012666Y-124744509D01*
X140887359Y-124764355D01*
X140774327Y-124821948D01*
X140684613Y-124911662D01*
X140664825Y-124950500D01*
X140659274Y-124961396D01*
X140659273Y-124961397D01*
X140645306Y-124973326D01*
X140637889Y-124974501D01*
X138387444Y-124974501D01*
X138370473Y-124967472D01*
X138366060Y-124961397D01*
X138366059Y-124961396D01*
X138358485Y-124946530D01*
X138340719Y-124911661D01*
X138340718Y-124911660D01*
X138340717Y-124911658D01*
X138251009Y-124821950D01*
X138251006Y-124821948D01*
X138251005Y-124821947D01*
X138137973Y-124764354D01*
X138012667Y-124744508D01*
X137887360Y-124764354D01*
X137774328Y-124821947D01*
X137684614Y-124911661D01*
X137627021Y-125024693D01*
X137607175Y-125150000D01*
X137627021Y-125275306D01*
X137684614Y-125388338D01*
X137684615Y-125388339D01*
X137684617Y-125388342D01*
X137774325Y-125478050D01*
X137774327Y-125478051D01*
X137774328Y-125478052D01*
X137887360Y-125535645D01*
X137887361Y-125535645D01*
X137887363Y-125535646D01*
X138012667Y-125555492D01*
X138137971Y-125535646D01*
X138251009Y-125478050D01*
X138340717Y-125388342D01*
X138366059Y-125338604D01*
X138380026Y-125326676D01*
X138387443Y-125325501D01*
X140637889Y-125325501D01*
X140654860Y-125332530D01*
X140659273Y-125338605D01*
X140684613Y-125388339D01*
X140684614Y-125388340D01*
X140684616Y-125388343D01*
X140774324Y-125478051D01*
X140774326Y-125478052D01*
X140774327Y-125478053D01*
X140887359Y-125535646D01*
X140887360Y-125535646D01*
X140887362Y-125535647D01*
X141012666Y-125555493D01*
X141137970Y-125535647D01*
X141251008Y-125478051D01*
X141340716Y-125388343D01*
X141366059Y-125338604D01*
X141380026Y-125326676D01*
X141387443Y-125325501D01*
X143637889Y-125325501D01*
X143654860Y-125332530D01*
X143659273Y-125338605D01*
X143684613Y-125388339D01*
X143684614Y-125388340D01*
X143684616Y-125388343D01*
X143774324Y-125478051D01*
X143774326Y-125478052D01*
X143774327Y-125478053D01*
X143887359Y-125535646D01*
X143887360Y-125535646D01*
X143887362Y-125535647D01*
X144012666Y-125555493D01*
X144137970Y-125535647D01*
X144251008Y-125478051D01*
X144340716Y-125388343D01*
X144366059Y-125338604D01*
X144380026Y-125326676D01*
X144387443Y-125325501D01*
X146350500Y-125325501D01*
X146367471Y-125332530D01*
X146374500Y-125349501D01*
X146374500Y-127200501D01*
X146367471Y-127217472D01*
X146350500Y-127224501D01*
X145874776Y-127224501D01*
X145857805Y-127217472D01*
X145853392Y-127211397D01*
X145828051Y-127161662D01*
X145828050Y-127161661D01*
X145828049Y-127161659D01*
X145738341Y-127071951D01*
X145738338Y-127071949D01*
X145738337Y-127071948D01*
X145625305Y-127014355D01*
X145499999Y-126994509D01*
X145374692Y-127014355D01*
X145261660Y-127071948D01*
X145171946Y-127161662D01*
X145146606Y-127211397D01*
X145132639Y-127223326D01*
X145125222Y-127224501D01*
X142874777Y-127224501D01*
X142857806Y-127217472D01*
X142853393Y-127211397D01*
X142828052Y-127161661D01*
X142828051Y-127161660D01*
X142828050Y-127161658D01*
X142738342Y-127071950D01*
X142738339Y-127071948D01*
X142738338Y-127071947D01*
X142625306Y-127014354D01*
X142500000Y-126994508D01*
X142374693Y-127014354D01*
X142261661Y-127071947D01*
X142171947Y-127161661D01*
X142114354Y-127274693D01*
X142094508Y-127400000D01*
X142114354Y-127525306D01*
X142171947Y-127638338D01*
X142171948Y-127638339D01*
X142171950Y-127638342D01*
X142261658Y-127728050D01*
X142261660Y-127728051D01*
X142261661Y-127728052D01*
X142374693Y-127785645D01*
X142374694Y-127785645D01*
X142374696Y-127785646D01*
X142500000Y-127805492D01*
X142625304Y-127785646D01*
X142738342Y-127728050D01*
X142828050Y-127638342D01*
X142853392Y-127588604D01*
X142867359Y-127576676D01*
X142874776Y-127575501D01*
X145125222Y-127575501D01*
X145142193Y-127582530D01*
X145146606Y-127588605D01*
X145171946Y-127638339D01*
X145171947Y-127638340D01*
X145171949Y-127638343D01*
X145261657Y-127728051D01*
X145261659Y-127728052D01*
X145261660Y-127728053D01*
X145374692Y-127785646D01*
X145374693Y-127785646D01*
X145374695Y-127785647D01*
X145499999Y-127805493D01*
X145625303Y-127785647D01*
X145738341Y-127728051D01*
X145828049Y-127638343D01*
X145853392Y-127588604D01*
X145867359Y-127576676D01*
X145874776Y-127575501D01*
X146506743Y-127575501D01*
X146513442Y-127575501D01*
X146521953Y-127577061D01*
X146528213Y-127579435D01*
X146559172Y-127575676D01*
X146562065Y-127575501D01*
X148125222Y-127575501D01*
X148142193Y-127582530D01*
X148146606Y-127588605D01*
X148171946Y-127638339D01*
X148171947Y-127638340D01*
X148171949Y-127638343D01*
X148261657Y-127728051D01*
X148261659Y-127728052D01*
X148261660Y-127728053D01*
X148374692Y-127785646D01*
X148374693Y-127785646D01*
X148374695Y-127785647D01*
X148499999Y-127805493D01*
X148625303Y-127785647D01*
X148738341Y-127728051D01*
X148828049Y-127638343D01*
X148885645Y-127525305D01*
X148905491Y-127400001D01*
X148885645Y-127274697D01*
X148885644Y-127274695D01*
X148885644Y-127274694D01*
X148828051Y-127161662D01*
X148828050Y-127161661D01*
X148828049Y-127161659D01*
X148738341Y-127071951D01*
X148738338Y-127071949D01*
X148738337Y-127071948D01*
X148625305Y-127014355D01*
X148499999Y-126994509D01*
X148374692Y-127014355D01*
X148261660Y-127071948D01*
X148171946Y-127161662D01*
X148146606Y-127211397D01*
X148132639Y-127223326D01*
X148125222Y-127224501D01*
X146749500Y-127224501D01*
X146732529Y-127217472D01*
X146725500Y-127200501D01*
X146725500Y-125487168D01*
X146732529Y-125470197D01*
X146749500Y-125463168D01*
X146766469Y-125470196D01*
X146774324Y-125478051D01*
X146774326Y-125478052D01*
X146774327Y-125478053D01*
X146887359Y-125535646D01*
X146887360Y-125535646D01*
X146887362Y-125535647D01*
X147012666Y-125555493D01*
X147137970Y-125535647D01*
X147251008Y-125478051D01*
X147340716Y-125388343D01*
X147398312Y-125275305D01*
X147418158Y-125150001D01*
X147398312Y-125024697D01*
X147398311Y-125024695D01*
X147398311Y-125024694D01*
X147340718Y-124911662D01*
X147340717Y-124911661D01*
X147340716Y-124911659D01*
X147251008Y-124821951D01*
X147251005Y-124821949D01*
X147251004Y-124821948D01*
X147137972Y-124764355D01*
X147012666Y-124744509D01*
X146887359Y-124764355D01*
X146774324Y-124821949D01*
X146774324Y-124821950D01*
X146766470Y-124829804D01*
X146749499Y-124836833D01*
X146732529Y-124829803D01*
X146725500Y-124812833D01*
X146725500Y-123099501D01*
X146732529Y-123082530D01*
X146749500Y-123075501D01*
X148137889Y-123075501D01*
X148154860Y-123082530D01*
X148159273Y-123088605D01*
X148184613Y-123138339D01*
X148184614Y-123138340D01*
X148184616Y-123138343D01*
X148274324Y-123228051D01*
X148274326Y-123228052D01*
X148274327Y-123228053D01*
X148387359Y-123285646D01*
X148387360Y-123285646D01*
X148387362Y-123285647D01*
X148512666Y-123305493D01*
X148637970Y-123285647D01*
X148751008Y-123228051D01*
X148840716Y-123138343D01*
X148898312Y-123025305D01*
X148918158Y-122900001D01*
X148898312Y-122774697D01*
X148898311Y-122774695D01*
X148898311Y-122774694D01*
X148840718Y-122661662D01*
X148840717Y-122661661D01*
X148840716Y-122661659D01*
X148751008Y-122571951D01*
X148751005Y-122571949D01*
X148751004Y-122571948D01*
X148637972Y-122514355D01*
X148512666Y-122494509D01*
X148387359Y-122514355D01*
X148274327Y-122571948D01*
X148184613Y-122661662D01*
X148159273Y-122711397D01*
X148145306Y-122723326D01*
X148137889Y-122724501D01*
X146749500Y-122724501D01*
X146732529Y-122717472D01*
X146725500Y-122700501D01*
X146725500Y-120987168D01*
X146732529Y-120970197D01*
X146749500Y-120963168D01*
X146766469Y-120970196D01*
X146774324Y-120978051D01*
X146774326Y-120978052D01*
X146774327Y-120978053D01*
X146887359Y-121035646D01*
X146887360Y-121035646D01*
X146887362Y-121035647D01*
X147012666Y-121055493D01*
X147137970Y-121035647D01*
X147251008Y-120978051D01*
X147340716Y-120888343D01*
X147398312Y-120775305D01*
X147418158Y-120650001D01*
X147398312Y-120524697D01*
X147398311Y-120524695D01*
X147398311Y-120524694D01*
X147340718Y-120411662D01*
X147340717Y-120411661D01*
X147340716Y-120411659D01*
X147251008Y-120321951D01*
X147251005Y-120321949D01*
X147251004Y-120321948D01*
X147137972Y-120264355D01*
X147012666Y-120244509D01*
X146887359Y-120264355D01*
X146774324Y-120321949D01*
X146774324Y-120321950D01*
X146766470Y-120329804D01*
X146749499Y-120336833D01*
X146732529Y-120329803D01*
X146725500Y-120312833D01*
X146725500Y-118599501D01*
X146732529Y-118582530D01*
X146749500Y-118575501D01*
X148137889Y-118575501D01*
X148154860Y-118582530D01*
X148159273Y-118588605D01*
X148184613Y-118638339D01*
X148184614Y-118638340D01*
X148184616Y-118638343D01*
X148274324Y-118728051D01*
X148274326Y-118728052D01*
X148274327Y-118728053D01*
X148387359Y-118785646D01*
X148387360Y-118785646D01*
X148387362Y-118785647D01*
X148512666Y-118805493D01*
X148637970Y-118785647D01*
X148751008Y-118728051D01*
X148840716Y-118638343D01*
X148898312Y-118525305D01*
X148918158Y-118400001D01*
X148898312Y-118274697D01*
X148898311Y-118274695D01*
X148898311Y-118274694D01*
X148840718Y-118161662D01*
X148840717Y-118161661D01*
X148840716Y-118161659D01*
X148751008Y-118071951D01*
X148751005Y-118071949D01*
X148751004Y-118071948D01*
X148637972Y-118014355D01*
X148512666Y-117994509D01*
X148387359Y-118014355D01*
X148274327Y-118071948D01*
X148184613Y-118161662D01*
X148159273Y-118211397D01*
X148145306Y-118223326D01*
X148137889Y-118224501D01*
X146586558Y-118224501D01*
X146578047Y-118222941D01*
X146571788Y-118220567D01*
X146571787Y-118220567D01*
X146552235Y-118222941D01*
X146540828Y-118224326D01*
X146537935Y-118224501D01*
X145887443Y-118224501D01*
X145870472Y-118217472D01*
X145866059Y-118211397D01*
X145840718Y-118161662D01*
X145840717Y-118161661D01*
X145840716Y-118161659D01*
X145751008Y-118071951D01*
X145751005Y-118071949D01*
X145751004Y-118071948D01*
X145637972Y-118014355D01*
X145512666Y-117994509D01*
X145387359Y-118014355D01*
X145274327Y-118071948D01*
X145184613Y-118161662D01*
X145159273Y-118211397D01*
X145145306Y-118223326D01*
X145137889Y-118224501D01*
X144799500Y-118224501D01*
X144782529Y-118217472D01*
X144775500Y-118200501D01*
X144775500Y-114124335D01*
X145299500Y-114124335D01*
X145304440Y-114153937D01*
X145340429Y-114369615D01*
X145421173Y-114604813D01*
X145421175Y-114604818D01*
X145539525Y-114823508D01*
X145539526Y-114823510D01*
X145692259Y-115019741D01*
X145692261Y-115019743D01*
X145692262Y-115019744D01*
X145875215Y-115188164D01*
X146083393Y-115324173D01*
X146311119Y-115424063D01*
X146552179Y-115485108D01*
X146737933Y-115500500D01*
X146862067Y-115500500D01*
X147047821Y-115485108D01*
X147288881Y-115424063D01*
X147516607Y-115324173D01*
X147724785Y-115188164D01*
X147907738Y-115019744D01*
X148060474Y-114823509D01*
X148178828Y-114604810D01*
X148259571Y-114369614D01*
X148300500Y-114124335D01*
X151699500Y-114124335D01*
X151704440Y-114153937D01*
X151740429Y-114369615D01*
X151821173Y-114604813D01*
X151821175Y-114604818D01*
X151939525Y-114823508D01*
X151939526Y-114823510D01*
X152092259Y-115019741D01*
X152092261Y-115019743D01*
X152092262Y-115019744D01*
X152275215Y-115188164D01*
X152483393Y-115324173D01*
X152711119Y-115424063D01*
X152952179Y-115485108D01*
X153137933Y-115500500D01*
X153262067Y-115500500D01*
X153447821Y-115485108D01*
X153688881Y-115424063D01*
X153916607Y-115324173D01*
X154124785Y-115188164D01*
X154307738Y-115019744D01*
X154460474Y-114823509D01*
X154578828Y-114604810D01*
X154659571Y-114369614D01*
X154700500Y-114124335D01*
X154700500Y-113875665D01*
X154659571Y-113630386D01*
X154578828Y-113395190D01*
X154578826Y-113395186D01*
X154578824Y-113395181D01*
X154460474Y-113176491D01*
X154460473Y-113176489D01*
X154307740Y-112980258D01*
X154307738Y-112980256D01*
X154124787Y-112811838D01*
X154124785Y-112811836D01*
X153916607Y-112675827D01*
X153688881Y-112575937D01*
X153688879Y-112575936D01*
X153532277Y-112536279D01*
X153447821Y-112514892D01*
X153447819Y-112514891D01*
X153447816Y-112514891D01*
X153262067Y-112499500D01*
X153137933Y-112499500D01*
X152952183Y-112514891D01*
X152711120Y-112575936D01*
X152483391Y-112675828D01*
X152275216Y-112811835D01*
X152275212Y-112811838D01*
X152092261Y-112980256D01*
X152092259Y-112980258D01*
X151939526Y-113176489D01*
X151939525Y-113176491D01*
X151821175Y-113395181D01*
X151821173Y-113395186D01*
X151740429Y-113630384D01*
X151740429Y-113630386D01*
X151699500Y-113875665D01*
X151699500Y-114124335D01*
X148300500Y-114124335D01*
X148300500Y-113875665D01*
X148259571Y-113630386D01*
X148178828Y-113395190D01*
X148178826Y-113395186D01*
X148178824Y-113395181D01*
X148060474Y-113176491D01*
X148060473Y-113176489D01*
X147907740Y-112980258D01*
X147907738Y-112980256D01*
X147724787Y-112811838D01*
X147724785Y-112811836D01*
X147516607Y-112675827D01*
X147288881Y-112575937D01*
X147288879Y-112575936D01*
X147132277Y-112536279D01*
X147047821Y-112514892D01*
X147047819Y-112514891D01*
X147047816Y-112514891D01*
X146862067Y-112499500D01*
X146737933Y-112499500D01*
X146552183Y-112514891D01*
X146311120Y-112575936D01*
X146083391Y-112675828D01*
X145875216Y-112811835D01*
X145875212Y-112811838D01*
X145692261Y-112980256D01*
X145692259Y-112980258D01*
X145539526Y-113176489D01*
X145539525Y-113176491D01*
X145421175Y-113395181D01*
X145421173Y-113395186D01*
X145340429Y-113630384D01*
X145340429Y-113630386D01*
X145299500Y-113875665D01*
X145299500Y-114124335D01*
X144775500Y-114124335D01*
X144775500Y-111035624D01*
X144782529Y-111018653D01*
X144787706Y-111015059D01*
X144787625Y-111014932D01*
X144793963Y-111010859D01*
X144898049Y-110943967D01*
X144982882Y-110846063D01*
X145036697Y-110728226D01*
X145055133Y-110600000D01*
X145036697Y-110471774D01*
X144982882Y-110353937D01*
X144949860Y-110315827D01*
X144898051Y-110256034D01*
X144898049Y-110256033D01*
X144789073Y-110185998D01*
X144789070Y-110185996D01*
X144789069Y-110185996D01*
X144664772Y-110149500D01*
X144535228Y-110149500D01*
X144535226Y-110149500D01*
X144524565Y-110152630D01*
X144506301Y-110150666D01*
X144500833Y-110146573D01*
X143457529Y-109103269D01*
X143450500Y-109086298D01*
X143450500Y-103348935D01*
X143457529Y-103331964D01*
X143474500Y-103324935D01*
X143491471Y-103331964D01*
X143492624Y-103333203D01*
X143501951Y-103343967D01*
X143610931Y-103414004D01*
X143735228Y-103450500D01*
X143735230Y-103450500D01*
X143864770Y-103450500D01*
X143864772Y-103450500D01*
X143989069Y-103414004D01*
X144098049Y-103343967D01*
X144108450Y-103331964D01*
X144149500Y-103284588D01*
X144182882Y-103246063D01*
X144236697Y-103128226D01*
X144255133Y-103000000D01*
X144236697Y-102871774D01*
X144182882Y-102753937D01*
X144115393Y-102676049D01*
X144098051Y-102656035D01*
X144098050Y-102656034D01*
X144098049Y-102656033D01*
X144061523Y-102632559D01*
X144051048Y-102617471D01*
X144050500Y-102612370D01*
X144050500Y-87787628D01*
X144057529Y-87770657D01*
X144061519Y-87767442D01*
X144098049Y-87743967D01*
X144182882Y-87646063D01*
X144236697Y-87528226D01*
X144255133Y-87400000D01*
X144236697Y-87271774D01*
X144182882Y-87153937D01*
X144173942Y-87143619D01*
X144098051Y-87056034D01*
X144098049Y-87056033D01*
X143989073Y-86985998D01*
X143989070Y-86985996D01*
X143989069Y-86985996D01*
X143864772Y-86949500D01*
X143735228Y-86949500D01*
X143662238Y-86970931D01*
X143610933Y-86985995D01*
X143610926Y-86985998D01*
X143501950Y-87056033D01*
X143501948Y-87056034D01*
X143417118Y-87153936D01*
X143376923Y-87241950D01*
X143363303Y-87271774D01*
X143344867Y-87400000D01*
X143363303Y-87528226D01*
X143363304Y-87528228D01*
X143417118Y-87646063D01*
X143501948Y-87743965D01*
X143501950Y-87743966D01*
X143501951Y-87743967D01*
X143538476Y-87767439D01*
X143548951Y-87782526D01*
X143549500Y-87787628D01*
X143549500Y-90851063D01*
X143542471Y-90868034D01*
X143525500Y-90875063D01*
X143508529Y-90868034D01*
X143507363Y-90866780D01*
X143498052Y-90856035D01*
X143498049Y-90856033D01*
X143389073Y-90785998D01*
X143389070Y-90785996D01*
X143389069Y-90785996D01*
X143264772Y-90749500D01*
X143135228Y-90749500D01*
X143062238Y-90770931D01*
X143010933Y-90785995D01*
X143010926Y-90785998D01*
X142901950Y-90856033D01*
X142901948Y-90856034D01*
X142817118Y-90953936D01*
X142763304Y-91071771D01*
X142763303Y-91071774D01*
X142744867Y-91200000D01*
X142763303Y-91328226D01*
X142763304Y-91328228D01*
X142817118Y-91446063D01*
X142901948Y-91543965D01*
X142901950Y-91543966D01*
X142901951Y-91543967D01*
X142938476Y-91567439D01*
X142948951Y-91582526D01*
X142949500Y-91587628D01*
X142949500Y-93351063D01*
X142942471Y-93368034D01*
X142925500Y-93375063D01*
X142908529Y-93368034D01*
X142907363Y-93366780D01*
X142898052Y-93356035D01*
X142898049Y-93356033D01*
X142789073Y-93285998D01*
X142789070Y-93285996D01*
X142789069Y-93285996D01*
X142664772Y-93249500D01*
X142535228Y-93249500D01*
X142462238Y-93270931D01*
X142410933Y-93285995D01*
X142410926Y-93285998D01*
X142301950Y-93356033D01*
X142301948Y-93356034D01*
X142217118Y-93453936D01*
X142169802Y-93557543D01*
X142163303Y-93571774D01*
X142144867Y-93700000D01*
X142163303Y-93828226D01*
X142163304Y-93828228D01*
X142217118Y-93946063D01*
X142301948Y-94043965D01*
X142301950Y-94043966D01*
X142301951Y-94043967D01*
X142338476Y-94067439D01*
X142348951Y-94082526D01*
X142349500Y-94087628D01*
X142349500Y-110212370D01*
X142342471Y-110229341D01*
X142338476Y-110232560D01*
X142301948Y-110256035D01*
X142217118Y-110353936D01*
X142163304Y-110471771D01*
X142163303Y-110471774D01*
X142144867Y-110600000D01*
X142163303Y-110728226D01*
X142163304Y-110728228D01*
X142217118Y-110846063D01*
X142301948Y-110943965D01*
X142301950Y-110943966D01*
X142301951Y-110943967D01*
X142410931Y-111014004D01*
X142535228Y-111050500D01*
X142535230Y-111050500D01*
X142664770Y-111050500D01*
X142664772Y-111050500D01*
X142789069Y-111014004D01*
X142898049Y-110943967D01*
X142982882Y-110846063D01*
X143036697Y-110728226D01*
X143055133Y-110600000D01*
X143036697Y-110471774D01*
X142982882Y-110353937D01*
X142925143Y-110287302D01*
X142898051Y-110256035D01*
X142898050Y-110256034D01*
X142898049Y-110256033D01*
X142861523Y-110232559D01*
X142851048Y-110217471D01*
X142850500Y-110212370D01*
X142850500Y-94087628D01*
X142857529Y-94070657D01*
X142861519Y-94067442D01*
X142898049Y-94043967D01*
X142907362Y-94033218D01*
X142923787Y-94024996D01*
X142941216Y-94030796D01*
X142949439Y-94047222D01*
X142949500Y-94048935D01*
X142949500Y-109172960D01*
X142949039Y-109177642D01*
X142944592Y-109199999D01*
X142964033Y-109297741D01*
X142983942Y-109327536D01*
X143019399Y-109380601D01*
X143038354Y-109393266D01*
X143041986Y-109396246D01*
X144149052Y-110503312D01*
X144156081Y-110520283D01*
X144155837Y-110523698D01*
X144144867Y-110600000D01*
X144163303Y-110728226D01*
X144163304Y-110728228D01*
X144217118Y-110846063D01*
X144301948Y-110943965D01*
X144301950Y-110943966D01*
X144301951Y-110943967D01*
X144385625Y-110997741D01*
X144412375Y-111014932D01*
X144412029Y-111015470D01*
X144422985Y-111027231D01*
X144424500Y-111035624D01*
X144424500Y-118200501D01*
X144417471Y-118217472D01*
X144400500Y-118224501D01*
X142887443Y-118224501D01*
X142870472Y-118217472D01*
X142866059Y-118211397D01*
X142840718Y-118161662D01*
X142840717Y-118161661D01*
X142840716Y-118161659D01*
X142751008Y-118071951D01*
X142751005Y-118071949D01*
X142751004Y-118071948D01*
X142637972Y-118014355D01*
X142512666Y-117994509D01*
X142387359Y-118014355D01*
X142274327Y-118071948D01*
X142184613Y-118161662D01*
X142159273Y-118211397D01*
X142145306Y-118223326D01*
X142137889Y-118224501D01*
X139887444Y-118224501D01*
X139870473Y-118217472D01*
X139866060Y-118211397D01*
X139840719Y-118161661D01*
X139840718Y-118161660D01*
X139840717Y-118161658D01*
X139751009Y-118071950D01*
X139751006Y-118071948D01*
X139751005Y-118071947D01*
X139637973Y-118014354D01*
X139512667Y-117994508D01*
X139387360Y-118014354D01*
X139274328Y-118071947D01*
X139184614Y-118161661D01*
X139127021Y-118274693D01*
X139107175Y-118400000D01*
X139127021Y-118525306D01*
X139184614Y-118638338D01*
X139184615Y-118638339D01*
X139184617Y-118638342D01*
X139274325Y-118728050D01*
X139274327Y-118728051D01*
X139274328Y-118728052D01*
X139387360Y-118785645D01*
X139387361Y-118785645D01*
X139387363Y-118785646D01*
X139512667Y-118805492D01*
X139637971Y-118785646D01*
X139751009Y-118728050D01*
X139840717Y-118638342D01*
X139866059Y-118588604D01*
X139880026Y-118576676D01*
X139887443Y-118575501D01*
X142137889Y-118575501D01*
X142154860Y-118582530D01*
X142159273Y-118588605D01*
X142184613Y-118638339D01*
X142184614Y-118638340D01*
X142184616Y-118638343D01*
X142274324Y-118728051D01*
X142274326Y-118728052D01*
X142274327Y-118728053D01*
X142387359Y-118785646D01*
X142387360Y-118785646D01*
X142387362Y-118785647D01*
X142512666Y-118805493D01*
X142637970Y-118785647D01*
X142751008Y-118728051D01*
X142840716Y-118638343D01*
X142866059Y-118588604D01*
X142880026Y-118576676D01*
X142887443Y-118575501D01*
X144556743Y-118575501D01*
X144563442Y-118575501D01*
X144571953Y-118577061D01*
X144578213Y-118579435D01*
X144609172Y-118575676D01*
X144612065Y-118575501D01*
X145137889Y-118575501D01*
X145154860Y-118582530D01*
X145159273Y-118588605D01*
X145184613Y-118638339D01*
X145184614Y-118638340D01*
X145184616Y-118638343D01*
X145274324Y-118728051D01*
X145274326Y-118728052D01*
X145274327Y-118728053D01*
X145387359Y-118785646D01*
X145387360Y-118785646D01*
X145387362Y-118785647D01*
X145512666Y-118805493D01*
X145637970Y-118785647D01*
X145751008Y-118728051D01*
X145840716Y-118638343D01*
X145866059Y-118588604D01*
X145880026Y-118576676D01*
X145887443Y-118575501D01*
X146350500Y-118575501D01*
X146367471Y-118582530D01*
X146374500Y-118599501D01*
X146374500Y-120450501D01*
X146367471Y-120467472D01*
X146350500Y-120474501D01*
X144387443Y-120474501D01*
X144370472Y-120467472D01*
X144366059Y-120461397D01*
X144366058Y-120461396D01*
X144340716Y-120411659D01*
X144251008Y-120321951D01*
X144251005Y-120321949D01*
X144251004Y-120321948D01*
X144137972Y-120264355D01*
X144012666Y-120244509D01*
X143887359Y-120264355D01*
X143774327Y-120321948D01*
X143684613Y-120411662D01*
X143664825Y-120450500D01*
X143659274Y-120461396D01*
X143659273Y-120461397D01*
X143645306Y-120473326D01*
X143637889Y-120474501D01*
X141387443Y-120474501D01*
X141370472Y-120467472D01*
X141366059Y-120461397D01*
X141366058Y-120461396D01*
X141340716Y-120411659D01*
X141251008Y-120321951D01*
X141251005Y-120321949D01*
X141251004Y-120321948D01*
X141137972Y-120264355D01*
X141012666Y-120244509D01*
X140887359Y-120264355D01*
X140774327Y-120321948D01*
X140684613Y-120411662D01*
X140664825Y-120450500D01*
X140659274Y-120461396D01*
X140659273Y-120461397D01*
X140645306Y-120473326D01*
X140637889Y-120474501D01*
X138387444Y-120474501D01*
X138370473Y-120467472D01*
X138366060Y-120461397D01*
X138366059Y-120461396D01*
X138358485Y-120446530D01*
X138340719Y-120411661D01*
X138340718Y-120411660D01*
X138340717Y-120411658D01*
X138251009Y-120321950D01*
X138251006Y-120321948D01*
X138251005Y-120321947D01*
X138137973Y-120264354D01*
X138012667Y-120244508D01*
X137887360Y-120264354D01*
X137774328Y-120321947D01*
X137684614Y-120411661D01*
X137627021Y-120524693D01*
X137607175Y-120650000D01*
X137627021Y-120775306D01*
X137684614Y-120888338D01*
X137684615Y-120888339D01*
X137684617Y-120888342D01*
X137774325Y-120978050D01*
X137774327Y-120978051D01*
X137774328Y-120978052D01*
X137887360Y-121035645D01*
X137887361Y-121035645D01*
X137887363Y-121035646D01*
X138012667Y-121055492D01*
X138137971Y-121035646D01*
X138251009Y-120978050D01*
X138340717Y-120888342D01*
X138366059Y-120838604D01*
X138380026Y-120826676D01*
X138387443Y-120825501D01*
X140637889Y-120825501D01*
X140654860Y-120832530D01*
X140659273Y-120838605D01*
X140684613Y-120888339D01*
X140684614Y-120888340D01*
X140684616Y-120888343D01*
X140774324Y-120978051D01*
X140774326Y-120978052D01*
X140774327Y-120978053D01*
X140887359Y-121035646D01*
X140887360Y-121035646D01*
X140887362Y-121035647D01*
X141012666Y-121055493D01*
X141137970Y-121035647D01*
X141251008Y-120978051D01*
X141340716Y-120888343D01*
X141366059Y-120838604D01*
X141380026Y-120826676D01*
X141387443Y-120825501D01*
X143637889Y-120825501D01*
X143654860Y-120832530D01*
X143659273Y-120838605D01*
X143684613Y-120888339D01*
X143684614Y-120888340D01*
X143684616Y-120888343D01*
X143774324Y-120978051D01*
X143774326Y-120978052D01*
X143774327Y-120978053D01*
X143887359Y-121035646D01*
X143887360Y-121035646D01*
X143887362Y-121035647D01*
X144012666Y-121055493D01*
X144137970Y-121035647D01*
X144251008Y-120978051D01*
X144340716Y-120888343D01*
X144366059Y-120838604D01*
X144380026Y-120826676D01*
X144387443Y-120825501D01*
X146350500Y-120825501D01*
X146367471Y-120832530D01*
X146374500Y-120849501D01*
X146374500Y-122700501D01*
X146367471Y-122717472D01*
X146350500Y-122724501D01*
X145887443Y-122724501D01*
X145870472Y-122717472D01*
X145866059Y-122711397D01*
X145840718Y-122661662D01*
X145840717Y-122661661D01*
X145840716Y-122661659D01*
X145751008Y-122571951D01*
X145751005Y-122571949D01*
X145751004Y-122571948D01*
X145637972Y-122514355D01*
X145512666Y-122494509D01*
X145387359Y-122514355D01*
X145274327Y-122571948D01*
X145184613Y-122661662D01*
X145159273Y-122711397D01*
X145145306Y-122723326D01*
X145137889Y-122724501D01*
X142887443Y-122724501D01*
X142870472Y-122717472D01*
X142866059Y-122711397D01*
X142840718Y-122661662D01*
X142840717Y-122661661D01*
X142840716Y-122661659D01*
X142751008Y-122571951D01*
X142751005Y-122571949D01*
X142751004Y-122571948D01*
X142637972Y-122514355D01*
X142512666Y-122494509D01*
X142387359Y-122514355D01*
X142274327Y-122571948D01*
X142184613Y-122661662D01*
X142159273Y-122711397D01*
X142145306Y-122723326D01*
X142137889Y-122724501D01*
X139887443Y-122724501D01*
X139870472Y-122717472D01*
X139866059Y-122711397D01*
X139840718Y-122661662D01*
X139840717Y-122661661D01*
X139840716Y-122661659D01*
X139751008Y-122571951D01*
X139751005Y-122571949D01*
X139751004Y-122571948D01*
X139637972Y-122514355D01*
X139512666Y-122494509D01*
X139387359Y-122514355D01*
X139274327Y-122571948D01*
X139184613Y-122661662D01*
X139159273Y-122711397D01*
X139145306Y-122723326D01*
X139137889Y-122724501D01*
X136887444Y-122724501D01*
X136870473Y-122717472D01*
X136866060Y-122711397D01*
X136840719Y-122661661D01*
X136840718Y-122661660D01*
X136840717Y-122661658D01*
X136751009Y-122571950D01*
X136751006Y-122571948D01*
X136751005Y-122571947D01*
X136637973Y-122514354D01*
X136512667Y-122494508D01*
X136387360Y-122514354D01*
X136274328Y-122571947D01*
X136184614Y-122661661D01*
X136127021Y-122774693D01*
X136107175Y-122900000D01*
X130625603Y-122900000D01*
X130480241Y-122774693D01*
X130294970Y-122614983D01*
X130294773Y-122614812D01*
X130246321Y-122571948D01*
X129846851Y-122218553D01*
X129846448Y-122218187D01*
X129486709Y-121884448D01*
X129486489Y-121884242D01*
X129333688Y-121738870D01*
X129052817Y-121471654D01*
X129052489Y-121471334D01*
X128870560Y-121289765D01*
X128705507Y-121125039D01*
X128705300Y-121124830D01*
X128286488Y-120696441D01*
X128286087Y-120696021D01*
X128243222Y-120650000D01*
X127952374Y-120337736D01*
X127952201Y-120337548D01*
X127938018Y-120321949D01*
X127867608Y-120244508D01*
X127548817Y-119893882D01*
X127548428Y-119893443D01*
X127352103Y-119666609D01*
X127228336Y-119523609D01*
X127228326Y-119523597D01*
X126840772Y-119065029D01*
X126840394Y-119064571D01*
X126800225Y-119014586D01*
X126534444Y-118683852D01*
X126534443Y-118683850D01*
X126163284Y-118210963D01*
X126162931Y-118210502D01*
X126126532Y-118161661D01*
X125871525Y-117819483D01*
X125871380Y-117819286D01*
X125754731Y-117659043D01*
X125517290Y-117332864D01*
X125516986Y-117332436D01*
X125240461Y-116931664D01*
X125240318Y-116931454D01*
X124903621Y-116431862D01*
X124903285Y-116431349D01*
X124890125Y-116410703D01*
X124642027Y-116021486D01*
X124323055Y-115509094D01*
X124322790Y-115508655D01*
X124134576Y-115188161D01*
X124077157Y-115090386D01*
X124077031Y-115090171D01*
X123776488Y-114565989D01*
X123776184Y-114565442D01*
X123546332Y-114139163D01*
X123546218Y-114138948D01*
X123538529Y-114124335D01*
X123264466Y-113603496D01*
X123264261Y-113603093D01*
X123050433Y-113169366D01*
X122984206Y-113031622D01*
X122787794Y-112623110D01*
X122787578Y-112622646D01*
X122763055Y-112567959D01*
X126580858Y-112567959D01*
X126601454Y-112803368D01*
X126662613Y-113031621D01*
X126762478Y-113245782D01*
X126762480Y-113245785D01*
X126762482Y-113245789D01*
X126898022Y-113439360D01*
X127065116Y-113606454D01*
X127258687Y-113741994D01*
X127472854Y-113841862D01*
X127701109Y-113903022D01*
X127936517Y-113923618D01*
X128171925Y-113903022D01*
X128400180Y-113841862D01*
X128614347Y-113741994D01*
X128807918Y-113606454D01*
X128975012Y-113439360D01*
X129110552Y-113245789D01*
X129210420Y-113031622D01*
X129271580Y-112803367D01*
X129292176Y-112567959D01*
X129271580Y-112332551D01*
X129210420Y-112104296D01*
X129110552Y-111890130D01*
X128975012Y-111696558D01*
X128807918Y-111529464D01*
X128614347Y-111393924D01*
X128614343Y-111393922D01*
X128614340Y-111393920D01*
X128400179Y-111294055D01*
X128171925Y-111232896D01*
X128171927Y-111232896D01*
X127936517Y-111212300D01*
X127701107Y-111232896D01*
X127472854Y-111294055D01*
X127258694Y-111393920D01*
X127065115Y-111529464D01*
X126898022Y-111696557D01*
X126762478Y-111890136D01*
X126662613Y-112104296D01*
X126601454Y-112332549D01*
X126580858Y-112567959D01*
X122763055Y-112567959D01*
X122590217Y-112182532D01*
X122590139Y-112182355D01*
X122577404Y-112153210D01*
X122347056Y-111626047D01*
X122346854Y-111625569D01*
X122166047Y-111179459D01*
X121942816Y-110613579D01*
X121942652Y-110613146D01*
X121778639Y-110161843D01*
X121575633Y-109587091D01*
X121575486Y-109586655D01*
X121428470Y-109130991D01*
X121246011Y-108548004D01*
X121245852Y-108547468D01*
X121115966Y-108088203D01*
X120954337Y-107497540D01*
X120954209Y-107497046D01*
X120891646Y-107240424D01*
X124333781Y-107240424D01*
X124339355Y-107269785D01*
X124339357Y-107269791D01*
X125283288Y-109606102D01*
X125283289Y-109606103D01*
X125299676Y-109631099D01*
X125332724Y-109653602D01*
X125332725Y-109653602D01*
X125332727Y-109653603D01*
X125339516Y-109655014D01*
X125371868Y-109661743D01*
X125401232Y-109656168D01*
X127737547Y-108712235D01*
X127762543Y-108695848D01*
X127785046Y-108662800D01*
X127793187Y-108623656D01*
X127787612Y-108594292D01*
X127109409Y-106915681D01*
X132383770Y-106915681D01*
X132403556Y-107103941D01*
X132462047Y-107283956D01*
X132462050Y-107283964D01*
X132462051Y-107283965D01*
X132556697Y-107447897D01*
X132683359Y-107588569D01*
X132836500Y-107699832D01*
X133009423Y-107776823D01*
X133009422Y-107776823D01*
X133009427Y-107776825D01*
X133194584Y-107816181D01*
X133194586Y-107816181D01*
X133383874Y-107816181D01*
X133383876Y-107816181D01*
X133569033Y-107776825D01*
X133741960Y-107699832D01*
X133895101Y-107588569D01*
X134021763Y-107447897D01*
X134116409Y-107283965D01*
X134120110Y-107272575D01*
X134174903Y-107103941D01*
X134174903Y-107103939D01*
X134174904Y-107103937D01*
X134176966Y-107084319D01*
X137305310Y-107084319D01*
X137325096Y-107272579D01*
X137383587Y-107452594D01*
X137383590Y-107452602D01*
X137383591Y-107452603D01*
X137478237Y-107616535D01*
X137604899Y-107757207D01*
X137758040Y-107868470D01*
X137930963Y-107945461D01*
X137930962Y-107945461D01*
X137930967Y-107945463D01*
X138116124Y-107984819D01*
X138116126Y-107984819D01*
X138305414Y-107984819D01*
X138305416Y-107984819D01*
X138490573Y-107945463D01*
X138663500Y-107868470D01*
X138816641Y-107757207D01*
X138943303Y-107616535D01*
X139037949Y-107452603D01*
X139065424Y-107368044D01*
X139096443Y-107272579D01*
X139096443Y-107272577D01*
X139096444Y-107272575D01*
X139116230Y-107084319D01*
X139096444Y-106896063D01*
X139096443Y-106896060D01*
X139096443Y-106896058D01*
X139037952Y-106716043D01*
X139037950Y-106716039D01*
X139037949Y-106716035D01*
X138943303Y-106552103D01*
X138816641Y-106411431D01*
X138663500Y-106300168D01*
X138568739Y-106257977D01*
X138490576Y-106223176D01*
X138490577Y-106223176D01*
X138490573Y-106223175D01*
X138305416Y-106183819D01*
X138116124Y-106183819D01*
X137954786Y-106218112D01*
X137930962Y-106223176D01*
X137758042Y-106300167D01*
X137758032Y-106300173D01*
X137604899Y-106411431D01*
X137478236Y-106552104D01*
X137383592Y-106716032D01*
X137383587Y-106716043D01*
X137325096Y-106896058D01*
X137305310Y-107084319D01*
X134176966Y-107084319D01*
X134194690Y-106915681D01*
X134174904Y-106727425D01*
X134174903Y-106727422D01*
X134174903Y-106727420D01*
X134116412Y-106547405D01*
X134116410Y-106547401D01*
X134116409Y-106547397D01*
X134021763Y-106383465D01*
X133895101Y-106242793D01*
X133741960Y-106131530D01*
X133641986Y-106087018D01*
X133569036Y-106054538D01*
X133569037Y-106054538D01*
X133569033Y-106054537D01*
X133383876Y-106015181D01*
X133194584Y-106015181D01*
X133033246Y-106049474D01*
X133009422Y-106054538D01*
X132836502Y-106131529D01*
X132836492Y-106131535D01*
X132683359Y-106242793D01*
X132556696Y-106383466D01*
X132462052Y-106547394D01*
X132462047Y-106547405D01*
X132403556Y-106727420D01*
X132383770Y-106915681D01*
X127109409Y-106915681D01*
X126843679Y-106257977D01*
X126827292Y-106232981D01*
X126794244Y-106210478D01*
X126794240Y-106210476D01*
X126761014Y-106203567D01*
X126755100Y-106202337D01*
X126755099Y-106202337D01*
X126725738Y-106207911D01*
X126725732Y-106207913D01*
X124389421Y-107151844D01*
X124364425Y-107168232D01*
X124341922Y-107201279D01*
X124341920Y-107201283D01*
X124333781Y-107240424D01*
X120891646Y-107240424D01*
X120841491Y-107034694D01*
X120701049Y-106437270D01*
X120700905Y-106436616D01*
X120695730Y-106411431D01*
X120605482Y-105972196D01*
X120486423Y-105368359D01*
X120486319Y-105367784D01*
X120408157Y-104901719D01*
X120381477Y-104734758D01*
X120310790Y-104292414D01*
X120310712Y-104291874D01*
X120249844Y-103825123D01*
X120174373Y-103210835D01*
X120174307Y-103210218D01*
X120130693Y-102743576D01*
X120077339Y-102124946D01*
X120077296Y-102124335D01*
X120050866Y-101658784D01*
X120042949Y-101500000D01*
X131345202Y-101500000D01*
X131364361Y-101731217D01*
X131421317Y-101956135D01*
X131514518Y-102168611D01*
X131598811Y-102297632D01*
X132187225Y-101709217D01*
X132225901Y-101802588D01*
X132322075Y-101927925D01*
X132447412Y-102024099D01*
X132540779Y-102062772D01*
X131951201Y-102652351D01*
X131951201Y-102652352D01*
X131981646Y-102676049D01*
X131981648Y-102676050D01*
X132185690Y-102786473D01*
X132185695Y-102786475D01*
X132405140Y-102861811D01*
X132633995Y-102900000D01*
X132866005Y-102900000D01*
X133094859Y-102861811D01*
X133314304Y-102786475D01*
X133314309Y-102786473D01*
X133518349Y-102676052D01*
X133548797Y-102652351D01*
X132959219Y-102062773D01*
X133052588Y-102024099D01*
X133177925Y-101927925D01*
X133274099Y-101802589D01*
X133312773Y-101709218D01*
X133901187Y-102297632D01*
X133985482Y-102168611D01*
X134078682Y-101956135D01*
X134135638Y-101731217D01*
X134154798Y-101500000D01*
X134154798Y-101499999D01*
X134135638Y-101268782D01*
X134078682Y-101043864D01*
X133985481Y-100831388D01*
X133901187Y-100702366D01*
X133312773Y-101290779D01*
X133274099Y-101197412D01*
X133177925Y-101072075D01*
X133052588Y-100975901D01*
X132959217Y-100937225D01*
X133548797Y-100347646D01*
X133518353Y-100323950D01*
X133518351Y-100323949D01*
X133314309Y-100213526D01*
X133314304Y-100213524D01*
X133094859Y-100138188D01*
X132866005Y-100100000D01*
X132633995Y-100100000D01*
X132405140Y-100138188D01*
X132185695Y-100213524D01*
X132185690Y-100213526D01*
X131981651Y-100323947D01*
X131951201Y-100347646D01*
X132540781Y-100937226D01*
X132447412Y-100975901D01*
X132322075Y-101072075D01*
X132225901Y-101197411D01*
X132187226Y-101290781D01*
X131598811Y-100702366D01*
X131514518Y-100831388D01*
X131421317Y-101043864D01*
X131364361Y-101268782D01*
X131345202Y-101499999D01*
X131345202Y-101500000D01*
X120042949Y-101500000D01*
X120019828Y-101036286D01*
X120019806Y-101035663D01*
X120010422Y-100571761D01*
X120001911Y-99946141D01*
X120001911Y-99945667D01*
X120009410Y-99484431D01*
X120023617Y-98856173D01*
X120023639Y-98855595D01*
X120042412Y-98500004D01*
X131744659Y-98500004D01*
X131763974Y-98696128D01*
X131778033Y-98742471D01*
X131821186Y-98884727D01*
X131914090Y-99058538D01*
X131914094Y-99058542D01*
X131914096Y-99058546D01*
X132039109Y-99210874D01*
X132039112Y-99210877D01*
X132039117Y-99210883D01*
X132039122Y-99210887D01*
X132039125Y-99210890D01*
X132191453Y-99335903D01*
X132191462Y-99335910D01*
X132365273Y-99428814D01*
X132544830Y-99483282D01*
X132553871Y-99486025D01*
X132749995Y-99505341D01*
X132750000Y-99505341D01*
X132750005Y-99505341D01*
X132946128Y-99486025D01*
X132946130Y-99486024D01*
X132946132Y-99486024D01*
X133134727Y-99428814D01*
X133308538Y-99335910D01*
X133460883Y-99210883D01*
X133585910Y-99058538D01*
X133678814Y-98884727D01*
X133736024Y-98696132D01*
X133736024Y-98696130D01*
X133736025Y-98696128D01*
X133755341Y-98500004D01*
X133755341Y-98499995D01*
X133736025Y-98303871D01*
X133733282Y-98294830D01*
X133678814Y-98115273D01*
X133585910Y-97941462D01*
X133460883Y-97789117D01*
X133460877Y-97789112D01*
X133460874Y-97789109D01*
X133308546Y-97664096D01*
X133308542Y-97664094D01*
X133308538Y-97664090D01*
X133134727Y-97571186D01*
X133025185Y-97537956D01*
X132946128Y-97513974D01*
X132750005Y-97494659D01*
X132749995Y-97494659D01*
X132553871Y-97513974D01*
X132444326Y-97547205D01*
X132365273Y-97571186D01*
X132365269Y-97571187D01*
X132365269Y-97571188D01*
X132191464Y-97664089D01*
X132191453Y-97664096D01*
X132039125Y-97789109D01*
X132039109Y-97789125D01*
X131914096Y-97941453D01*
X131914089Y-97941464D01*
X131854780Y-98052424D01*
X131821186Y-98115273D01*
X131806111Y-98164968D01*
X131763974Y-98303871D01*
X131744659Y-98499995D01*
X131744659Y-98500004D01*
X120042412Y-98500004D01*
X120047806Y-98397821D01*
X120047809Y-98397821D01*
X120047813Y-98397701D01*
X120084917Y-97767659D01*
X120084953Y-97767154D01*
X120125538Y-97313522D01*
X120125549Y-97313406D01*
X120185721Y-96682158D01*
X120185783Y-96681600D01*
X120242443Y-96233254D01*
X120325915Y-95600944D01*
X120325995Y-95600400D01*
X120398350Y-95158223D01*
X120398359Y-95158224D01*
X120398368Y-95158117D01*
X120505295Y-94525591D01*
X120505400Y-94525021D01*
X120593000Y-94089929D01*
X120723631Y-93457459D01*
X120723761Y-93456882D01*
X120826087Y-93029803D01*
X120980630Y-92397987D01*
X120980798Y-92397347D01*
X121072597Y-92067765D01*
X124395787Y-92067765D01*
X124421589Y-92302258D01*
X124425414Y-92337018D01*
X124441880Y-92400000D01*
X124493926Y-92599081D01*
X124493929Y-92599090D01*
X124599869Y-92848389D01*
X124599870Y-92848390D01*
X124740982Y-93079610D01*
X124914255Y-93287820D01*
X125115998Y-93468582D01*
X125116003Y-93468585D01*
X125341903Y-93618040D01*
X125341906Y-93618041D01*
X125341910Y-93618044D01*
X125587176Y-93733020D01*
X125587181Y-93733021D01*
X125587185Y-93733023D01*
X125846565Y-93811059D01*
X125846578Y-93811062D01*
X126039220Y-93839412D01*
X126114558Y-93850499D01*
X126114560Y-93850500D01*
X126114561Y-93850500D01*
X126317631Y-93850500D01*
X126520156Y-93835677D01*
X126784553Y-93776780D01*
X127037558Y-93680014D01*
X127273777Y-93547441D01*
X127488177Y-93381888D01*
X127676186Y-93186881D01*
X127833799Y-92966579D01*
X127957656Y-92725675D01*
X128045118Y-92469305D01*
X128094319Y-92202933D01*
X128104212Y-91932235D01*
X128074586Y-91662982D01*
X128006072Y-91400912D01*
X127900130Y-91151610D01*
X127759018Y-90920390D01*
X127585745Y-90712180D01*
X127384002Y-90531418D01*
X127264807Y-90452559D01*
X127158096Y-90381959D01*
X126912822Y-90266979D01*
X126912814Y-90266976D01*
X126653434Y-90188940D01*
X126653421Y-90188937D01*
X126385443Y-90149500D01*
X126385439Y-90149500D01*
X126182369Y-90149500D01*
X125979842Y-90164323D01*
X125979841Y-90164323D01*
X125715442Y-90223221D01*
X125462448Y-90319983D01*
X125462442Y-90319986D01*
X125226224Y-90452558D01*
X125011825Y-90618110D01*
X124823812Y-90813120D01*
X124666198Y-91033425D01*
X124542346Y-91274319D01*
X124542346Y-91274321D01*
X124542344Y-91274325D01*
X124454882Y-91530695D01*
X124444366Y-91587628D01*
X124405680Y-91797068D01*
X124395788Y-92067765D01*
X124395787Y-92067765D01*
X121072597Y-92067765D01*
X121097130Y-91979683D01*
X121275979Y-91348470D01*
X121276139Y-91347940D01*
X121405876Y-90940304D01*
X121405877Y-90940300D01*
X121405891Y-90940304D01*
X121405903Y-90940218D01*
X121609254Y-90310430D01*
X121609453Y-90309846D01*
X121751551Y-89913958D01*
X121751615Y-89913782D01*
X121751629Y-89913787D01*
X121751641Y-89913710D01*
X121980030Y-89285177D01*
X121980264Y-89284565D01*
X122133805Y-88901371D01*
X122133819Y-88901376D01*
X122133833Y-88901300D01*
X122387836Y-88274021D01*
X122388058Y-88273497D01*
X122551631Y-87904819D01*
X122832088Y-87278416D01*
X122832366Y-87277823D01*
X123004570Y-86925005D01*
X123004584Y-86925012D01*
X123004599Y-86924946D01*
X123312242Y-86299571D01*
X123312538Y-86298995D01*
X123434842Y-86070000D01*
X142144867Y-86070000D01*
X142163303Y-86198226D01*
X142163304Y-86198228D01*
X142217118Y-86316063D01*
X142301948Y-86413965D01*
X142301950Y-86413966D01*
X142301951Y-86413967D01*
X142310405Y-86419400D01*
X142380594Y-86464508D01*
X142410931Y-86484004D01*
X142535228Y-86520500D01*
X142535230Y-86520500D01*
X142664770Y-86520500D01*
X142664772Y-86520500D01*
X142789069Y-86484004D01*
X142898049Y-86413967D01*
X142902927Y-86408338D01*
X142971859Y-86328784D01*
X142988285Y-86320561D01*
X142989997Y-86320500D01*
X145156298Y-86320500D01*
X145173269Y-86327529D01*
X145542471Y-86696731D01*
X145549500Y-86713702D01*
X145549500Y-88622960D01*
X145549039Y-88627642D01*
X145544592Y-88649999D01*
X145559287Y-88723880D01*
X145564034Y-88747741D01*
X145572014Y-88759683D01*
X145619399Y-88830601D01*
X145638354Y-88843266D01*
X145641986Y-88846246D01*
X146053750Y-89258010D01*
X146056734Y-89261647D01*
X146069399Y-89280601D01*
X146075332Y-89284565D01*
X146122463Y-89316057D01*
X146152258Y-89335966D01*
X146171700Y-89339833D01*
X146250000Y-89355408D01*
X146272356Y-89350960D01*
X146277038Y-89350500D01*
X152584428Y-89350500D01*
X152601399Y-89357529D01*
X152608428Y-89374500D01*
X152601399Y-89391471D01*
X152597403Y-89394690D01*
X152501950Y-89456033D01*
X152501948Y-89456034D01*
X152417118Y-89553936D01*
X152417118Y-89553937D01*
X152363303Y-89671774D01*
X152344867Y-89800000D01*
X152363303Y-89928226D01*
X152363304Y-89928228D01*
X152417118Y-90046063D01*
X152501948Y-90143965D01*
X152501950Y-90143966D01*
X152501951Y-90143967D01*
X152610931Y-90214004D01*
X152735228Y-90250500D01*
X152735230Y-90250500D01*
X152864770Y-90250500D01*
X152864772Y-90250500D01*
X152875434Y-90247369D01*
X152893697Y-90249333D01*
X152899166Y-90253426D01*
X155142471Y-92496731D01*
X155149500Y-92513702D01*
X155149500Y-110212370D01*
X155142471Y-110229341D01*
X155138476Y-110232560D01*
X155101948Y-110256035D01*
X155017118Y-110353936D01*
X154963304Y-110471771D01*
X154963303Y-110471774D01*
X154944867Y-110600000D01*
X154963303Y-110728226D01*
X154963304Y-110728228D01*
X155017118Y-110846063D01*
X155101948Y-110943965D01*
X155101950Y-110943966D01*
X155101951Y-110943967D01*
X155210931Y-111014004D01*
X155335228Y-111050500D01*
X155335230Y-111050500D01*
X155464770Y-111050500D01*
X155464772Y-111050500D01*
X155589069Y-111014004D01*
X155698049Y-110943967D01*
X155782882Y-110846063D01*
X155836697Y-110728226D01*
X155855133Y-110600000D01*
X155836697Y-110471774D01*
X155782882Y-110353937D01*
X155725143Y-110287302D01*
X155698051Y-110256035D01*
X155698050Y-110256034D01*
X155698049Y-110256033D01*
X155661523Y-110232559D01*
X155651048Y-110217471D01*
X155650500Y-110212370D01*
X155650500Y-92427037D01*
X155650961Y-92422355D01*
X155655408Y-92400000D01*
X155635966Y-92302259D01*
X155635966Y-92302258D01*
X155616057Y-92272463D01*
X155580602Y-92219401D01*
X155580601Y-92219399D01*
X155561647Y-92206734D01*
X155558010Y-92203750D01*
X153250946Y-89896686D01*
X153243917Y-89879715D01*
X153244159Y-89876313D01*
X153255133Y-89800000D01*
X153236697Y-89671774D01*
X153182882Y-89553937D01*
X153173942Y-89543619D01*
X153098051Y-89456034D01*
X153098049Y-89456033D01*
X153002597Y-89394690D01*
X152992120Y-89379602D01*
X152995382Y-89361525D01*
X153010470Y-89351048D01*
X153015572Y-89350500D01*
X154186298Y-89350500D01*
X154203269Y-89357529D01*
X157742471Y-92896731D01*
X157749500Y-92913702D01*
X157749500Y-93390120D01*
X157742471Y-93407091D01*
X157725500Y-93414120D01*
X157708529Y-93407091D01*
X157707369Y-93405844D01*
X157631128Y-93317857D01*
X157631127Y-93317856D01*
X157510055Y-93240048D01*
X157510050Y-93240046D01*
X157470193Y-93228343D01*
X157371961Y-93199500D01*
X157228039Y-93199500D01*
X157170639Y-93216353D01*
X157089949Y-93240046D01*
X157089944Y-93240048D01*
X156968872Y-93317856D01*
X156874622Y-93426628D01*
X156855461Y-93468585D01*
X156814835Y-93557543D01*
X156794353Y-93700000D01*
X156814835Y-93842457D01*
X156874623Y-93973373D01*
X156968872Y-94082143D01*
X157089947Y-94159953D01*
X157132263Y-94172377D01*
X157146564Y-94183903D01*
X157149500Y-94195405D01*
X157149500Y-110212370D01*
X157142471Y-110229341D01*
X157138476Y-110232560D01*
X157101948Y-110256035D01*
X157017118Y-110353936D01*
X156963304Y-110471771D01*
X156963303Y-110471774D01*
X156956329Y-110520283D01*
X156944867Y-110600000D01*
X156955837Y-110676301D01*
X156951294Y-110694099D01*
X156949052Y-110696686D01*
X156905426Y-110740313D01*
X156905421Y-110740319D01*
X156864033Y-110802260D01*
X156844592Y-110900000D01*
X156864033Y-110997741D01*
X156920455Y-111082181D01*
X156924500Y-111095515D01*
X156924500Y-118200501D01*
X156917471Y-118217472D01*
X156900500Y-118224501D01*
X154887443Y-118224501D01*
X154870472Y-118217472D01*
X154866059Y-118211397D01*
X154840718Y-118161662D01*
X154840717Y-118161661D01*
X154840716Y-118161659D01*
X154751008Y-118071951D01*
X154751005Y-118071949D01*
X154751004Y-118071948D01*
X154637972Y-118014355D01*
X154512666Y-117994509D01*
X154387359Y-118014355D01*
X154274327Y-118071948D01*
X154184613Y-118161662D01*
X154159273Y-118211397D01*
X154145306Y-118223326D01*
X154137889Y-118224501D01*
X153836558Y-118224501D01*
X153828047Y-118222941D01*
X153821788Y-118220567D01*
X153821787Y-118220567D01*
X153802235Y-118222941D01*
X153790828Y-118224326D01*
X153787935Y-118224501D01*
X151887443Y-118224501D01*
X151870472Y-118217472D01*
X151866059Y-118211397D01*
X151840718Y-118161662D01*
X151840717Y-118161661D01*
X151840716Y-118161659D01*
X151751008Y-118071951D01*
X151751005Y-118071949D01*
X151751004Y-118071948D01*
X151637972Y-118014355D01*
X151512666Y-117994509D01*
X151387359Y-118014355D01*
X151274327Y-118071948D01*
X151184613Y-118161662D01*
X151127020Y-118274694D01*
X151107174Y-118400001D01*
X151127020Y-118525307D01*
X151184613Y-118638339D01*
X151184614Y-118638340D01*
X151184616Y-118638343D01*
X151274324Y-118728051D01*
X151274326Y-118728052D01*
X151274327Y-118728053D01*
X151387359Y-118785646D01*
X151387360Y-118785646D01*
X151387362Y-118785647D01*
X151512666Y-118805493D01*
X151637970Y-118785647D01*
X151751008Y-118728051D01*
X151840716Y-118638343D01*
X151866059Y-118588604D01*
X151880026Y-118576676D01*
X151887443Y-118575501D01*
X153600500Y-118575501D01*
X153617471Y-118582530D01*
X153624500Y-118599501D01*
X153624500Y-120450500D01*
X153617471Y-120467471D01*
X153600500Y-120474500D01*
X153387444Y-120474500D01*
X153370473Y-120467471D01*
X153366060Y-120461396D01*
X153340719Y-120411661D01*
X153340718Y-120411660D01*
X153340717Y-120411658D01*
X153251009Y-120321950D01*
X153251006Y-120321948D01*
X153251005Y-120321947D01*
X153137973Y-120264354D01*
X153012667Y-120244508D01*
X152887360Y-120264354D01*
X152774328Y-120321947D01*
X152684614Y-120411661D01*
X152627021Y-120524693D01*
X152607175Y-120650000D01*
X152627021Y-120775306D01*
X152684614Y-120888338D01*
X152684615Y-120888339D01*
X152684617Y-120888342D01*
X152774325Y-120978050D01*
X152774327Y-120978051D01*
X152774328Y-120978052D01*
X152887360Y-121035645D01*
X152887361Y-121035645D01*
X152887363Y-121035646D01*
X153012667Y-121055492D01*
X153137971Y-121035646D01*
X153251009Y-120978050D01*
X153340717Y-120888342D01*
X153366060Y-120838603D01*
X153380027Y-120826675D01*
X153387444Y-120825500D01*
X153600500Y-120825500D01*
X153617471Y-120832529D01*
X153624500Y-120849500D01*
X153624500Y-122700501D01*
X153617471Y-122717472D01*
X153600500Y-122724501D01*
X151887443Y-122724501D01*
X151870472Y-122717472D01*
X151866059Y-122711397D01*
X151840718Y-122661662D01*
X151840717Y-122661661D01*
X151840716Y-122661659D01*
X151751008Y-122571951D01*
X151751005Y-122571949D01*
X151751004Y-122571948D01*
X151637972Y-122514355D01*
X151512666Y-122494509D01*
X151387359Y-122514355D01*
X151274327Y-122571948D01*
X151184613Y-122661662D01*
X151127020Y-122774694D01*
X151107174Y-122900001D01*
X151127020Y-123025307D01*
X151184613Y-123138339D01*
X151184614Y-123138340D01*
X151184616Y-123138343D01*
X151274324Y-123228051D01*
X151274326Y-123228052D01*
X151274327Y-123228053D01*
X151387359Y-123285646D01*
X151387360Y-123285646D01*
X151387362Y-123285647D01*
X151512666Y-123305493D01*
X151637970Y-123285647D01*
X151751008Y-123228051D01*
X151840716Y-123138343D01*
X151866059Y-123088604D01*
X151880026Y-123076676D01*
X151887443Y-123075501D01*
X153600500Y-123075501D01*
X153617471Y-123082530D01*
X153624500Y-123099501D01*
X153624500Y-124950500D01*
X153617471Y-124967471D01*
X153600500Y-124974500D01*
X153387444Y-124974500D01*
X153370473Y-124967471D01*
X153366060Y-124961396D01*
X153340719Y-124911661D01*
X153340718Y-124911660D01*
X153340717Y-124911658D01*
X153251009Y-124821950D01*
X153251006Y-124821948D01*
X153251005Y-124821947D01*
X153137973Y-124764354D01*
X153012667Y-124744508D01*
X152887360Y-124764354D01*
X152774328Y-124821947D01*
X152684614Y-124911661D01*
X152627021Y-125024693D01*
X152607175Y-125150000D01*
X152627021Y-125275306D01*
X152684614Y-125388338D01*
X152684615Y-125388339D01*
X152684617Y-125388342D01*
X152774325Y-125478050D01*
X152774327Y-125478051D01*
X152774328Y-125478052D01*
X152887360Y-125535645D01*
X152887361Y-125535645D01*
X152887363Y-125535646D01*
X153012667Y-125555492D01*
X153137971Y-125535646D01*
X153251009Y-125478050D01*
X153340717Y-125388342D01*
X153366060Y-125338603D01*
X153380027Y-125326675D01*
X153387444Y-125325500D01*
X153600500Y-125325500D01*
X153617471Y-125332529D01*
X153624500Y-125349500D01*
X153624500Y-127200501D01*
X153617471Y-127217472D01*
X153600500Y-127224501D01*
X151874776Y-127224501D01*
X151857805Y-127217472D01*
X151853392Y-127211397D01*
X151828051Y-127161662D01*
X151828050Y-127161661D01*
X151828049Y-127161659D01*
X151738341Y-127071951D01*
X151738338Y-127071949D01*
X151738337Y-127071948D01*
X151625305Y-127014355D01*
X151499999Y-126994509D01*
X151374692Y-127014355D01*
X151261660Y-127071948D01*
X151171946Y-127161662D01*
X151114353Y-127274694D01*
X151094507Y-127400001D01*
X151114353Y-127525307D01*
X151171946Y-127638339D01*
X151171947Y-127638340D01*
X151171949Y-127638343D01*
X151261657Y-127728051D01*
X151261659Y-127728052D01*
X151261660Y-127728053D01*
X151374692Y-127785646D01*
X151374693Y-127785646D01*
X151374695Y-127785647D01*
X151499999Y-127805493D01*
X151625303Y-127785647D01*
X151738341Y-127728051D01*
X151828049Y-127638343D01*
X151853392Y-127588604D01*
X151867359Y-127576676D01*
X151874776Y-127575501D01*
X153756743Y-127575501D01*
X153763442Y-127575501D01*
X153771953Y-127577061D01*
X153778213Y-127579435D01*
X153809172Y-127575676D01*
X153812065Y-127575501D01*
X154125222Y-127575501D01*
X154142193Y-127582530D01*
X154146606Y-127588605D01*
X154171946Y-127638339D01*
X154171947Y-127638340D01*
X154171949Y-127638343D01*
X154261657Y-127728051D01*
X154261659Y-127728052D01*
X154261660Y-127728053D01*
X154374692Y-127785646D01*
X154374693Y-127785646D01*
X154374695Y-127785647D01*
X154499999Y-127805493D01*
X154625303Y-127785647D01*
X154738341Y-127728051D01*
X154828049Y-127638343D01*
X154853392Y-127588604D01*
X154867359Y-127576676D01*
X154874776Y-127575501D01*
X157125222Y-127575501D01*
X157142193Y-127582530D01*
X157146606Y-127588605D01*
X157171946Y-127638339D01*
X157171947Y-127638340D01*
X157171949Y-127638343D01*
X157261657Y-127728051D01*
X157261659Y-127728052D01*
X157261660Y-127728053D01*
X157374692Y-127785646D01*
X157374693Y-127785646D01*
X157374695Y-127785647D01*
X157499999Y-127805493D01*
X157625303Y-127785647D01*
X157738341Y-127728051D01*
X157828049Y-127638343D01*
X157885645Y-127525305D01*
X157905491Y-127400001D01*
X157885645Y-127274697D01*
X157885644Y-127274695D01*
X157885644Y-127274694D01*
X157828051Y-127161662D01*
X157828050Y-127161661D01*
X157828049Y-127161659D01*
X157738341Y-127071951D01*
X157738338Y-127071949D01*
X157738337Y-127071948D01*
X157625305Y-127014355D01*
X157499999Y-126994509D01*
X157374692Y-127014355D01*
X157261660Y-127071948D01*
X157171946Y-127161662D01*
X157146606Y-127211397D01*
X157132639Y-127223326D01*
X157125222Y-127224501D01*
X154874776Y-127224501D01*
X154857805Y-127217472D01*
X154853392Y-127211397D01*
X154828051Y-127161662D01*
X154828050Y-127161661D01*
X154828049Y-127161659D01*
X154738341Y-127071951D01*
X154738338Y-127071949D01*
X154738337Y-127071948D01*
X154625305Y-127014355D01*
X154499999Y-126994509D01*
X154374692Y-127014355D01*
X154261660Y-127071948D01*
X154171946Y-127161662D01*
X154146606Y-127211397D01*
X154132639Y-127223326D01*
X154125222Y-127224501D01*
X153999500Y-127224501D01*
X153982529Y-127217472D01*
X153975500Y-127200501D01*
X153975500Y-125349500D01*
X153982529Y-125332529D01*
X153999500Y-125325500D01*
X155637889Y-125325500D01*
X155654860Y-125332529D01*
X155659272Y-125338603D01*
X155663652Y-125347200D01*
X155684613Y-125388339D01*
X155684614Y-125388340D01*
X155684616Y-125388343D01*
X155774324Y-125478051D01*
X155774326Y-125478052D01*
X155774327Y-125478053D01*
X155887359Y-125535646D01*
X155887360Y-125535646D01*
X155887362Y-125535647D01*
X156012666Y-125555493D01*
X156137970Y-125535647D01*
X156251008Y-125478051D01*
X156340716Y-125388343D01*
X156366059Y-125338603D01*
X156380026Y-125326675D01*
X156387443Y-125325500D01*
X158637889Y-125325500D01*
X158654860Y-125332529D01*
X158659272Y-125338603D01*
X158663652Y-125347200D01*
X158684613Y-125388339D01*
X158684614Y-125388340D01*
X158684616Y-125388343D01*
X158774324Y-125478051D01*
X158774326Y-125478052D01*
X158774327Y-125478053D01*
X158887359Y-125535646D01*
X158887360Y-125535646D01*
X158887362Y-125535647D01*
X159012666Y-125555493D01*
X159137970Y-125535647D01*
X159251008Y-125478051D01*
X159340716Y-125388343D01*
X159366059Y-125338603D01*
X159380026Y-125326675D01*
X159387443Y-125325500D01*
X161637889Y-125325500D01*
X161654860Y-125332529D01*
X161659272Y-125338603D01*
X161663652Y-125347200D01*
X161684613Y-125388339D01*
X161684614Y-125388340D01*
X161684616Y-125388343D01*
X161774324Y-125478051D01*
X161774326Y-125478052D01*
X161774327Y-125478053D01*
X161887359Y-125535646D01*
X161887360Y-125535646D01*
X161887362Y-125535647D01*
X162012666Y-125555493D01*
X162137970Y-125535647D01*
X162251008Y-125478051D01*
X162340716Y-125388343D01*
X162398312Y-125275305D01*
X162418158Y-125150001D01*
X162398312Y-125024697D01*
X162398311Y-125024695D01*
X162398311Y-125024694D01*
X162340718Y-124911662D01*
X162340717Y-124911661D01*
X162340716Y-124911659D01*
X162251008Y-124821951D01*
X162251005Y-124821949D01*
X162251004Y-124821948D01*
X162137972Y-124764355D01*
X162012666Y-124744509D01*
X161887359Y-124764355D01*
X161774327Y-124821948D01*
X161684613Y-124911662D01*
X161659274Y-124961396D01*
X161645307Y-124973325D01*
X161637890Y-124974500D01*
X159387442Y-124974500D01*
X159370471Y-124967471D01*
X159366058Y-124961396D01*
X159340718Y-124911662D01*
X159340717Y-124911661D01*
X159340716Y-124911659D01*
X159251008Y-124821951D01*
X159251005Y-124821949D01*
X159251004Y-124821948D01*
X159137972Y-124764355D01*
X159012666Y-124744509D01*
X158887359Y-124764355D01*
X158774327Y-124821948D01*
X158684613Y-124911662D01*
X158659274Y-124961396D01*
X158645307Y-124973325D01*
X158637890Y-124974500D01*
X156387442Y-124974500D01*
X156370471Y-124967471D01*
X156366058Y-124961396D01*
X156340718Y-124911662D01*
X156340717Y-124911661D01*
X156340716Y-124911659D01*
X156251008Y-124821951D01*
X156251005Y-124821949D01*
X156251004Y-124821948D01*
X156137972Y-124764355D01*
X156012666Y-124744509D01*
X155887359Y-124764355D01*
X155774327Y-124821948D01*
X155684613Y-124911662D01*
X155659274Y-124961396D01*
X155645307Y-124973325D01*
X155637890Y-124974500D01*
X153999500Y-124974500D01*
X153982529Y-124967471D01*
X153975500Y-124950500D01*
X153975500Y-123099501D01*
X153982529Y-123082530D01*
X153999500Y-123075501D01*
X154137891Y-123075501D01*
X154154862Y-123082530D01*
X154159275Y-123088605D01*
X154184614Y-123138338D01*
X154184615Y-123138339D01*
X154184617Y-123138342D01*
X154274325Y-123228050D01*
X154274327Y-123228051D01*
X154274328Y-123228052D01*
X154387360Y-123285645D01*
X154387361Y-123285645D01*
X154387363Y-123285646D01*
X154512667Y-123305492D01*
X154637971Y-123285646D01*
X154751009Y-123228050D01*
X154840717Y-123138342D01*
X154866059Y-123088604D01*
X154880026Y-123076676D01*
X154887443Y-123075501D01*
X157137889Y-123075501D01*
X157154860Y-123082530D01*
X157159273Y-123088605D01*
X157184613Y-123138339D01*
X157184614Y-123138340D01*
X157184616Y-123138343D01*
X157274324Y-123228051D01*
X157274326Y-123228052D01*
X157274327Y-123228053D01*
X157387359Y-123285646D01*
X157387360Y-123285646D01*
X157387362Y-123285647D01*
X157512666Y-123305493D01*
X157637970Y-123285647D01*
X157751008Y-123228051D01*
X157840716Y-123138343D01*
X157866059Y-123088604D01*
X157880026Y-123076676D01*
X157887443Y-123075501D01*
X160137889Y-123075501D01*
X160154860Y-123082530D01*
X160159273Y-123088605D01*
X160184613Y-123138339D01*
X160184614Y-123138340D01*
X160184616Y-123138343D01*
X160274324Y-123228051D01*
X160274326Y-123228052D01*
X160274327Y-123228053D01*
X160387359Y-123285646D01*
X160387360Y-123285646D01*
X160387362Y-123285647D01*
X160512666Y-123305493D01*
X160637970Y-123285647D01*
X160751008Y-123228051D01*
X160840716Y-123138343D01*
X160866059Y-123088604D01*
X160880026Y-123076676D01*
X160887443Y-123075501D01*
X163137889Y-123075501D01*
X163154860Y-123082530D01*
X163159273Y-123088605D01*
X163184613Y-123138339D01*
X163184614Y-123138340D01*
X163184616Y-123138343D01*
X163274324Y-123228051D01*
X163274326Y-123228052D01*
X163274327Y-123228053D01*
X163387359Y-123285646D01*
X163387360Y-123285646D01*
X163387362Y-123285647D01*
X163512666Y-123305493D01*
X163637970Y-123285647D01*
X163751008Y-123228051D01*
X163840716Y-123138343D01*
X163898312Y-123025305D01*
X163918158Y-122900001D01*
X163898312Y-122774697D01*
X163898311Y-122774695D01*
X163898311Y-122774694D01*
X163840718Y-122661662D01*
X163840717Y-122661661D01*
X163840716Y-122661659D01*
X163751008Y-122571951D01*
X163751005Y-122571949D01*
X163751004Y-122571948D01*
X163637972Y-122514355D01*
X163512666Y-122494509D01*
X163387359Y-122514355D01*
X163274327Y-122571948D01*
X163184613Y-122661662D01*
X163159273Y-122711397D01*
X163145306Y-122723326D01*
X163137889Y-122724501D01*
X160887443Y-122724501D01*
X160870472Y-122717472D01*
X160866059Y-122711397D01*
X160840718Y-122661662D01*
X160840717Y-122661661D01*
X160840716Y-122661659D01*
X160751008Y-122571951D01*
X160751005Y-122571949D01*
X160751004Y-122571948D01*
X160637972Y-122514355D01*
X160512666Y-122494509D01*
X160387359Y-122514355D01*
X160274327Y-122571948D01*
X160184613Y-122661662D01*
X160159273Y-122711397D01*
X160145306Y-122723326D01*
X160137889Y-122724501D01*
X157887443Y-122724501D01*
X157870472Y-122717472D01*
X157866059Y-122711397D01*
X157840718Y-122661662D01*
X157840717Y-122661661D01*
X157840716Y-122661659D01*
X157751008Y-122571951D01*
X157751005Y-122571949D01*
X157751004Y-122571948D01*
X157637972Y-122514355D01*
X157512666Y-122494509D01*
X157387359Y-122514355D01*
X157274327Y-122571948D01*
X157184613Y-122661662D01*
X157159273Y-122711397D01*
X157145306Y-122723326D01*
X157137889Y-122724501D01*
X154887444Y-122724501D01*
X154870473Y-122717472D01*
X154866060Y-122711397D01*
X154840719Y-122661661D01*
X154840718Y-122661660D01*
X154840717Y-122661658D01*
X154751009Y-122571950D01*
X154751006Y-122571948D01*
X154751005Y-122571947D01*
X154637973Y-122514354D01*
X154512667Y-122494508D01*
X154387360Y-122514354D01*
X154274328Y-122571947D01*
X154184614Y-122661661D01*
X154159274Y-122711397D01*
X154145307Y-122723326D01*
X154137890Y-122724501D01*
X153999500Y-122724501D01*
X153982529Y-122717472D01*
X153975500Y-122700501D01*
X153975500Y-120849500D01*
X153982529Y-120832529D01*
X153999500Y-120825500D01*
X155637889Y-120825500D01*
X155654860Y-120832529D01*
X155659272Y-120838603D01*
X155663652Y-120847200D01*
X155684613Y-120888339D01*
X155684614Y-120888340D01*
X155684616Y-120888343D01*
X155774324Y-120978051D01*
X155774326Y-120978052D01*
X155774327Y-120978053D01*
X155887359Y-121035646D01*
X155887360Y-121035646D01*
X155887362Y-121035647D01*
X156012666Y-121055493D01*
X156137970Y-121035647D01*
X156251008Y-120978051D01*
X156340716Y-120888343D01*
X156366059Y-120838603D01*
X156380026Y-120826675D01*
X156387443Y-120825500D01*
X158637889Y-120825500D01*
X158654860Y-120832529D01*
X158659272Y-120838603D01*
X158663652Y-120847200D01*
X158684613Y-120888339D01*
X158684614Y-120888340D01*
X158684616Y-120888343D01*
X158774324Y-120978051D01*
X158774326Y-120978052D01*
X158774327Y-120978053D01*
X158887359Y-121035646D01*
X158887360Y-121035646D01*
X158887362Y-121035647D01*
X159012666Y-121055493D01*
X159137970Y-121035647D01*
X159251008Y-120978051D01*
X159340716Y-120888343D01*
X159366059Y-120838603D01*
X159380026Y-120826675D01*
X159387443Y-120825500D01*
X161637889Y-120825500D01*
X161654860Y-120832529D01*
X161659272Y-120838603D01*
X161663652Y-120847200D01*
X161684613Y-120888339D01*
X161684614Y-120888340D01*
X161684616Y-120888343D01*
X161774324Y-120978051D01*
X161774326Y-120978052D01*
X161774327Y-120978053D01*
X161887359Y-121035646D01*
X161887360Y-121035646D01*
X161887362Y-121035647D01*
X162012666Y-121055493D01*
X162137970Y-121035647D01*
X162251008Y-120978051D01*
X162340716Y-120888343D01*
X162398312Y-120775305D01*
X162418158Y-120650001D01*
X162398312Y-120524697D01*
X162398311Y-120524695D01*
X162398311Y-120524694D01*
X162340718Y-120411662D01*
X162340717Y-120411661D01*
X162340716Y-120411659D01*
X162251008Y-120321951D01*
X162251005Y-120321949D01*
X162251004Y-120321948D01*
X162137972Y-120264355D01*
X162012666Y-120244509D01*
X161887359Y-120264355D01*
X161774327Y-120321948D01*
X161684613Y-120411662D01*
X161659274Y-120461396D01*
X161645307Y-120473325D01*
X161637890Y-120474500D01*
X159387442Y-120474500D01*
X159370471Y-120467471D01*
X159366058Y-120461396D01*
X159340718Y-120411662D01*
X159340717Y-120411661D01*
X159340716Y-120411659D01*
X159251008Y-120321951D01*
X159251005Y-120321949D01*
X159251004Y-120321948D01*
X159137972Y-120264355D01*
X159012666Y-120244509D01*
X158887359Y-120264355D01*
X158774327Y-120321948D01*
X158684613Y-120411662D01*
X158659274Y-120461396D01*
X158645307Y-120473325D01*
X158637890Y-120474500D01*
X156387442Y-120474500D01*
X156370471Y-120467471D01*
X156366058Y-120461396D01*
X156340718Y-120411662D01*
X156340717Y-120411661D01*
X156340716Y-120411659D01*
X156251008Y-120321951D01*
X156251005Y-120321949D01*
X156251004Y-120321948D01*
X156137972Y-120264355D01*
X156012666Y-120244509D01*
X155887359Y-120264355D01*
X155774327Y-120321948D01*
X155684613Y-120411662D01*
X155659274Y-120461396D01*
X155645307Y-120473325D01*
X155637890Y-120474500D01*
X153999500Y-120474500D01*
X153982529Y-120467471D01*
X153975500Y-120450500D01*
X153975500Y-118599501D01*
X153982529Y-118582530D01*
X153999500Y-118575501D01*
X154137889Y-118575501D01*
X154154860Y-118582530D01*
X154159273Y-118588605D01*
X154184613Y-118638339D01*
X154184614Y-118638340D01*
X154184616Y-118638343D01*
X154274324Y-118728051D01*
X154274326Y-118728052D01*
X154274327Y-118728053D01*
X154387359Y-118785646D01*
X154387360Y-118785646D01*
X154387362Y-118785647D01*
X154512666Y-118805493D01*
X154637970Y-118785647D01*
X154751008Y-118728051D01*
X154840716Y-118638343D01*
X154866059Y-118588604D01*
X154880026Y-118576676D01*
X154887443Y-118575501D01*
X156956743Y-118575501D01*
X156981869Y-118575501D01*
X156986193Y-118575893D01*
X157010913Y-118580424D01*
X157021786Y-118577035D01*
X157023224Y-118576588D01*
X157030364Y-118575501D01*
X157125222Y-118575501D01*
X157142193Y-118582530D01*
X157146606Y-118588605D01*
X157171946Y-118638339D01*
X157171947Y-118638340D01*
X157171949Y-118638343D01*
X157261657Y-118728051D01*
X157261659Y-118728052D01*
X157261660Y-118728053D01*
X157374692Y-118785646D01*
X157374693Y-118785646D01*
X157374695Y-118785647D01*
X157499999Y-118805493D01*
X157625303Y-118785647D01*
X157738341Y-118728051D01*
X157828049Y-118638343D01*
X157853392Y-118588604D01*
X157867359Y-118576676D01*
X157874776Y-118575501D01*
X160125222Y-118575501D01*
X160142193Y-118582530D01*
X160146606Y-118588605D01*
X160171946Y-118638339D01*
X160171947Y-118638340D01*
X160171949Y-118638343D01*
X160261657Y-118728051D01*
X160261659Y-118728052D01*
X160261660Y-118728053D01*
X160374692Y-118785646D01*
X160374693Y-118785646D01*
X160374695Y-118785647D01*
X160499999Y-118805493D01*
X160625303Y-118785647D01*
X160738341Y-118728051D01*
X160828049Y-118638343D01*
X160885645Y-118525305D01*
X160905491Y-118400001D01*
X160885645Y-118274697D01*
X160885644Y-118274695D01*
X160885644Y-118274694D01*
X160828051Y-118161662D01*
X160828050Y-118161661D01*
X160828049Y-118161659D01*
X160738341Y-118071951D01*
X160738338Y-118071949D01*
X160738337Y-118071948D01*
X160625305Y-118014355D01*
X160499999Y-117994509D01*
X160374692Y-118014355D01*
X160261660Y-118071948D01*
X160171946Y-118161662D01*
X160146606Y-118211397D01*
X160132639Y-118223326D01*
X160125222Y-118224501D01*
X157874776Y-118224501D01*
X157857805Y-118217472D01*
X157853392Y-118211397D01*
X157828051Y-118161662D01*
X157828050Y-118161661D01*
X157828049Y-118161659D01*
X157738341Y-118071951D01*
X157738338Y-118071949D01*
X157738337Y-118071948D01*
X157625305Y-118014355D01*
X157499999Y-117994509D01*
X157374692Y-118014355D01*
X157310396Y-118047116D01*
X157292083Y-118048557D01*
X157278116Y-118036628D01*
X157275500Y-118025732D01*
X157275500Y-111088700D01*
X157282528Y-111071731D01*
X157300834Y-111053425D01*
X157317802Y-111046396D01*
X157324558Y-111047367D01*
X157335228Y-111050500D01*
X157335230Y-111050500D01*
X157464770Y-111050500D01*
X157464772Y-111050500D01*
X157589069Y-111014004D01*
X157698049Y-110943967D01*
X157782882Y-110846063D01*
X157836697Y-110728226D01*
X157855133Y-110600000D01*
X157836697Y-110471774D01*
X157782882Y-110353937D01*
X157725143Y-110287302D01*
X157698051Y-110256035D01*
X157698050Y-110256034D01*
X157698049Y-110256033D01*
X157661523Y-110232559D01*
X157651048Y-110217471D01*
X157650500Y-110212370D01*
X157650500Y-94068737D01*
X157656361Y-94053021D01*
X157707364Y-93994160D01*
X157723788Y-93985940D01*
X157741217Y-93991741D01*
X157749439Y-94008167D01*
X157749500Y-94009879D01*
X157749500Y-104066844D01*
X157749039Y-104071526D01*
X157744592Y-104093884D01*
X157764034Y-104191625D01*
X157771340Y-104202559D01*
X157819399Y-104274485D01*
X157838354Y-104287150D01*
X157841986Y-104290130D01*
X165542471Y-111990615D01*
X165549500Y-112007586D01*
X165549500Y-114012370D01*
X165542471Y-114029341D01*
X165538476Y-114032560D01*
X165501948Y-114056035D01*
X165417118Y-114153936D01*
X165417118Y-114153937D01*
X165363303Y-114271774D01*
X165344867Y-114400000D01*
X165363303Y-114528226D01*
X165363304Y-114528228D01*
X165417118Y-114646063D01*
X165501948Y-114743965D01*
X165501950Y-114743966D01*
X165501951Y-114743967D01*
X165610931Y-114814004D01*
X165735228Y-114850500D01*
X165735230Y-114850500D01*
X165864770Y-114850500D01*
X165864772Y-114850500D01*
X165989069Y-114814004D01*
X166098049Y-114743967D01*
X166182882Y-114646063D01*
X166236697Y-114528226D01*
X166255133Y-114400000D01*
X166236697Y-114271774D01*
X166182882Y-114153937D01*
X166098049Y-114056033D01*
X166061523Y-114032559D01*
X166051048Y-114017471D01*
X166050500Y-114012370D01*
X166050500Y-111920926D01*
X166050961Y-111916244D01*
X166051285Y-111914611D01*
X166055409Y-111893884D01*
X166044306Y-111838071D01*
X166047889Y-111820057D01*
X166063162Y-111809851D01*
X166078741Y-111812006D01*
X166634861Y-112095364D01*
X166634866Y-112095366D01*
X166634870Y-112095368D01*
X166781370Y-112153210D01*
X166987930Y-112192003D01*
X167198098Y-112191003D01*
X167404278Y-112150245D01*
X167599020Y-112071206D01*
X167775283Y-111956740D01*
X167926698Y-111810983D01*
X168047792Y-111639205D01*
X168134190Y-111447615D01*
X168182766Y-111243135D01*
X168191767Y-111033158D01*
X168160867Y-110825272D01*
X168091182Y-110626991D01*
X167985232Y-110445480D01*
X167846846Y-110287301D01*
X167681025Y-110158170D01*
X167367251Y-109998294D01*
X167095186Y-109859669D01*
X167053198Y-109843091D01*
X166948678Y-109801824D01*
X166845398Y-109782427D01*
X166742119Y-109763031D01*
X166742118Y-109763031D01*
X166707090Y-109763197D01*
X166531945Y-109764031D01*
X166325780Y-109804786D01*
X166325769Y-109804789D01*
X166131026Y-109883828D01*
X165954765Y-109998294D01*
X165803351Y-110144049D01*
X165803348Y-110144052D01*
X165682258Y-110315825D01*
X165682256Y-110315827D01*
X165595857Y-110507419D01*
X165547282Y-110711899D01*
X165538281Y-110921873D01*
X165538281Y-110921876D01*
X165569180Y-111129757D01*
X165569182Y-111129764D01*
X165631227Y-111306308D01*
X165630222Y-111324650D01*
X165616543Y-111336908D01*
X165598201Y-111335903D01*
X165591614Y-111331237D01*
X161098340Y-106837963D01*
X167465074Y-106837963D01*
X167469773Y-106877667D01*
X167489309Y-106912551D01*
X167512781Y-106931055D01*
X169757937Y-108075018D01*
X169786704Y-108083132D01*
X169826409Y-108078433D01*
X169861292Y-108058897D01*
X169879796Y-108035425D01*
X170796764Y-106235772D01*
X170804878Y-106207005D01*
X170800179Y-106167301D01*
X170780643Y-106132417D01*
X170780641Y-106132415D01*
X170757172Y-106113914D01*
X170757171Y-106113913D01*
X170175947Y-105817765D01*
X173895787Y-105817765D01*
X173921840Y-106054537D01*
X173925414Y-106087018D01*
X173937283Y-106132417D01*
X173993926Y-106349081D01*
X173993929Y-106349090D01*
X174099869Y-106598389D01*
X174099870Y-106598390D01*
X174240982Y-106829610D01*
X174414255Y-107037820D01*
X174615998Y-107218582D01*
X174616003Y-107218585D01*
X174841903Y-107368040D01*
X174841906Y-107368041D01*
X174841910Y-107368044D01*
X175087176Y-107483020D01*
X175087181Y-107483021D01*
X175087185Y-107483023D01*
X175346565Y-107561059D01*
X175346578Y-107561062D01*
X175533484Y-107588568D01*
X175614558Y-107600499D01*
X175614560Y-107600500D01*
X175614561Y-107600500D01*
X175817631Y-107600500D01*
X176020156Y-107585677D01*
X176284553Y-107526780D01*
X176537558Y-107430014D01*
X176773777Y-107297441D01*
X176988177Y-107131888D01*
X177176186Y-106936881D01*
X177333799Y-106716579D01*
X177457656Y-106475675D01*
X177545118Y-106219305D01*
X177594319Y-105952933D01*
X177604212Y-105682235D01*
X177574586Y-105412982D01*
X177506072Y-105150912D01*
X177400130Y-104901610D01*
X177259018Y-104670390D01*
X177085745Y-104462180D01*
X176884002Y-104281418D01*
X176764807Y-104202559D01*
X176658096Y-104131959D01*
X176524238Y-104069209D01*
X176412824Y-104016980D01*
X176412822Y-104016979D01*
X176412814Y-104016976D01*
X176153434Y-103938940D01*
X176153421Y-103938937D01*
X175885443Y-103899500D01*
X175885439Y-103899500D01*
X175682369Y-103899500D01*
X175479842Y-103914323D01*
X175479841Y-103914323D01*
X175215442Y-103973221D01*
X174962448Y-104069983D01*
X174962442Y-104069986D01*
X174726224Y-104202558D01*
X174511825Y-104368110D01*
X174323812Y-104563120D01*
X174166198Y-104783425D01*
X174042346Y-105024319D01*
X174042346Y-105024321D01*
X174042344Y-105024325D01*
X173999159Y-105150909D01*
X173954883Y-105280692D01*
X173905680Y-105547068D01*
X173895788Y-105817765D01*
X173895787Y-105817765D01*
X170175947Y-105817765D01*
X168512015Y-104969950D01*
X168512012Y-104969949D01*
X168499908Y-104966535D01*
X168483248Y-104961836D01*
X168483247Y-104961836D01*
X168443543Y-104966535D01*
X168443540Y-104966536D01*
X168408661Y-104986070D01*
X168408658Y-104986072D01*
X168390157Y-105009541D01*
X168390155Y-105009544D01*
X167690108Y-106383466D01*
X167473188Y-106809196D01*
X167465074Y-106837963D01*
X161098340Y-106837963D01*
X158257529Y-103997152D01*
X158250500Y-103980181D01*
X158250500Y-101500000D01*
X165845202Y-101500000D01*
X165864361Y-101731217D01*
X165921317Y-101956135D01*
X166014518Y-102168611D01*
X166098811Y-102297632D01*
X166687225Y-101709217D01*
X166725901Y-101802588D01*
X166822075Y-101927925D01*
X166947412Y-102024099D01*
X167040779Y-102062772D01*
X166451201Y-102652351D01*
X166451201Y-102652352D01*
X166481646Y-102676049D01*
X166481648Y-102676050D01*
X166685690Y-102786473D01*
X166685695Y-102786475D01*
X166905140Y-102861811D01*
X167133995Y-102900000D01*
X167366005Y-102900000D01*
X167594859Y-102861811D01*
X167814304Y-102786475D01*
X167814309Y-102786473D01*
X168018349Y-102676052D01*
X168048797Y-102652351D01*
X167459219Y-102062773D01*
X167552588Y-102024099D01*
X167677925Y-101927925D01*
X167774099Y-101802589D01*
X167812773Y-101709218D01*
X168401187Y-102297632D01*
X168485482Y-102168611D01*
X168578682Y-101956135D01*
X168635638Y-101731217D01*
X168654798Y-101500000D01*
X168654798Y-101499999D01*
X168635638Y-101268782D01*
X168578682Y-101043864D01*
X168485481Y-100831388D01*
X168401187Y-100702366D01*
X167812773Y-101290779D01*
X167774099Y-101197412D01*
X167677925Y-101072075D01*
X167552588Y-100975901D01*
X167459217Y-100937225D01*
X168048797Y-100347646D01*
X168018353Y-100323950D01*
X168018351Y-100323949D01*
X167814309Y-100213526D01*
X167814304Y-100213524D01*
X167594859Y-100138188D01*
X167366005Y-100100000D01*
X167133995Y-100100000D01*
X166905140Y-100138188D01*
X166685695Y-100213524D01*
X166685690Y-100213526D01*
X166481651Y-100323947D01*
X166451201Y-100347646D01*
X167040781Y-100937226D01*
X166947412Y-100975901D01*
X166822075Y-101072075D01*
X166725901Y-101197411D01*
X166687226Y-101290781D01*
X166098811Y-100702366D01*
X166014518Y-100831388D01*
X165921317Y-101043864D01*
X165864361Y-101268782D01*
X165845202Y-101499999D01*
X165845202Y-101500000D01*
X158250500Y-101500000D01*
X158250500Y-92827037D01*
X158250961Y-92822355D01*
X158255408Y-92800000D01*
X158235966Y-92702259D01*
X158235966Y-92702258D01*
X158204661Y-92655408D01*
X158180602Y-92619401D01*
X158180601Y-92619399D01*
X158161647Y-92606734D01*
X158158010Y-92603750D01*
X154496246Y-88941986D01*
X154493266Y-88938354D01*
X154480601Y-88919399D01*
X154427536Y-88883942D01*
X154397741Y-88864033D01*
X154300000Y-88844592D01*
X154277644Y-88849039D01*
X154272962Y-88849500D01*
X146363702Y-88849500D01*
X146346731Y-88842471D01*
X146104260Y-88600000D01*
X154994353Y-88600000D01*
X155014835Y-88742457D01*
X155014836Y-88742459D01*
X155070357Y-88864033D01*
X155074623Y-88873373D01*
X155168872Y-88982143D01*
X155289947Y-89059953D01*
X155428039Y-89100500D01*
X155428040Y-89100500D01*
X155571960Y-89100500D01*
X155571961Y-89100500D01*
X155615717Y-89087652D01*
X155633980Y-89089616D01*
X155639449Y-89093709D01*
X159903750Y-93358010D01*
X159906734Y-93361647D01*
X159915698Y-93375063D01*
X159919399Y-93380601D01*
X159949872Y-93400962D01*
X159972463Y-93416057D01*
X160002258Y-93435966D01*
X160021700Y-93439833D01*
X160100000Y-93455408D01*
X160122356Y-93450960D01*
X160127038Y-93450500D01*
X160575326Y-93450500D01*
X163533355Y-93450500D01*
X163550326Y-93457529D01*
X167608969Y-97516173D01*
X167615998Y-97533144D01*
X167608969Y-97550115D01*
X167591998Y-97557144D01*
X167585032Y-97556111D01*
X167556389Y-97547422D01*
X167446128Y-97513974D01*
X167250005Y-97494659D01*
X167249995Y-97494659D01*
X167053871Y-97513974D01*
X166944326Y-97547205D01*
X166865273Y-97571186D01*
X166865269Y-97571187D01*
X166865269Y-97571188D01*
X166691464Y-97664089D01*
X166691453Y-97664096D01*
X166539125Y-97789109D01*
X166539109Y-97789125D01*
X166414096Y-97941453D01*
X166414089Y-97941464D01*
X166354780Y-98052424D01*
X166321186Y-98115273D01*
X166306111Y-98164968D01*
X166263974Y-98303871D01*
X166244659Y-98499995D01*
X166244659Y-98500004D01*
X166263974Y-98696128D01*
X166278033Y-98742471D01*
X166321186Y-98884727D01*
X166414090Y-99058538D01*
X166414094Y-99058542D01*
X166414096Y-99058546D01*
X166539109Y-99210874D01*
X166539112Y-99210877D01*
X166539117Y-99210883D01*
X166539122Y-99210887D01*
X166539125Y-99210890D01*
X166691453Y-99335903D01*
X166691462Y-99335910D01*
X166865273Y-99428814D01*
X167044830Y-99483282D01*
X167053871Y-99486025D01*
X167249995Y-99505341D01*
X167250000Y-99505341D01*
X167250005Y-99505341D01*
X167446128Y-99486025D01*
X167446130Y-99486024D01*
X167446132Y-99486024D01*
X167634727Y-99428814D01*
X167808538Y-99335910D01*
X167960883Y-99210883D01*
X168085910Y-99058538D01*
X168178814Y-98884727D01*
X168236024Y-98696132D01*
X168236024Y-98696130D01*
X168236025Y-98696128D01*
X168255341Y-98500004D01*
X168255341Y-98499995D01*
X168236025Y-98303871D01*
X168215436Y-98235999D01*
X168193888Y-98164965D01*
X168195689Y-98146688D01*
X168209888Y-98135034D01*
X168228168Y-98136835D01*
X168233826Y-98141030D01*
X169154967Y-99062171D01*
X169161996Y-99079142D01*
X169161752Y-99082557D01*
X169144867Y-99199999D01*
X169144867Y-99200000D01*
X169163303Y-99328226D01*
X169163304Y-99328228D01*
X169217118Y-99446063D01*
X169301948Y-99543965D01*
X169301950Y-99543966D01*
X169301951Y-99543967D01*
X169410931Y-99614004D01*
X169535228Y-99650500D01*
X169535230Y-99650500D01*
X169664770Y-99650500D01*
X169664772Y-99650500D01*
X169789069Y-99614004D01*
X169898049Y-99543967D01*
X169982882Y-99446063D01*
X170036697Y-99328226D01*
X170055133Y-99200000D01*
X170036697Y-99071774D01*
X169982882Y-98953937D01*
X169922915Y-98884730D01*
X169898051Y-98856034D01*
X169898049Y-98856033D01*
X169789073Y-98785998D01*
X169789070Y-98785996D01*
X169789069Y-98785996D01*
X169664772Y-98749500D01*
X169664770Y-98749500D01*
X169560760Y-98749500D01*
X169543789Y-98742471D01*
X163843303Y-93041986D01*
X163840323Y-93038354D01*
X163827658Y-93019399D01*
X163769592Y-92980601D01*
X163769592Y-92980600D01*
X163744797Y-92964033D01*
X163647057Y-92944592D01*
X163624701Y-92949039D01*
X163620019Y-92949500D01*
X160213702Y-92949500D01*
X160196731Y-92942471D01*
X155995111Y-88740851D01*
X155988082Y-88723880D01*
X155988325Y-88720477D01*
X156005647Y-88600000D01*
X155985165Y-88457543D01*
X155925377Y-88326627D01*
X155831128Y-88217857D01*
X155831127Y-88217856D01*
X155710055Y-88140048D01*
X155710050Y-88140046D01*
X155670193Y-88128343D01*
X155607374Y-88109898D01*
X160699500Y-88109898D01*
X160705330Y-88139211D01*
X160705332Y-88139217D01*
X160727539Y-88172452D01*
X160727540Y-88172453D01*
X160727543Y-88172457D01*
X160727546Y-88172459D01*
X160727547Y-88172460D01*
X160760782Y-88194667D01*
X160760787Y-88194669D01*
X160790101Y-88200500D01*
X162509898Y-88200499D01*
X162539213Y-88194669D01*
X162539214Y-88194667D01*
X162539217Y-88194667D01*
X162561276Y-88179927D01*
X162572457Y-88172457D01*
X162579927Y-88161276D01*
X162594667Y-88139217D01*
X162594669Y-88139212D01*
X162596025Y-88132396D01*
X162600500Y-88109899D01*
X162600499Y-86390102D01*
X162594669Y-86360787D01*
X162594668Y-86360786D01*
X162594667Y-86360782D01*
X162572460Y-86327547D01*
X162572459Y-86327546D01*
X162572457Y-86327543D01*
X162572453Y-86327540D01*
X162572452Y-86327539D01*
X162539217Y-86305332D01*
X162539212Y-86305330D01*
X162509899Y-86299500D01*
X160790101Y-86299500D01*
X160760788Y-86305330D01*
X160760782Y-86305332D01*
X160727547Y-86327539D01*
X160727539Y-86327547D01*
X160705332Y-86360782D01*
X160705330Y-86360787D01*
X160699500Y-86390096D01*
X160699500Y-88109898D01*
X155607374Y-88109898D01*
X155571961Y-88099500D01*
X155428039Y-88099500D01*
X155370639Y-88116353D01*
X155289949Y-88140046D01*
X155289944Y-88140048D01*
X155168872Y-88217856D01*
X155074622Y-88326628D01*
X155014836Y-88457540D01*
X155014835Y-88457543D01*
X154994353Y-88600000D01*
X146104260Y-88600000D01*
X146057529Y-88553269D01*
X146050500Y-88536298D01*
X146050500Y-87570000D01*
X147394508Y-87570000D01*
X147414354Y-87695306D01*
X147471947Y-87808338D01*
X147471948Y-87808339D01*
X147471950Y-87808342D01*
X147561658Y-87898050D01*
X147561660Y-87898051D01*
X147561661Y-87898052D01*
X147674693Y-87955645D01*
X147674694Y-87955645D01*
X147674696Y-87955646D01*
X147800000Y-87975492D01*
X147925304Y-87955646D01*
X148038342Y-87898050D01*
X148128050Y-87808342D01*
X148185646Y-87695304D01*
X148205492Y-87570000D01*
X148794508Y-87570000D01*
X148814354Y-87695306D01*
X148871947Y-87808338D01*
X148871948Y-87808339D01*
X148871950Y-87808342D01*
X148961658Y-87898050D01*
X148961660Y-87898051D01*
X148961661Y-87898052D01*
X149074693Y-87955645D01*
X149074694Y-87955645D01*
X149074696Y-87955646D01*
X149200000Y-87975492D01*
X149325304Y-87955646D01*
X149438342Y-87898050D01*
X149528050Y-87808342D01*
X149585646Y-87695304D01*
X149605492Y-87570000D01*
X149585646Y-87444696D01*
X149585645Y-87444694D01*
X149585645Y-87444693D01*
X149528052Y-87331661D01*
X149528051Y-87331660D01*
X149528050Y-87331658D01*
X149438342Y-87241950D01*
X149438339Y-87241948D01*
X149438338Y-87241947D01*
X149325306Y-87184354D01*
X149200000Y-87164508D01*
X149074693Y-87184354D01*
X148961661Y-87241947D01*
X148871947Y-87331661D01*
X148814354Y-87444693D01*
X148794508Y-87570000D01*
X148205492Y-87570000D01*
X148185646Y-87444696D01*
X148185645Y-87444694D01*
X148185645Y-87444693D01*
X148128052Y-87331661D01*
X148128051Y-87331660D01*
X148128050Y-87331658D01*
X148038342Y-87241950D01*
X148038339Y-87241948D01*
X148038338Y-87241947D01*
X147925306Y-87184354D01*
X147800000Y-87164508D01*
X147674693Y-87184354D01*
X147561661Y-87241947D01*
X147471947Y-87331661D01*
X147414354Y-87444693D01*
X147394508Y-87570000D01*
X146050500Y-87570000D01*
X146050500Y-86870000D01*
X146694508Y-86870000D01*
X146714354Y-86995306D01*
X146771947Y-87108338D01*
X146771948Y-87108339D01*
X146771950Y-87108342D01*
X146861658Y-87198050D01*
X146861660Y-87198051D01*
X146861661Y-87198052D01*
X146974693Y-87255645D01*
X146974694Y-87255645D01*
X146974696Y-87255646D01*
X147100000Y-87275492D01*
X147225304Y-87255646D01*
X147338342Y-87198050D01*
X147428050Y-87108342D01*
X147485646Y-86995304D01*
X147505492Y-86870000D01*
X148069508Y-86870000D01*
X148089354Y-86995306D01*
X148146947Y-87108338D01*
X148146948Y-87108339D01*
X148146950Y-87108342D01*
X148236658Y-87198050D01*
X148236660Y-87198051D01*
X148236661Y-87198052D01*
X148349693Y-87255645D01*
X148349694Y-87255645D01*
X148349696Y-87255646D01*
X148475000Y-87275492D01*
X148600304Y-87255646D01*
X148713342Y-87198050D01*
X148803050Y-87108342D01*
X148860646Y-86995304D01*
X148880492Y-86870000D01*
X149494508Y-86870000D01*
X149514354Y-86995306D01*
X149571947Y-87108338D01*
X149571948Y-87108339D01*
X149571950Y-87108342D01*
X149661658Y-87198050D01*
X149661660Y-87198051D01*
X149661661Y-87198052D01*
X149774693Y-87255645D01*
X149774694Y-87255645D01*
X149774696Y-87255646D01*
X149900000Y-87275492D01*
X150025304Y-87255646D01*
X150138342Y-87198050D01*
X150228050Y-87108342D01*
X150285646Y-86995304D01*
X150305492Y-86870000D01*
X150285646Y-86744696D01*
X150285645Y-86744694D01*
X150285645Y-86744693D01*
X150228052Y-86631661D01*
X150228051Y-86631660D01*
X150228050Y-86631658D01*
X150138342Y-86541950D01*
X150138339Y-86541948D01*
X150138338Y-86541947D01*
X150025306Y-86484354D01*
X149900000Y-86464508D01*
X149774693Y-86484354D01*
X149661661Y-86541947D01*
X149571947Y-86631661D01*
X149514354Y-86744693D01*
X149494508Y-86870000D01*
X148880492Y-86870000D01*
X148860646Y-86744696D01*
X148860645Y-86744694D01*
X148860645Y-86744693D01*
X148803052Y-86631661D01*
X148803051Y-86631660D01*
X148803050Y-86631658D01*
X148713342Y-86541950D01*
X148713339Y-86541948D01*
X148713338Y-86541947D01*
X148600306Y-86484354D01*
X148475000Y-86464508D01*
X148349693Y-86484354D01*
X148236661Y-86541947D01*
X148146947Y-86631661D01*
X148089354Y-86744693D01*
X148069508Y-86870000D01*
X147505492Y-86870000D01*
X147485646Y-86744696D01*
X147485645Y-86744694D01*
X147485645Y-86744693D01*
X147428052Y-86631661D01*
X147428051Y-86631660D01*
X147428050Y-86631658D01*
X147338342Y-86541950D01*
X147338339Y-86541948D01*
X147338338Y-86541947D01*
X147225306Y-86484354D01*
X147100000Y-86464508D01*
X146974693Y-86484354D01*
X146861661Y-86541947D01*
X146771947Y-86631661D01*
X146714354Y-86744693D01*
X146694508Y-86870000D01*
X146050500Y-86870000D01*
X146050500Y-86627037D01*
X146050961Y-86622355D01*
X146055408Y-86600000D01*
X146035966Y-86502259D01*
X146010741Y-86464508D01*
X145980601Y-86419399D01*
X145972471Y-86413967D01*
X145961647Y-86406734D01*
X145958010Y-86403750D01*
X145724260Y-86170000D01*
X147394508Y-86170000D01*
X147414354Y-86295306D01*
X147471947Y-86408338D01*
X147471948Y-86408339D01*
X147471950Y-86408342D01*
X147561658Y-86498050D01*
X147561660Y-86498051D01*
X147561661Y-86498052D01*
X147674693Y-86555645D01*
X147674694Y-86555645D01*
X147674696Y-86555646D01*
X147800000Y-86575492D01*
X147925304Y-86555646D01*
X148038342Y-86498050D01*
X148128050Y-86408342D01*
X148185646Y-86295304D01*
X148205492Y-86170000D01*
X148794508Y-86170000D01*
X148814354Y-86295306D01*
X148871947Y-86408338D01*
X148871948Y-86408339D01*
X148871950Y-86408342D01*
X148961658Y-86498050D01*
X148961660Y-86498051D01*
X148961661Y-86498052D01*
X149074693Y-86555645D01*
X149074694Y-86555645D01*
X149074696Y-86555646D01*
X149200000Y-86575492D01*
X149325304Y-86555646D01*
X149438342Y-86498050D01*
X149528050Y-86408342D01*
X149585646Y-86295304D01*
X149605492Y-86170000D01*
X149585646Y-86044696D01*
X149585645Y-86044694D01*
X149585645Y-86044693D01*
X149528052Y-85931661D01*
X149528051Y-85931660D01*
X149528050Y-85931658D01*
X149438342Y-85841950D01*
X149438339Y-85841948D01*
X149438338Y-85841947D01*
X149325306Y-85784354D01*
X149200000Y-85764508D01*
X149074693Y-85784354D01*
X148961661Y-85841947D01*
X148871947Y-85931661D01*
X148814354Y-86044693D01*
X148794508Y-86170000D01*
X148205492Y-86170000D01*
X148185646Y-86044696D01*
X148185645Y-86044694D01*
X148185645Y-86044693D01*
X148128052Y-85931661D01*
X148128051Y-85931660D01*
X148128050Y-85931658D01*
X148038342Y-85841950D01*
X148038339Y-85841948D01*
X148038338Y-85841947D01*
X147925306Y-85784354D01*
X147800000Y-85764508D01*
X147674693Y-85784354D01*
X147561661Y-85841947D01*
X147471947Y-85931661D01*
X147414354Y-86044693D01*
X147394508Y-86170000D01*
X145724260Y-86170000D01*
X145466246Y-85911986D01*
X145463266Y-85908354D01*
X145450601Y-85889399D01*
X145397536Y-85853942D01*
X145367741Y-85834033D01*
X145270000Y-85814592D01*
X145247644Y-85819039D01*
X145242962Y-85819500D01*
X142989997Y-85819500D01*
X142973026Y-85812471D01*
X142971859Y-85811216D01*
X142898051Y-85726034D01*
X142898049Y-85726033D01*
X142789073Y-85655998D01*
X142789070Y-85655996D01*
X142789069Y-85655996D01*
X142664772Y-85619500D01*
X142535228Y-85619500D01*
X142462238Y-85640931D01*
X142410933Y-85655995D01*
X142410926Y-85655998D01*
X142301950Y-85726033D01*
X142301948Y-85726034D01*
X142217118Y-85823936D01*
X142163304Y-85941771D01*
X142163303Y-85941774D01*
X142144867Y-86070000D01*
X123434842Y-86070000D01*
X123491231Y-85964421D01*
X123757105Y-85470000D01*
X146694508Y-85470000D01*
X146714354Y-85595306D01*
X146771947Y-85708338D01*
X146771948Y-85708339D01*
X146771950Y-85708342D01*
X146861658Y-85798050D01*
X146861660Y-85798051D01*
X146861661Y-85798052D01*
X146974693Y-85855645D01*
X146974694Y-85855645D01*
X146974696Y-85855646D01*
X147100000Y-85875492D01*
X147225304Y-85855646D01*
X147338342Y-85798050D01*
X147428050Y-85708342D01*
X147485646Y-85595304D01*
X147505492Y-85470000D01*
X148069508Y-85470000D01*
X148089354Y-85595306D01*
X148146947Y-85708338D01*
X148146948Y-85708339D01*
X148146950Y-85708342D01*
X148236658Y-85798050D01*
X148236660Y-85798051D01*
X148236661Y-85798052D01*
X148349693Y-85855645D01*
X148349694Y-85855645D01*
X148349696Y-85855646D01*
X148475000Y-85875492D01*
X148600304Y-85855646D01*
X148713342Y-85798050D01*
X148803050Y-85708342D01*
X148860646Y-85595304D01*
X148880492Y-85470000D01*
X149494508Y-85470000D01*
X149514354Y-85595306D01*
X149571947Y-85708338D01*
X149571948Y-85708339D01*
X149571950Y-85708342D01*
X149661658Y-85798050D01*
X149661660Y-85798051D01*
X149661661Y-85798052D01*
X149774693Y-85855645D01*
X149774694Y-85855645D01*
X149774696Y-85855646D01*
X149900000Y-85875492D01*
X150025304Y-85855646D01*
X150138342Y-85798050D01*
X150228050Y-85708342D01*
X150285646Y-85595304D01*
X150305492Y-85470000D01*
X150285646Y-85344696D01*
X150285645Y-85344694D01*
X150285645Y-85344693D01*
X150228052Y-85231661D01*
X150228051Y-85231660D01*
X150228050Y-85231658D01*
X150138342Y-85141950D01*
X150138339Y-85141948D01*
X150138338Y-85141947D01*
X150025306Y-85084354D01*
X149900000Y-85064508D01*
X149774693Y-85084354D01*
X149661661Y-85141947D01*
X149571947Y-85231661D01*
X149514354Y-85344693D01*
X149494508Y-85470000D01*
X148880492Y-85470000D01*
X148860646Y-85344696D01*
X148860645Y-85344694D01*
X148860645Y-85344693D01*
X148803052Y-85231661D01*
X148803051Y-85231660D01*
X148803050Y-85231658D01*
X148713342Y-85141950D01*
X148713339Y-85141948D01*
X148713338Y-85141947D01*
X148600306Y-85084354D01*
X148475000Y-85064508D01*
X148349693Y-85084354D01*
X148236661Y-85141947D01*
X148146947Y-85231661D01*
X148089354Y-85344693D01*
X148069508Y-85470000D01*
X147505492Y-85470000D01*
X147485646Y-85344696D01*
X147485645Y-85344694D01*
X147485645Y-85344693D01*
X147428052Y-85231661D01*
X147428051Y-85231660D01*
X147428050Y-85231658D01*
X147338342Y-85141950D01*
X147338339Y-85141948D01*
X147338338Y-85141947D01*
X147225306Y-85084354D01*
X147100000Y-85064508D01*
X146974693Y-85084354D01*
X146861661Y-85141947D01*
X146771947Y-85231661D01*
X146714354Y-85344693D01*
X146694508Y-85470000D01*
X123757105Y-85470000D01*
X123827627Y-85338857D01*
X123827979Y-85338229D01*
X124010999Y-85023729D01*
X124159527Y-84770000D01*
X147394508Y-84770000D01*
X147414354Y-84895306D01*
X147471947Y-85008338D01*
X147471948Y-85008339D01*
X147471950Y-85008342D01*
X147561658Y-85098050D01*
X147561660Y-85098051D01*
X147561661Y-85098052D01*
X147674693Y-85155645D01*
X147674694Y-85155645D01*
X147674696Y-85155646D01*
X147800000Y-85175492D01*
X147925304Y-85155646D01*
X148038342Y-85098050D01*
X148128050Y-85008342D01*
X148185646Y-84895304D01*
X148205492Y-84770000D01*
X148794508Y-84770000D01*
X148814354Y-84895306D01*
X148871947Y-85008338D01*
X148871948Y-85008339D01*
X148871950Y-85008342D01*
X148961658Y-85098050D01*
X148961660Y-85098051D01*
X148961661Y-85098052D01*
X149074693Y-85155645D01*
X149074694Y-85155645D01*
X149074696Y-85155646D01*
X149200000Y-85175492D01*
X149325304Y-85155646D01*
X149438342Y-85098050D01*
X149528050Y-85008342D01*
X149585646Y-84895304D01*
X149605492Y-84770000D01*
X149585646Y-84644696D01*
X149585645Y-84644694D01*
X149585645Y-84644693D01*
X149528052Y-84531661D01*
X149528051Y-84531660D01*
X149528050Y-84531658D01*
X149438342Y-84441950D01*
X149438339Y-84441948D01*
X149438338Y-84441947D01*
X149325306Y-84384354D01*
X149200000Y-84364508D01*
X149074693Y-84384354D01*
X148961661Y-84441947D01*
X148871947Y-84531661D01*
X148814354Y-84644693D01*
X148794508Y-84770000D01*
X148205492Y-84770000D01*
X148185646Y-84644696D01*
X148185645Y-84644694D01*
X148185645Y-84644693D01*
X148128052Y-84531661D01*
X148128051Y-84531660D01*
X148128050Y-84531658D01*
X148038342Y-84441950D01*
X148038339Y-84441948D01*
X148038338Y-84441947D01*
X147925306Y-84384354D01*
X147800000Y-84364508D01*
X147674693Y-84384354D01*
X147561661Y-84441947D01*
X147471947Y-84531661D01*
X147414354Y-84644693D01*
X147394508Y-84770000D01*
X124159527Y-84770000D01*
X124377614Y-84397445D01*
X124377961Y-84396876D01*
X124562092Y-84105467D01*
X124562136Y-84105436D01*
X124562119Y-84105425D01*
X124628028Y-84001644D01*
X124961423Y-83476679D01*
X124961805Y-83476100D01*
X125142398Y-83212128D01*
X125578357Y-82577656D01*
X125578706Y-82577168D01*
X125749446Y-82346155D01*
X125749734Y-82345766D01*
X125749744Y-82345773D01*
X125749757Y-82345736D01*
X125749761Y-82345731D01*
X125857866Y-82200000D01*
X159744867Y-82200000D01*
X159763303Y-82328226D01*
X159763304Y-82328228D01*
X159817118Y-82446063D01*
X159901948Y-82543965D01*
X159901950Y-82543966D01*
X159901951Y-82543967D01*
X160010931Y-82614004D01*
X160135228Y-82650500D01*
X160135230Y-82650500D01*
X160264770Y-82650500D01*
X160264772Y-82650500D01*
X160275434Y-82647369D01*
X160293697Y-82649333D01*
X160299166Y-82653426D01*
X161003752Y-83358013D01*
X161006736Y-83361650D01*
X161019399Y-83380601D01*
X161038354Y-83393266D01*
X161041986Y-83396246D01*
X163932471Y-86286731D01*
X163939500Y-86303702D01*
X163939500Y-86314918D01*
X163932471Y-86331889D01*
X163922467Y-86337884D01*
X163824499Y-86367603D01*
X163659377Y-86455863D01*
X163659366Y-86455870D01*
X163514651Y-86574635D01*
X163514635Y-86574651D01*
X163395870Y-86719366D01*
X163395863Y-86719377D01*
X163307606Y-86884494D01*
X163307605Y-86884496D01*
X163307604Y-86884499D01*
X163290909Y-86939533D01*
X163253251Y-87063672D01*
X163234901Y-87249995D01*
X163234901Y-87250004D01*
X163253251Y-87436327D01*
X163280428Y-87525916D01*
X163307604Y-87615501D01*
X163395864Y-87780625D01*
X163395868Y-87780629D01*
X163395870Y-87780633D01*
X163514635Y-87925348D01*
X163514638Y-87925351D01*
X163514643Y-87925357D01*
X163514648Y-87925361D01*
X163514651Y-87925364D01*
X163551550Y-87955646D01*
X163659375Y-88044136D01*
X163824499Y-88132396D01*
X163993426Y-88183640D01*
X164003672Y-88186748D01*
X164189995Y-88205099D01*
X164190000Y-88205099D01*
X164190005Y-88205099D01*
X164376327Y-88186748D01*
X164376329Y-88186747D01*
X164376331Y-88186747D01*
X164555501Y-88132396D01*
X164720625Y-88044136D01*
X164865357Y-87925357D01*
X164984136Y-87780625D01*
X165072396Y-87615501D01*
X165126747Y-87436331D01*
X165126747Y-87436329D01*
X165126748Y-87436327D01*
X165145099Y-87250004D01*
X165774901Y-87250004D01*
X165793251Y-87436327D01*
X165820428Y-87525916D01*
X165847604Y-87615501D01*
X165935864Y-87780625D01*
X165935868Y-87780629D01*
X165935870Y-87780633D01*
X166054635Y-87925348D01*
X166054638Y-87925351D01*
X166054643Y-87925357D01*
X166054648Y-87925361D01*
X166054651Y-87925364D01*
X166091550Y-87955646D01*
X166199375Y-88044136D01*
X166364499Y-88132396D01*
X166533426Y-88183640D01*
X166543672Y-88186748D01*
X166729995Y-88205099D01*
X166730000Y-88205099D01*
X166730005Y-88205099D01*
X166916327Y-88186748D01*
X166916329Y-88186747D01*
X166916331Y-88186747D01*
X167095501Y-88132396D01*
X167260625Y-88044136D01*
X167405357Y-87925357D01*
X167524136Y-87780625D01*
X167612396Y-87615501D01*
X167666747Y-87436331D01*
X167666747Y-87436329D01*
X167666748Y-87436327D01*
X167685099Y-87250004D01*
X168314901Y-87250004D01*
X168333251Y-87436327D01*
X168360428Y-87525916D01*
X168387604Y-87615501D01*
X168475864Y-87780625D01*
X168475868Y-87780629D01*
X168475870Y-87780633D01*
X168594635Y-87925348D01*
X168594638Y-87925351D01*
X168594643Y-87925357D01*
X168594648Y-87925361D01*
X168594651Y-87925364D01*
X168631550Y-87955646D01*
X168739375Y-88044136D01*
X168904499Y-88132396D01*
X169073426Y-88183640D01*
X169083672Y-88186748D01*
X169269995Y-88205099D01*
X169270000Y-88205099D01*
X169270005Y-88205099D01*
X169456327Y-88186748D01*
X169456329Y-88186747D01*
X169456331Y-88186747D01*
X169635501Y-88132396D01*
X169800625Y-88044136D01*
X169945357Y-87925357D01*
X170064136Y-87780625D01*
X170152396Y-87615501D01*
X170206747Y-87436331D01*
X170206747Y-87436329D01*
X170206748Y-87436327D01*
X170225099Y-87250004D01*
X170854901Y-87250004D01*
X170873251Y-87436327D01*
X170900428Y-87525916D01*
X170927604Y-87615501D01*
X171015864Y-87780625D01*
X171015868Y-87780629D01*
X171015870Y-87780633D01*
X171134635Y-87925348D01*
X171134638Y-87925351D01*
X171134643Y-87925357D01*
X171134648Y-87925361D01*
X171134651Y-87925364D01*
X171171550Y-87955646D01*
X171279375Y-88044136D01*
X171444499Y-88132396D01*
X171613426Y-88183640D01*
X171623672Y-88186748D01*
X171809995Y-88205099D01*
X171810000Y-88205099D01*
X171810005Y-88205099D01*
X171996327Y-88186748D01*
X171996329Y-88186747D01*
X171996331Y-88186747D01*
X172175501Y-88132396D01*
X172340625Y-88044136D01*
X172485357Y-87925357D01*
X172604136Y-87780625D01*
X172692396Y-87615501D01*
X172746747Y-87436331D01*
X172746747Y-87436329D01*
X172746748Y-87436327D01*
X172765099Y-87250004D01*
X173394901Y-87250004D01*
X173413251Y-87436327D01*
X173440428Y-87525916D01*
X173467604Y-87615501D01*
X173555864Y-87780625D01*
X173555868Y-87780629D01*
X173555870Y-87780633D01*
X173674635Y-87925348D01*
X173674638Y-87925351D01*
X173674643Y-87925357D01*
X173674648Y-87925361D01*
X173674651Y-87925364D01*
X173711550Y-87955646D01*
X173819375Y-88044136D01*
X173984499Y-88132396D01*
X174153426Y-88183640D01*
X174163672Y-88186748D01*
X174349995Y-88205099D01*
X174350000Y-88205099D01*
X174350005Y-88205099D01*
X174536327Y-88186748D01*
X174536329Y-88186747D01*
X174536331Y-88186747D01*
X174715501Y-88132396D01*
X174880625Y-88044136D01*
X175025357Y-87925357D01*
X175144136Y-87780625D01*
X175232396Y-87615501D01*
X175286747Y-87436331D01*
X175286747Y-87436329D01*
X175286748Y-87436327D01*
X175305099Y-87250004D01*
X175305099Y-87249995D01*
X175286748Y-87063672D01*
X175266009Y-86995306D01*
X175232396Y-86884499D01*
X175144136Y-86719375D01*
X175144129Y-86719366D01*
X175025364Y-86574651D01*
X175025361Y-86574648D01*
X175025357Y-86574643D01*
X175025351Y-86574638D01*
X175025348Y-86574635D01*
X174880633Y-86455870D01*
X174880629Y-86455868D01*
X174880625Y-86455864D01*
X174715501Y-86367604D01*
X174617528Y-86337884D01*
X174536327Y-86313251D01*
X174350005Y-86294901D01*
X174349995Y-86294901D01*
X174163672Y-86313251D01*
X174039533Y-86350909D01*
X173984499Y-86367604D01*
X173984496Y-86367605D01*
X173984494Y-86367606D01*
X173819377Y-86455863D01*
X173819366Y-86455870D01*
X173674651Y-86574635D01*
X173674635Y-86574651D01*
X173555870Y-86719366D01*
X173555863Y-86719377D01*
X173467606Y-86884494D01*
X173467605Y-86884496D01*
X173467604Y-86884499D01*
X173450909Y-86939533D01*
X173413251Y-87063672D01*
X173394901Y-87249995D01*
X173394901Y-87250004D01*
X172765099Y-87250004D01*
X172765099Y-87249995D01*
X172746748Y-87063672D01*
X172726009Y-86995306D01*
X172692396Y-86884499D01*
X172604136Y-86719375D01*
X172604129Y-86719366D01*
X172485364Y-86574651D01*
X172485361Y-86574648D01*
X172485357Y-86574643D01*
X172485351Y-86574638D01*
X172485348Y-86574635D01*
X172340633Y-86455870D01*
X172340629Y-86455868D01*
X172340625Y-86455864D01*
X172175501Y-86367604D01*
X172077528Y-86337884D01*
X171996327Y-86313251D01*
X171810005Y-86294901D01*
X171809995Y-86294901D01*
X171623672Y-86313251D01*
X171499533Y-86350909D01*
X171444499Y-86367604D01*
X171444496Y-86367605D01*
X171444494Y-86367606D01*
X171279377Y-86455863D01*
X171279366Y-86455870D01*
X171134651Y-86574635D01*
X171134635Y-86574651D01*
X171015870Y-86719366D01*
X171015863Y-86719377D01*
X170927606Y-86884494D01*
X170927605Y-86884496D01*
X170927604Y-86884499D01*
X170910909Y-86939533D01*
X170873251Y-87063672D01*
X170854901Y-87249995D01*
X170854901Y-87250004D01*
X170225099Y-87250004D01*
X170225099Y-87249995D01*
X170206748Y-87063672D01*
X170186009Y-86995306D01*
X170152396Y-86884499D01*
X170064136Y-86719375D01*
X170064129Y-86719366D01*
X169945364Y-86574651D01*
X169945361Y-86574648D01*
X169945357Y-86574643D01*
X169945351Y-86574638D01*
X169945348Y-86574635D01*
X169800633Y-86455870D01*
X169800629Y-86455868D01*
X169800625Y-86455864D01*
X169635501Y-86367604D01*
X169537528Y-86337884D01*
X169456327Y-86313251D01*
X169270005Y-86294901D01*
X169269995Y-86294901D01*
X169083672Y-86313251D01*
X168959533Y-86350909D01*
X168904499Y-86367604D01*
X168904496Y-86367605D01*
X168904494Y-86367606D01*
X168739377Y-86455863D01*
X168739366Y-86455870D01*
X168594651Y-86574635D01*
X168594635Y-86574651D01*
X168475870Y-86719366D01*
X168475863Y-86719377D01*
X168387606Y-86884494D01*
X168387605Y-86884496D01*
X168387604Y-86884499D01*
X168370909Y-86939533D01*
X168333251Y-87063672D01*
X168314901Y-87249995D01*
X168314901Y-87250004D01*
X167685099Y-87250004D01*
X167685099Y-87249995D01*
X167666748Y-87063672D01*
X167646009Y-86995306D01*
X167612396Y-86884499D01*
X167524136Y-86719375D01*
X167524129Y-86719366D01*
X167405364Y-86574651D01*
X167405361Y-86574648D01*
X167405357Y-86574643D01*
X167405351Y-86574638D01*
X167405348Y-86574635D01*
X167260633Y-86455870D01*
X167260629Y-86455868D01*
X167260625Y-86455864D01*
X167095501Y-86367604D01*
X166997528Y-86337884D01*
X166916327Y-86313251D01*
X166730005Y-86294901D01*
X166729995Y-86294901D01*
X166543672Y-86313251D01*
X166419533Y-86350909D01*
X166364499Y-86367604D01*
X166364496Y-86367605D01*
X166364494Y-86367606D01*
X166199377Y-86455863D01*
X166199366Y-86455870D01*
X166054651Y-86574635D01*
X166054635Y-86574651D01*
X165935870Y-86719366D01*
X165935863Y-86719377D01*
X165847606Y-86884494D01*
X165847605Y-86884496D01*
X165847604Y-86884499D01*
X165830909Y-86939533D01*
X165793251Y-87063672D01*
X165774901Y-87249995D01*
X165774901Y-87250004D01*
X165145099Y-87250004D01*
X165145099Y-87249995D01*
X165126748Y-87063672D01*
X165106009Y-86995306D01*
X165072396Y-86884499D01*
X164984136Y-86719375D01*
X164984129Y-86719366D01*
X164865364Y-86574651D01*
X164865361Y-86574648D01*
X164865357Y-86574643D01*
X164865351Y-86574638D01*
X164865348Y-86574635D01*
X164720633Y-86455870D01*
X164720629Y-86455868D01*
X164720625Y-86455864D01*
X164597592Y-86390102D01*
X164555500Y-86367603D01*
X164457533Y-86337884D01*
X164443334Y-86326231D01*
X164440500Y-86314918D01*
X164440500Y-86217037D01*
X164440961Y-86212355D01*
X164445408Y-86190000D01*
X164425966Y-86092259D01*
X164394185Y-86044696D01*
X164370601Y-86009399D01*
X164351647Y-85996734D01*
X164348010Y-85993750D01*
X161845731Y-83491471D01*
X161838702Y-83474500D01*
X161845731Y-83457529D01*
X161862702Y-83450500D01*
X168772962Y-83450500D01*
X168777643Y-83450960D01*
X168800000Y-83455408D01*
X168884796Y-83438540D01*
X168896235Y-83439050D01*
X168935228Y-83450500D01*
X168935230Y-83450500D01*
X169064770Y-83450500D01*
X169064772Y-83450500D01*
X169189069Y-83414004D01*
X169298049Y-83343967D01*
X169301738Y-83339710D01*
X170546443Y-83339710D01*
X170576718Y-83511403D01*
X170645770Y-83671487D01*
X170645772Y-83671490D01*
X170700084Y-83744442D01*
X170749883Y-83811334D01*
X170749884Y-83811335D01*
X170749885Y-83811336D01*
X170883436Y-83923400D01*
X170970369Y-83967059D01*
X171039236Y-84001645D01*
X171208880Y-84041851D01*
X171208881Y-84041851D01*
X171339483Y-84041851D01*
X171339487Y-84041851D01*
X171469215Y-84026688D01*
X171633044Y-83967059D01*
X171778705Y-83871256D01*
X171898347Y-83744444D01*
X171985518Y-83593458D01*
X172035520Y-83426439D01*
X172045658Y-83252391D01*
X172015383Y-83080697D01*
X171949912Y-82928916D01*
X171946331Y-82920614D01*
X171946329Y-82920611D01*
X171905783Y-82866149D01*
X171842219Y-82780768D01*
X171842216Y-82780766D01*
X171842216Y-82780765D01*
X171708665Y-82668701D01*
X171552867Y-82590457D01*
X171447200Y-82565414D01*
X171383222Y-82550251D01*
X171252615Y-82550251D01*
X171252610Y-82550251D01*
X171122883Y-82565414D01*
X170959059Y-82625042D01*
X170813397Y-82720845D01*
X170813395Y-82720847D01*
X170693753Y-82847659D01*
X170606584Y-82998644D01*
X170556581Y-83165662D01*
X170556581Y-83165664D01*
X170546443Y-83339707D01*
X170546443Y-83339710D01*
X169301738Y-83339710D01*
X169382882Y-83246063D01*
X169436697Y-83128226D01*
X169455133Y-83000000D01*
X169436697Y-82871774D01*
X169382882Y-82753937D01*
X169354208Y-82720845D01*
X169298051Y-82656034D01*
X169298049Y-82656033D01*
X169189073Y-82585998D01*
X169189070Y-82585996D01*
X169189069Y-82585996D01*
X169064772Y-82549500D01*
X168935228Y-82549500D01*
X168881029Y-82565414D01*
X168810933Y-82585995D01*
X168810926Y-82585998D01*
X168701950Y-82656033D01*
X168701948Y-82656034D01*
X168617118Y-82753936D01*
X168574316Y-82847659D01*
X168563303Y-82871774D01*
X168555087Y-82928917D01*
X168545715Y-82944713D01*
X168531332Y-82949500D01*
X161313703Y-82949500D01*
X161296732Y-82942471D01*
X160650946Y-82296686D01*
X160643917Y-82279715D01*
X160644159Y-82276313D01*
X160655133Y-82200000D01*
X160636697Y-82071774D01*
X160582882Y-81953937D01*
X160573942Y-81943619D01*
X160498051Y-81856034D01*
X160498049Y-81856033D01*
X160389073Y-81785998D01*
X160389070Y-81785996D01*
X160389069Y-81785996D01*
X160264772Y-81749500D01*
X160135228Y-81749500D01*
X160062238Y-81770931D01*
X160010933Y-81785995D01*
X160010926Y-81785998D01*
X159901950Y-81856033D01*
X159901948Y-81856034D01*
X159817118Y-81953936D01*
X159817118Y-81953937D01*
X159763303Y-82071774D01*
X159744867Y-82200000D01*
X125857866Y-82200000D01*
X126227498Y-81701720D01*
X126227896Y-81701202D01*
X126379579Y-81510909D01*
X126379728Y-81510723D01*
X126379736Y-81510729D01*
X126379746Y-81510700D01*
X126908059Y-80849926D01*
X126908502Y-80849390D01*
X127025069Y-80713623D01*
X127025548Y-80713066D01*
X127025555Y-80713072D01*
X127025562Y-80713050D01*
X127238173Y-80466028D01*
X166235920Y-80466028D01*
X166266195Y-80637721D01*
X166335247Y-80797805D01*
X166335249Y-80797808D01*
X166373613Y-80849339D01*
X166439360Y-80937652D01*
X166439361Y-80937653D01*
X166439362Y-80937654D01*
X166572913Y-81049718D01*
X166659846Y-81093377D01*
X166728713Y-81127963D01*
X166898357Y-81168169D01*
X166898358Y-81168169D01*
X167028960Y-81168169D01*
X167028964Y-81168169D01*
X167158692Y-81153006D01*
X167322521Y-81093377D01*
X167468182Y-80997574D01*
X167587824Y-80870762D01*
X167674995Y-80719776D01*
X167724997Y-80552757D01*
X167730049Y-80466025D01*
X167735135Y-80378712D01*
X167735135Y-80378709D01*
X167704860Y-80207016D01*
X167635808Y-80046932D01*
X167635806Y-80046929D01*
X167595260Y-79992467D01*
X167531696Y-79907086D01*
X167531693Y-79907084D01*
X167531693Y-79907083D01*
X167398142Y-79795019D01*
X167242344Y-79716775D01*
X167134099Y-79691121D01*
X167072699Y-79676569D01*
X166942092Y-79676569D01*
X166942087Y-79676569D01*
X166812360Y-79691732D01*
X166648536Y-79751360D01*
X166502874Y-79847163D01*
X166502872Y-79847165D01*
X166383230Y-79973977D01*
X166296061Y-80124962D01*
X166246058Y-80291980D01*
X166246058Y-80291982D01*
X166235920Y-80466025D01*
X166235920Y-80466028D01*
X127238173Y-80466028D01*
X127619106Y-80023441D01*
X127619576Y-80022914D01*
X127673171Y-79964911D01*
X127673868Y-79964158D01*
X127673873Y-79964163D01*
X127673880Y-79964146D01*
X127673885Y-79964141D01*
X128358431Y-79224725D01*
X128359015Y-79224118D01*
X128553052Y-79029187D01*
X167672761Y-79029187D01*
X167703036Y-79200880D01*
X167772088Y-79360964D01*
X167772090Y-79360967D01*
X167826402Y-79433919D01*
X167876201Y-79500811D01*
X167876202Y-79500812D01*
X167876203Y-79500813D01*
X168009754Y-79612877D01*
X168165552Y-79691121D01*
X168165554Y-79691122D01*
X168335198Y-79731328D01*
X168335199Y-79731328D01*
X168465801Y-79731328D01*
X168465805Y-79731328D01*
X168595533Y-79716165D01*
X168759362Y-79656536D01*
X168905023Y-79560733D01*
X169024665Y-79433921D01*
X169111836Y-79282935D01*
X169161838Y-79115916D01*
X169171976Y-78941868D01*
X169141701Y-78770174D01*
X169106307Y-78688121D01*
X169072649Y-78610091D01*
X169072647Y-78610088D01*
X169032101Y-78555626D01*
X168968537Y-78470245D01*
X168968534Y-78470243D01*
X168968534Y-78470242D01*
X168834983Y-78358178D01*
X168679185Y-78279934D01*
X168573518Y-78254891D01*
X168509540Y-78239728D01*
X168378933Y-78239728D01*
X168378928Y-78239728D01*
X168249201Y-78254891D01*
X168085377Y-78314519D01*
X167939715Y-78410322D01*
X167939713Y-78410324D01*
X167820071Y-78537136D01*
X167732902Y-78688121D01*
X167682899Y-78855139D01*
X167682899Y-78855141D01*
X167672761Y-79029184D01*
X167672761Y-79029187D01*
X128553052Y-79029187D01*
X129124823Y-78454780D01*
X129125410Y-78454210D01*
X129918577Y-77713098D01*
X129919146Y-77712584D01*
X130559967Y-77155881D01*
X130575707Y-77150000D01*
X169424293Y-77150000D01*
X169440033Y-77155882D01*
G37*
%TD.AperFunction*%
%TD*%
M02*
