%TF.GenerationSoftware,KiCad,Pcbnew,7.0.10*%
%TF.CreationDate,2024-02-08T00:21:34+01:00*%
%TF.ProjectId,robot_pcb,726f626f-745f-4706-9362-2e6b69636164,rev?*%
%TF.SameCoordinates,Original*%
%TF.FileFunction,Legend,Top*%
%TF.FilePolarity,Positive*%
%FSLAX46Y46*%
G04 Gerber Fmt 4.6, Leading zero omitted, Abs format (unit mm)*
G04 Created by KiCad (PCBNEW 7.0.10) date 2024-02-08 00:21:34*
%MOMM*%
%LPD*%
G01*
G04 APERTURE LIST*
G04 Aperture macros list*
%AMRoundRect*
0 Rectangle with rounded corners*
0 $1 Rounding radius*
0 $2 $3 $4 $5 $6 $7 $8 $9 X,Y pos of 4 corners*
0 Add a 4 corners polygon primitive as box body*
4,1,4,$2,$3,$4,$5,$6,$7,$8,$9,$2,$3,0*
0 Add four circle primitives for the rounded corners*
1,1,$1+$1,$2,$3*
1,1,$1+$1,$4,$5*
1,1,$1+$1,$6,$7*
1,1,$1+$1,$8,$9*
0 Add four rect primitives between the rounded corners*
20,1,$1+$1,$2,$3,$4,$5,0*
20,1,$1+$1,$4,$5,$6,$7,0*
20,1,$1+$1,$6,$7,$8,$9,0*
20,1,$1+$1,$8,$9,$2,$3,0*%
%AMHorizOval*
0 Thick line with rounded ends*
0 $1 width*
0 $2 $3 position (X,Y) of the first rounded end (center of the circle)*
0 $4 $5 position (X,Y) of the second rounded end (center of the circle)*
0 Add line between two ends*
20,1,$1,$2,$3,$4,$5,0*
0 Add two circle primitives to create the rounded ends*
1,1,$1,$2,$3*
1,1,$1,$4,$5*%
%AMRotRect*
0 Rectangle, with rotation*
0 The origin of the aperture is its center*
0 $1 length*
0 $2 width*
0 $3 Rotation angle, in degrees counterclockwise*
0 Add horizontal line*
21,1,$1,$2,0,0,$3*%
%AMFreePoly0*
4,1,19,0.500000,-0.750000,0.000000,-0.750000,0.000000,-0.744911,-0.071157,-0.744911,-0.207708,-0.704816,-0.327430,-0.627875,-0.420627,-0.520320,-0.479746,-0.390866,-0.500000,-0.250000,-0.500000,0.250000,-0.479746,0.390866,-0.420627,0.520320,-0.327430,0.627875,-0.207708,0.704816,-0.071157,0.744911,0.000000,0.744911,0.000000,0.750000,0.500000,0.750000,0.500000,-0.750000,0.500000,-0.750000,
$1*%
%AMFreePoly1*
4,1,19,0.000000,0.744911,0.071157,0.744911,0.207708,0.704816,0.327430,0.627875,0.420627,0.520320,0.479746,0.390866,0.500000,0.250000,0.500000,-0.250000,0.479746,-0.390866,0.420627,-0.520320,0.327430,-0.627875,0.207708,-0.704816,0.071157,-0.744911,0.000000,-0.744911,0.000000,-0.750000,-0.500000,-0.750000,-0.500000,0.750000,0.000000,0.750000,0.000000,0.744911,0.000000,0.744911,
$1*%
G04 Aperture macros list end*
%ADD10C,0.150000*%
%ADD11C,0.120000*%
%ADD12C,0.152400*%
%ADD13R,1.500000X0.900000*%
%ADD14R,0.900000X1.500000*%
%ADD15R,3.800000X3.800000*%
%ADD16C,0.600000*%
%ADD17R,7.500000X4.000000*%
%ADD18RotRect,4.000000X7.500000X45.000000*%
%ADD19RotRect,4.000000X7.500000X225.000000*%
%ADD20RoundRect,0.250000X-0.450000X0.262500X-0.450000X-0.262500X0.450000X-0.262500X0.450000X0.262500X0*%
%ADD21R,0.700000X0.350000*%
%ADD22R,0.900000X0.350000*%
%ADD23RoundRect,0.250000X0.475000X-0.250000X0.475000X0.250000X-0.475000X0.250000X-0.475000X-0.250000X0*%
%ADD24FreePoly0,180.000000*%
%ADD25FreePoly1,180.000000*%
%ADD26C,0.990600*%
%ADD27C,0.787400*%
%ADD28RoundRect,0.250000X0.503814X0.132583X0.132583X0.503814X-0.503814X-0.132583X-0.132583X-0.503814X0*%
%ADD29C,3.200000*%
%ADD30RoundRect,0.250000X0.262500X0.450000X-0.262500X0.450000X-0.262500X-0.450000X0.262500X-0.450000X0*%
%ADD31R,1.100000X1.450000*%
%ADD32R,0.800000X0.800000*%
%ADD33RoundRect,0.250000X0.450000X-0.262500X0.450000X0.262500X-0.450000X0.262500X-0.450000X-0.262500X0*%
%ADD34C,2.500000*%
%ADD35RoundRect,0.218750X-0.706250X0.218750X-0.706250X-0.218750X0.706250X-0.218750X0.706250X0.218750X0*%
%ADD36RoundRect,0.250000X0.250000X0.475000X-0.250000X0.475000X-0.250000X-0.475000X0.250000X-0.475000X0*%
%ADD37RotRect,2.500000X2.000000X333.000000*%
%ADD38HorizOval,2.000000X0.222752X-0.113498X-0.222752X0.113498X0*%
%ADD39C,2.000000*%
%ADD40RoundRect,0.150000X0.150000X-0.512500X0.150000X0.512500X-0.150000X0.512500X-0.150000X-0.512500X0*%
%ADD41RotRect,2.500000X2.500000X292.000000*%
%ADD42C,1.800000*%
%ADD43R,2.100000X1.400000*%
%ADD44RoundRect,0.250000X-0.132583X0.503814X-0.503814X0.132583X0.132583X-0.503814X0.503814X-0.132583X0*%
%ADD45RoundRect,0.150000X-0.587500X-0.150000X0.587500X-0.150000X0.587500X0.150000X-0.587500X0.150000X0*%
%ADD46C,1.600000*%
%ADD47RoundRect,0.250000X-0.262500X-0.450000X0.262500X-0.450000X0.262500X0.450000X-0.262500X0.450000X0*%
%ADD48RoundRect,0.150000X0.587500X0.150000X-0.587500X0.150000X-0.587500X-0.150000X0.587500X-0.150000X0*%
%ADD49R,1.500000X1.000000*%
%ADD50R,1.700000X1.700000*%
%ADD51O,1.700000X1.700000*%
G04 APERTURE END LIST*
D10*
X138844819Y-95891904D02*
X139654342Y-95891904D01*
X139654342Y-95891904D02*
X139749580Y-95844285D01*
X139749580Y-95844285D02*
X139797200Y-95796666D01*
X139797200Y-95796666D02*
X139844819Y-95701428D01*
X139844819Y-95701428D02*
X139844819Y-95510952D01*
X139844819Y-95510952D02*
X139797200Y-95415714D01*
X139797200Y-95415714D02*
X139749580Y-95368095D01*
X139749580Y-95368095D02*
X139654342Y-95320476D01*
X139654342Y-95320476D02*
X138844819Y-95320476D01*
X138940057Y-94891904D02*
X138892438Y-94844285D01*
X138892438Y-94844285D02*
X138844819Y-94749047D01*
X138844819Y-94749047D02*
X138844819Y-94510952D01*
X138844819Y-94510952D02*
X138892438Y-94415714D01*
X138892438Y-94415714D02*
X138940057Y-94368095D01*
X138940057Y-94368095D02*
X139035295Y-94320476D01*
X139035295Y-94320476D02*
X139130533Y-94320476D01*
X139130533Y-94320476D02*
X139273390Y-94368095D01*
X139273390Y-94368095D02*
X139844819Y-94939523D01*
X139844819Y-94939523D02*
X139844819Y-94320476D01*
X178366666Y-96754819D02*
X178366666Y-97469104D01*
X178366666Y-97469104D02*
X178319047Y-97611961D01*
X178319047Y-97611961D02*
X178223809Y-97707200D01*
X178223809Y-97707200D02*
X178080952Y-97754819D01*
X178080952Y-97754819D02*
X177985714Y-97754819D01*
X178747619Y-96754819D02*
X179414285Y-96754819D01*
X179414285Y-96754819D02*
X178985714Y-97754819D01*
X120866666Y-96754819D02*
X120866666Y-97469104D01*
X120866666Y-97469104D02*
X120819047Y-97611961D01*
X120819047Y-97611961D02*
X120723809Y-97707200D01*
X120723809Y-97707200D02*
X120580952Y-97754819D01*
X120580952Y-97754819D02*
X120485714Y-97754819D01*
X121771428Y-97088152D02*
X121771428Y-97754819D01*
X121533333Y-96707200D02*
X121295238Y-97421485D01*
X121295238Y-97421485D02*
X121914285Y-97421485D01*
X168349798Y-121678796D02*
X167844722Y-122183872D01*
X167844722Y-122183872D02*
X167710035Y-122251216D01*
X167710035Y-122251216D02*
X167575348Y-122251216D01*
X167575348Y-122251216D02*
X167440661Y-122183872D01*
X167440661Y-122183872D02*
X167373317Y-122116529D01*
X168585501Y-122049185D02*
X168652844Y-122049185D01*
X168652844Y-122049185D02*
X168753859Y-122082857D01*
X168753859Y-122082857D02*
X168922218Y-122251216D01*
X168922218Y-122251216D02*
X168955890Y-122352231D01*
X168955890Y-122352231D02*
X168955890Y-122419575D01*
X168955890Y-122419575D02*
X168922218Y-122520590D01*
X168922218Y-122520590D02*
X168854875Y-122587933D01*
X168854875Y-122587933D02*
X168720188Y-122655277D01*
X168720188Y-122655277D02*
X167912066Y-122655277D01*
X167912066Y-122655277D02*
X168349798Y-123093010D01*
X128149798Y-80478796D02*
X127644722Y-80983872D01*
X127644722Y-80983872D02*
X127510035Y-81051216D01*
X127510035Y-81051216D02*
X127375348Y-81051216D01*
X127375348Y-81051216D02*
X127240661Y-80983872D01*
X127240661Y-80983872D02*
X127173317Y-80916529D01*
X128789562Y-81118559D02*
X128654875Y-80983872D01*
X128654875Y-80983872D02*
X128553859Y-80950201D01*
X128553859Y-80950201D02*
X128486516Y-80950201D01*
X128486516Y-80950201D02*
X128318157Y-80983872D01*
X128318157Y-80983872D02*
X128149798Y-81084888D01*
X128149798Y-81084888D02*
X127880424Y-81354262D01*
X127880424Y-81354262D02*
X127846753Y-81455277D01*
X127846753Y-81455277D02*
X127846753Y-81522620D01*
X127846753Y-81522620D02*
X127880424Y-81623636D01*
X127880424Y-81623636D02*
X128015111Y-81758323D01*
X128015111Y-81758323D02*
X128116127Y-81791994D01*
X128116127Y-81791994D02*
X128183470Y-81791994D01*
X128183470Y-81791994D02*
X128284485Y-81758323D01*
X128284485Y-81758323D02*
X128452844Y-81589964D01*
X128452844Y-81589964D02*
X128486516Y-81488949D01*
X128486516Y-81488949D02*
X128486516Y-81421605D01*
X128486516Y-81421605D02*
X128452844Y-81320590D01*
X128452844Y-81320590D02*
X128318157Y-81185903D01*
X128318157Y-81185903D02*
X128217142Y-81152231D01*
X128217142Y-81152231D02*
X128149798Y-81152231D01*
X128149798Y-81152231D02*
X128048783Y-81185903D01*
X131254819Y-97466666D02*
X130778628Y-97799999D01*
X131254819Y-98038094D02*
X130254819Y-98038094D01*
X130254819Y-98038094D02*
X130254819Y-97657142D01*
X130254819Y-97657142D02*
X130302438Y-97561904D01*
X130302438Y-97561904D02*
X130350057Y-97514285D01*
X130350057Y-97514285D02*
X130445295Y-97466666D01*
X130445295Y-97466666D02*
X130588152Y-97466666D01*
X130588152Y-97466666D02*
X130683390Y-97514285D01*
X130683390Y-97514285D02*
X130731009Y-97561904D01*
X130731009Y-97561904D02*
X130778628Y-97657142D01*
X130778628Y-97657142D02*
X130778628Y-98038094D01*
X130588152Y-96609523D02*
X131254819Y-96609523D01*
X130207200Y-96847618D02*
X130921485Y-97085713D01*
X130921485Y-97085713D02*
X130921485Y-96466666D01*
X142604819Y-101642857D02*
X142128628Y-101976190D01*
X142604819Y-102214285D02*
X141604819Y-102214285D01*
X141604819Y-102214285D02*
X141604819Y-101833333D01*
X141604819Y-101833333D02*
X141652438Y-101738095D01*
X141652438Y-101738095D02*
X141700057Y-101690476D01*
X141700057Y-101690476D02*
X141795295Y-101642857D01*
X141795295Y-101642857D02*
X141938152Y-101642857D01*
X141938152Y-101642857D02*
X142033390Y-101690476D01*
X142033390Y-101690476D02*
X142081009Y-101738095D01*
X142081009Y-101738095D02*
X142128628Y-101833333D01*
X142128628Y-101833333D02*
X142128628Y-102214285D01*
X142604819Y-100690476D02*
X142604819Y-101261904D01*
X142604819Y-100976190D02*
X141604819Y-100976190D01*
X141604819Y-100976190D02*
X141747676Y-101071428D01*
X141747676Y-101071428D02*
X141842914Y-101166666D01*
X141842914Y-101166666D02*
X141890533Y-101261904D01*
X142604819Y-99738095D02*
X142604819Y-100309523D01*
X142604819Y-100023809D02*
X141604819Y-100023809D01*
X141604819Y-100023809D02*
X141747676Y-100119047D01*
X141747676Y-100119047D02*
X141842914Y-100214285D01*
X141842914Y-100214285D02*
X141890533Y-100309523D01*
X145154819Y-113142857D02*
X144678628Y-113476190D01*
X145154819Y-113714285D02*
X144154819Y-113714285D01*
X144154819Y-113714285D02*
X144154819Y-113333333D01*
X144154819Y-113333333D02*
X144202438Y-113238095D01*
X144202438Y-113238095D02*
X144250057Y-113190476D01*
X144250057Y-113190476D02*
X144345295Y-113142857D01*
X144345295Y-113142857D02*
X144488152Y-113142857D01*
X144488152Y-113142857D02*
X144583390Y-113190476D01*
X144583390Y-113190476D02*
X144631009Y-113238095D01*
X144631009Y-113238095D02*
X144678628Y-113333333D01*
X144678628Y-113333333D02*
X144678628Y-113714285D01*
X145154819Y-112190476D02*
X145154819Y-112761904D01*
X145154819Y-112476190D02*
X144154819Y-112476190D01*
X144154819Y-112476190D02*
X144297676Y-112571428D01*
X144297676Y-112571428D02*
X144392914Y-112666666D01*
X144392914Y-112666666D02*
X144440533Y-112761904D01*
X144154819Y-111857142D02*
X144154819Y-111190476D01*
X144154819Y-111190476D02*
X145154819Y-111619047D01*
X147659580Y-111766666D02*
X147707200Y-111814285D01*
X147707200Y-111814285D02*
X147754819Y-111957142D01*
X147754819Y-111957142D02*
X147754819Y-112052380D01*
X147754819Y-112052380D02*
X147707200Y-112195237D01*
X147707200Y-112195237D02*
X147611961Y-112290475D01*
X147611961Y-112290475D02*
X147516723Y-112338094D01*
X147516723Y-112338094D02*
X147326247Y-112385713D01*
X147326247Y-112385713D02*
X147183390Y-112385713D01*
X147183390Y-112385713D02*
X146992914Y-112338094D01*
X146992914Y-112338094D02*
X146897676Y-112290475D01*
X146897676Y-112290475D02*
X146802438Y-112195237D01*
X146802438Y-112195237D02*
X146754819Y-112052380D01*
X146754819Y-112052380D02*
X146754819Y-111957142D01*
X146754819Y-111957142D02*
X146802438Y-111814285D01*
X146802438Y-111814285D02*
X146850057Y-111766666D01*
X146754819Y-111433332D02*
X146754819Y-110814285D01*
X146754819Y-110814285D02*
X147135771Y-111147618D01*
X147135771Y-111147618D02*
X147135771Y-111004761D01*
X147135771Y-111004761D02*
X147183390Y-110909523D01*
X147183390Y-110909523D02*
X147231009Y-110861904D01*
X147231009Y-110861904D02*
X147326247Y-110814285D01*
X147326247Y-110814285D02*
X147564342Y-110814285D01*
X147564342Y-110814285D02*
X147659580Y-110861904D01*
X147659580Y-110861904D02*
X147707200Y-110909523D01*
X147707200Y-110909523D02*
X147754819Y-111004761D01*
X147754819Y-111004761D02*
X147754819Y-111290475D01*
X147754819Y-111290475D02*
X147707200Y-111385713D01*
X147707200Y-111385713D02*
X147659580Y-111433332D01*
X143054819Y-113142857D02*
X142578628Y-113476190D01*
X143054819Y-113714285D02*
X142054819Y-113714285D01*
X142054819Y-113714285D02*
X142054819Y-113333333D01*
X142054819Y-113333333D02*
X142102438Y-113238095D01*
X142102438Y-113238095D02*
X142150057Y-113190476D01*
X142150057Y-113190476D02*
X142245295Y-113142857D01*
X142245295Y-113142857D02*
X142388152Y-113142857D01*
X142388152Y-113142857D02*
X142483390Y-113190476D01*
X142483390Y-113190476D02*
X142531009Y-113238095D01*
X142531009Y-113238095D02*
X142578628Y-113333333D01*
X142578628Y-113333333D02*
X142578628Y-113714285D01*
X143054819Y-112190476D02*
X143054819Y-112761904D01*
X143054819Y-112476190D02*
X142054819Y-112476190D01*
X142054819Y-112476190D02*
X142197676Y-112571428D01*
X142197676Y-112571428D02*
X142292914Y-112666666D01*
X142292914Y-112666666D02*
X142340533Y-112761904D01*
X142054819Y-111333333D02*
X142054819Y-111523809D01*
X142054819Y-111523809D02*
X142102438Y-111619047D01*
X142102438Y-111619047D02*
X142150057Y-111666666D01*
X142150057Y-111666666D02*
X142292914Y-111761904D01*
X142292914Y-111761904D02*
X142483390Y-111809523D01*
X142483390Y-111809523D02*
X142864342Y-111809523D01*
X142864342Y-111809523D02*
X142959580Y-111761904D01*
X142959580Y-111761904D02*
X143007200Y-111714285D01*
X143007200Y-111714285D02*
X143054819Y-111619047D01*
X143054819Y-111619047D02*
X143054819Y-111428571D01*
X143054819Y-111428571D02*
X143007200Y-111333333D01*
X143007200Y-111333333D02*
X142959580Y-111285714D01*
X142959580Y-111285714D02*
X142864342Y-111238095D01*
X142864342Y-111238095D02*
X142626247Y-111238095D01*
X142626247Y-111238095D02*
X142531009Y-111285714D01*
X142531009Y-111285714D02*
X142483390Y-111333333D01*
X142483390Y-111333333D02*
X142435771Y-111428571D01*
X142435771Y-111428571D02*
X142435771Y-111619047D01*
X142435771Y-111619047D02*
X142483390Y-111714285D01*
X142483390Y-111714285D02*
X142531009Y-111761904D01*
X142531009Y-111761904D02*
X142626247Y-111809523D01*
X133866666Y-101754819D02*
X133866666Y-102469104D01*
X133866666Y-102469104D02*
X133819047Y-102611961D01*
X133819047Y-102611961D02*
X133723809Y-102707200D01*
X133723809Y-102707200D02*
X133580952Y-102754819D01*
X133580952Y-102754819D02*
X133485714Y-102754819D01*
X134342857Y-102754819D02*
X134342857Y-101754819D01*
X134342857Y-101754819D02*
X134723809Y-101754819D01*
X134723809Y-101754819D02*
X134819047Y-101802438D01*
X134819047Y-101802438D02*
X134866666Y-101850057D01*
X134866666Y-101850057D02*
X134914285Y-101945295D01*
X134914285Y-101945295D02*
X134914285Y-102088152D01*
X134914285Y-102088152D02*
X134866666Y-102183390D01*
X134866666Y-102183390D02*
X134819047Y-102231009D01*
X134819047Y-102231009D02*
X134723809Y-102278628D01*
X134723809Y-102278628D02*
X134342857Y-102278628D01*
X135295238Y-101850057D02*
X135342857Y-101802438D01*
X135342857Y-101802438D02*
X135438095Y-101754819D01*
X135438095Y-101754819D02*
X135676190Y-101754819D01*
X135676190Y-101754819D02*
X135771428Y-101802438D01*
X135771428Y-101802438D02*
X135819047Y-101850057D01*
X135819047Y-101850057D02*
X135866666Y-101945295D01*
X135866666Y-101945295D02*
X135866666Y-102040533D01*
X135866666Y-102040533D02*
X135819047Y-102183390D01*
X135819047Y-102183390D02*
X135247619Y-102754819D01*
X135247619Y-102754819D02*
X135866666Y-102754819D01*
X162166666Y-83154819D02*
X162166666Y-83869104D01*
X162166666Y-83869104D02*
X162119047Y-84011961D01*
X162119047Y-84011961D02*
X162023809Y-84107200D01*
X162023809Y-84107200D02*
X161880952Y-84154819D01*
X161880952Y-84154819D02*
X161785714Y-84154819D01*
X162642857Y-84154819D02*
X162642857Y-83154819D01*
X162642857Y-83154819D02*
X163023809Y-83154819D01*
X163023809Y-83154819D02*
X163119047Y-83202438D01*
X163119047Y-83202438D02*
X163166666Y-83250057D01*
X163166666Y-83250057D02*
X163214285Y-83345295D01*
X163214285Y-83345295D02*
X163214285Y-83488152D01*
X163214285Y-83488152D02*
X163166666Y-83583390D01*
X163166666Y-83583390D02*
X163119047Y-83631009D01*
X163119047Y-83631009D02*
X163023809Y-83678628D01*
X163023809Y-83678628D02*
X162642857Y-83678628D01*
X164166666Y-84154819D02*
X163595238Y-84154819D01*
X163880952Y-84154819D02*
X163880952Y-83154819D01*
X163880952Y-83154819D02*
X163785714Y-83297676D01*
X163785714Y-83297676D02*
X163690476Y-83392914D01*
X163690476Y-83392914D02*
X163595238Y-83440533D01*
X166449798Y-77878796D02*
X165944722Y-78383872D01*
X165944722Y-78383872D02*
X165810035Y-78451216D01*
X165810035Y-78451216D02*
X165675348Y-78451216D01*
X165675348Y-78451216D02*
X165540661Y-78383872D01*
X165540661Y-78383872D02*
X165473317Y-78316529D01*
X167123233Y-78552231D02*
X166786516Y-78215514D01*
X166786516Y-78215514D02*
X166416127Y-78518559D01*
X166416127Y-78518559D02*
X166483470Y-78518559D01*
X166483470Y-78518559D02*
X166584485Y-78552231D01*
X166584485Y-78552231D02*
X166752844Y-78720590D01*
X166752844Y-78720590D02*
X166786516Y-78821605D01*
X166786516Y-78821605D02*
X166786516Y-78888949D01*
X166786516Y-78888949D02*
X166752844Y-78989964D01*
X166752844Y-78989964D02*
X166584485Y-79158323D01*
X166584485Y-79158323D02*
X166483470Y-79191994D01*
X166483470Y-79191994D02*
X166416127Y-79191994D01*
X166416127Y-79191994D02*
X166315111Y-79158323D01*
X166315111Y-79158323D02*
X166146753Y-78989964D01*
X166146753Y-78989964D02*
X166113081Y-78888949D01*
X166113081Y-78888949D02*
X166113081Y-78821605D01*
X153154819Y-111366666D02*
X152678628Y-111699999D01*
X153154819Y-111938094D02*
X152154819Y-111938094D01*
X152154819Y-111938094D02*
X152154819Y-111557142D01*
X152154819Y-111557142D02*
X152202438Y-111461904D01*
X152202438Y-111461904D02*
X152250057Y-111414285D01*
X152250057Y-111414285D02*
X152345295Y-111366666D01*
X152345295Y-111366666D02*
X152488152Y-111366666D01*
X152488152Y-111366666D02*
X152583390Y-111414285D01*
X152583390Y-111414285D02*
X152631009Y-111461904D01*
X152631009Y-111461904D02*
X152678628Y-111557142D01*
X152678628Y-111557142D02*
X152678628Y-111938094D01*
X152154819Y-111033332D02*
X152154819Y-110414285D01*
X152154819Y-110414285D02*
X152535771Y-110747618D01*
X152535771Y-110747618D02*
X152535771Y-110604761D01*
X152535771Y-110604761D02*
X152583390Y-110509523D01*
X152583390Y-110509523D02*
X152631009Y-110461904D01*
X152631009Y-110461904D02*
X152726247Y-110414285D01*
X152726247Y-110414285D02*
X152964342Y-110414285D01*
X152964342Y-110414285D02*
X153059580Y-110461904D01*
X153059580Y-110461904D02*
X153107200Y-110509523D01*
X153107200Y-110509523D02*
X153154819Y-110604761D01*
X153154819Y-110604761D02*
X153154819Y-110890475D01*
X153154819Y-110890475D02*
X153107200Y-110985713D01*
X153107200Y-110985713D02*
X153059580Y-111033332D01*
X168143817Y-115620480D02*
X168244832Y-115048061D01*
X167739756Y-115216419D02*
X168446863Y-114509313D01*
X168446863Y-114509313D02*
X168716237Y-114778687D01*
X168716237Y-114778687D02*
X168749909Y-114879702D01*
X168749909Y-114879702D02*
X168749909Y-114947045D01*
X168749909Y-114947045D02*
X168716237Y-115048061D01*
X168716237Y-115048061D02*
X168615222Y-115149076D01*
X168615222Y-115149076D02*
X168514206Y-115182748D01*
X168514206Y-115182748D02*
X168446863Y-115182748D01*
X168446863Y-115182748D02*
X168345848Y-115149076D01*
X168345848Y-115149076D02*
X168076474Y-114879702D01*
X169052954Y-115250091D02*
X169120298Y-115250091D01*
X169120298Y-115250091D02*
X169221313Y-115283763D01*
X169221313Y-115283763D02*
X169389672Y-115452122D01*
X169389672Y-115452122D02*
X169423344Y-115553137D01*
X169423344Y-115553137D02*
X169423344Y-115620480D01*
X169423344Y-115620480D02*
X169389672Y-115721496D01*
X169389672Y-115721496D02*
X169322328Y-115788839D01*
X169322328Y-115788839D02*
X169187641Y-115856183D01*
X169187641Y-115856183D02*
X168379519Y-115856183D01*
X168379519Y-115856183D02*
X168817252Y-116293915D01*
X174938095Y-103654819D02*
X174938095Y-102654819D01*
X174938095Y-103131009D02*
X175509523Y-103131009D01*
X175509523Y-103654819D02*
X175509523Y-102654819D01*
X175938095Y-102750057D02*
X175985714Y-102702438D01*
X175985714Y-102702438D02*
X176080952Y-102654819D01*
X176080952Y-102654819D02*
X176319047Y-102654819D01*
X176319047Y-102654819D02*
X176414285Y-102702438D01*
X176414285Y-102702438D02*
X176461904Y-102750057D01*
X176461904Y-102750057D02*
X176509523Y-102845295D01*
X176509523Y-102845295D02*
X176509523Y-102940533D01*
X176509523Y-102940533D02*
X176461904Y-103083390D01*
X176461904Y-103083390D02*
X175890476Y-103654819D01*
X175890476Y-103654819D02*
X176509523Y-103654819D01*
X136957142Y-103754819D02*
X136623809Y-103278628D01*
X136385714Y-103754819D02*
X136385714Y-102754819D01*
X136385714Y-102754819D02*
X136766666Y-102754819D01*
X136766666Y-102754819D02*
X136861904Y-102802438D01*
X136861904Y-102802438D02*
X136909523Y-102850057D01*
X136909523Y-102850057D02*
X136957142Y-102945295D01*
X136957142Y-102945295D02*
X136957142Y-103088152D01*
X136957142Y-103088152D02*
X136909523Y-103183390D01*
X136909523Y-103183390D02*
X136861904Y-103231009D01*
X136861904Y-103231009D02*
X136766666Y-103278628D01*
X136766666Y-103278628D02*
X136385714Y-103278628D01*
X137909523Y-103754819D02*
X137338095Y-103754819D01*
X137623809Y-103754819D02*
X137623809Y-102754819D01*
X137623809Y-102754819D02*
X137528571Y-102897676D01*
X137528571Y-102897676D02*
X137433333Y-102992914D01*
X137433333Y-102992914D02*
X137338095Y-103040533D01*
X138242857Y-102754819D02*
X138861904Y-102754819D01*
X138861904Y-102754819D02*
X138528571Y-103135771D01*
X138528571Y-103135771D02*
X138671428Y-103135771D01*
X138671428Y-103135771D02*
X138766666Y-103183390D01*
X138766666Y-103183390D02*
X138814285Y-103231009D01*
X138814285Y-103231009D02*
X138861904Y-103326247D01*
X138861904Y-103326247D02*
X138861904Y-103564342D01*
X138861904Y-103564342D02*
X138814285Y-103659580D01*
X138814285Y-103659580D02*
X138766666Y-103707200D01*
X138766666Y-103707200D02*
X138671428Y-103754819D01*
X138671428Y-103754819D02*
X138385714Y-103754819D01*
X138385714Y-103754819D02*
X138290476Y-103707200D01*
X138290476Y-103707200D02*
X138242857Y-103659580D01*
X165704819Y-98338094D02*
X164704819Y-98338094D01*
X164704819Y-98338094D02*
X164704819Y-98099999D01*
X164704819Y-98099999D02*
X164752438Y-97957142D01*
X164752438Y-97957142D02*
X164847676Y-97861904D01*
X164847676Y-97861904D02*
X164942914Y-97814285D01*
X164942914Y-97814285D02*
X165133390Y-97766666D01*
X165133390Y-97766666D02*
X165276247Y-97766666D01*
X165276247Y-97766666D02*
X165466723Y-97814285D01*
X165466723Y-97814285D02*
X165561961Y-97861904D01*
X165561961Y-97861904D02*
X165657200Y-97957142D01*
X165657200Y-97957142D02*
X165704819Y-98099999D01*
X165704819Y-98099999D02*
X165704819Y-98338094D01*
X164704819Y-97433332D02*
X164704819Y-96814285D01*
X164704819Y-96814285D02*
X165085771Y-97147618D01*
X165085771Y-97147618D02*
X165085771Y-97004761D01*
X165085771Y-97004761D02*
X165133390Y-96909523D01*
X165133390Y-96909523D02*
X165181009Y-96861904D01*
X165181009Y-96861904D02*
X165276247Y-96814285D01*
X165276247Y-96814285D02*
X165514342Y-96814285D01*
X165514342Y-96814285D02*
X165609580Y-96861904D01*
X165609580Y-96861904D02*
X165657200Y-96909523D01*
X165657200Y-96909523D02*
X165704819Y-97004761D01*
X165704819Y-97004761D02*
X165704819Y-97290475D01*
X165704819Y-97290475D02*
X165657200Y-97385713D01*
X165657200Y-97385713D02*
X165609580Y-97433332D01*
X169854819Y-98066666D02*
X169378628Y-98399999D01*
X169854819Y-98638094D02*
X168854819Y-98638094D01*
X168854819Y-98638094D02*
X168854819Y-98257142D01*
X168854819Y-98257142D02*
X168902438Y-98161904D01*
X168902438Y-98161904D02*
X168950057Y-98114285D01*
X168950057Y-98114285D02*
X169045295Y-98066666D01*
X169045295Y-98066666D02*
X169188152Y-98066666D01*
X169188152Y-98066666D02*
X169283390Y-98114285D01*
X169283390Y-98114285D02*
X169331009Y-98161904D01*
X169331009Y-98161904D02*
X169378628Y-98257142D01*
X169378628Y-98257142D02*
X169378628Y-98638094D01*
X169854819Y-97590475D02*
X169854819Y-97399999D01*
X169854819Y-97399999D02*
X169807200Y-97304761D01*
X169807200Y-97304761D02*
X169759580Y-97257142D01*
X169759580Y-97257142D02*
X169616723Y-97161904D01*
X169616723Y-97161904D02*
X169426247Y-97114285D01*
X169426247Y-97114285D02*
X169045295Y-97114285D01*
X169045295Y-97114285D02*
X168950057Y-97161904D01*
X168950057Y-97161904D02*
X168902438Y-97209523D01*
X168902438Y-97209523D02*
X168854819Y-97304761D01*
X168854819Y-97304761D02*
X168854819Y-97495237D01*
X168854819Y-97495237D02*
X168902438Y-97590475D01*
X168902438Y-97590475D02*
X168950057Y-97638094D01*
X168950057Y-97638094D02*
X169045295Y-97685713D01*
X169045295Y-97685713D02*
X169283390Y-97685713D01*
X169283390Y-97685713D02*
X169378628Y-97638094D01*
X169378628Y-97638094D02*
X169426247Y-97590475D01*
X169426247Y-97590475D02*
X169473866Y-97495237D01*
X169473866Y-97495237D02*
X169473866Y-97304761D01*
X169473866Y-97304761D02*
X169426247Y-97209523D01*
X169426247Y-97209523D02*
X169378628Y-97161904D01*
X169378628Y-97161904D02*
X169283390Y-97114285D01*
X146038095Y-116554819D02*
X146038095Y-115554819D01*
X146038095Y-116031009D02*
X146609523Y-116031009D01*
X146609523Y-116554819D02*
X146609523Y-115554819D01*
X146990476Y-115554819D02*
X147609523Y-115554819D01*
X147609523Y-115554819D02*
X147276190Y-115935771D01*
X147276190Y-115935771D02*
X147419047Y-115935771D01*
X147419047Y-115935771D02*
X147514285Y-115983390D01*
X147514285Y-115983390D02*
X147561904Y-116031009D01*
X147561904Y-116031009D02*
X147609523Y-116126247D01*
X147609523Y-116126247D02*
X147609523Y-116364342D01*
X147609523Y-116364342D02*
X147561904Y-116459580D01*
X147561904Y-116459580D02*
X147514285Y-116507200D01*
X147514285Y-116507200D02*
X147419047Y-116554819D01*
X147419047Y-116554819D02*
X147133333Y-116554819D01*
X147133333Y-116554819D02*
X147038095Y-116507200D01*
X147038095Y-116507200D02*
X146990476Y-116459580D01*
X170618691Y-118095354D02*
X170719706Y-117522935D01*
X170214630Y-117691293D02*
X170921737Y-116984187D01*
X170921737Y-116984187D02*
X171191111Y-117253561D01*
X171191111Y-117253561D02*
X171224783Y-117354576D01*
X171224783Y-117354576D02*
X171224783Y-117421919D01*
X171224783Y-117421919D02*
X171191111Y-117522935D01*
X171191111Y-117522935D02*
X171090096Y-117623950D01*
X171090096Y-117623950D02*
X170989080Y-117657622D01*
X170989080Y-117657622D02*
X170921737Y-117657622D01*
X170921737Y-117657622D02*
X170820722Y-117623950D01*
X170820722Y-117623950D02*
X170551348Y-117354576D01*
X171292126Y-118768789D02*
X170888065Y-118364728D01*
X171090096Y-118566759D02*
X171797202Y-117859652D01*
X171797202Y-117859652D02*
X171628844Y-117893324D01*
X171628844Y-117893324D02*
X171494157Y-117893324D01*
X171494157Y-117893324D02*
X171393141Y-117859652D01*
X145654819Y-105566666D02*
X145654819Y-106042856D01*
X145654819Y-106042856D02*
X144654819Y-106042856D01*
X145654819Y-104709523D02*
X145654819Y-105280951D01*
X145654819Y-104995237D02*
X144654819Y-104995237D01*
X144654819Y-104995237D02*
X144797676Y-105090475D01*
X144797676Y-105090475D02*
X144892914Y-105185713D01*
X144892914Y-105185713D02*
X144940533Y-105280951D01*
X157854819Y-113142857D02*
X157378628Y-113476190D01*
X157854819Y-113714285D02*
X156854819Y-113714285D01*
X156854819Y-113714285D02*
X156854819Y-113333333D01*
X156854819Y-113333333D02*
X156902438Y-113238095D01*
X156902438Y-113238095D02*
X156950057Y-113190476D01*
X156950057Y-113190476D02*
X157045295Y-113142857D01*
X157045295Y-113142857D02*
X157188152Y-113142857D01*
X157188152Y-113142857D02*
X157283390Y-113190476D01*
X157283390Y-113190476D02*
X157331009Y-113238095D01*
X157331009Y-113238095D02*
X157378628Y-113333333D01*
X157378628Y-113333333D02*
X157378628Y-113714285D01*
X157854819Y-112190476D02*
X157854819Y-112761904D01*
X157854819Y-112476190D02*
X156854819Y-112476190D01*
X156854819Y-112476190D02*
X156997676Y-112571428D01*
X156997676Y-112571428D02*
X157092914Y-112666666D01*
X157092914Y-112666666D02*
X157140533Y-112761904D01*
X156950057Y-111809523D02*
X156902438Y-111761904D01*
X156902438Y-111761904D02*
X156854819Y-111666666D01*
X156854819Y-111666666D02*
X156854819Y-111428571D01*
X156854819Y-111428571D02*
X156902438Y-111333333D01*
X156902438Y-111333333D02*
X156950057Y-111285714D01*
X156950057Y-111285714D02*
X157045295Y-111238095D01*
X157045295Y-111238095D02*
X157140533Y-111238095D01*
X157140533Y-111238095D02*
X157283390Y-111285714D01*
X157283390Y-111285714D02*
X157854819Y-111857142D01*
X157854819Y-111857142D02*
X157854819Y-111238095D01*
X144333333Y-100539580D02*
X144285714Y-100587200D01*
X144285714Y-100587200D02*
X144142857Y-100634819D01*
X144142857Y-100634819D02*
X144047619Y-100634819D01*
X144047619Y-100634819D02*
X143904762Y-100587200D01*
X143904762Y-100587200D02*
X143809524Y-100491961D01*
X143809524Y-100491961D02*
X143761905Y-100396723D01*
X143761905Y-100396723D02*
X143714286Y-100206247D01*
X143714286Y-100206247D02*
X143714286Y-100063390D01*
X143714286Y-100063390D02*
X143761905Y-99872914D01*
X143761905Y-99872914D02*
X143809524Y-99777676D01*
X143809524Y-99777676D02*
X143904762Y-99682438D01*
X143904762Y-99682438D02*
X144047619Y-99634819D01*
X144047619Y-99634819D02*
X144142857Y-99634819D01*
X144142857Y-99634819D02*
X144285714Y-99682438D01*
X144285714Y-99682438D02*
X144333333Y-99730057D01*
X145238095Y-99634819D02*
X144761905Y-99634819D01*
X144761905Y-99634819D02*
X144714286Y-100111009D01*
X144714286Y-100111009D02*
X144761905Y-100063390D01*
X144761905Y-100063390D02*
X144857143Y-100015771D01*
X144857143Y-100015771D02*
X145095238Y-100015771D01*
X145095238Y-100015771D02*
X145190476Y-100063390D01*
X145190476Y-100063390D02*
X145238095Y-100111009D01*
X145238095Y-100111009D02*
X145285714Y-100206247D01*
X145285714Y-100206247D02*
X145285714Y-100444342D01*
X145285714Y-100444342D02*
X145238095Y-100539580D01*
X145238095Y-100539580D02*
X145190476Y-100587200D01*
X145190476Y-100587200D02*
X145095238Y-100634819D01*
X145095238Y-100634819D02*
X144857143Y-100634819D01*
X144857143Y-100634819D02*
X144761905Y-100587200D01*
X144761905Y-100587200D02*
X144714286Y-100539580D01*
X158204819Y-101242857D02*
X157728628Y-101576190D01*
X158204819Y-101814285D02*
X157204819Y-101814285D01*
X157204819Y-101814285D02*
X157204819Y-101433333D01*
X157204819Y-101433333D02*
X157252438Y-101338095D01*
X157252438Y-101338095D02*
X157300057Y-101290476D01*
X157300057Y-101290476D02*
X157395295Y-101242857D01*
X157395295Y-101242857D02*
X157538152Y-101242857D01*
X157538152Y-101242857D02*
X157633390Y-101290476D01*
X157633390Y-101290476D02*
X157681009Y-101338095D01*
X157681009Y-101338095D02*
X157728628Y-101433333D01*
X157728628Y-101433333D02*
X157728628Y-101814285D01*
X158204819Y-100290476D02*
X158204819Y-100861904D01*
X158204819Y-100576190D02*
X157204819Y-100576190D01*
X157204819Y-100576190D02*
X157347676Y-100671428D01*
X157347676Y-100671428D02*
X157442914Y-100766666D01*
X157442914Y-100766666D02*
X157490533Y-100861904D01*
X157538152Y-99433333D02*
X158204819Y-99433333D01*
X157157200Y-99671428D02*
X157871485Y-99909523D01*
X157871485Y-99909523D02*
X157871485Y-99290476D01*
X133861905Y-98354819D02*
X133861905Y-97354819D01*
X133861905Y-97354819D02*
X134100000Y-97354819D01*
X134100000Y-97354819D02*
X134242857Y-97402438D01*
X134242857Y-97402438D02*
X134338095Y-97497676D01*
X134338095Y-97497676D02*
X134385714Y-97592914D01*
X134385714Y-97592914D02*
X134433333Y-97783390D01*
X134433333Y-97783390D02*
X134433333Y-97926247D01*
X134433333Y-97926247D02*
X134385714Y-98116723D01*
X134385714Y-98116723D02*
X134338095Y-98211961D01*
X134338095Y-98211961D02*
X134242857Y-98307200D01*
X134242857Y-98307200D02*
X134100000Y-98354819D01*
X134100000Y-98354819D02*
X133861905Y-98354819D01*
X135385714Y-98354819D02*
X134814286Y-98354819D01*
X135100000Y-98354819D02*
X135100000Y-97354819D01*
X135100000Y-97354819D02*
X135004762Y-97497676D01*
X135004762Y-97497676D02*
X134909524Y-97592914D01*
X134909524Y-97592914D02*
X134814286Y-97640533D01*
X149833333Y-103109580D02*
X149785714Y-103157200D01*
X149785714Y-103157200D02*
X149642857Y-103204819D01*
X149642857Y-103204819D02*
X149547619Y-103204819D01*
X149547619Y-103204819D02*
X149404762Y-103157200D01*
X149404762Y-103157200D02*
X149309524Y-103061961D01*
X149309524Y-103061961D02*
X149261905Y-102966723D01*
X149261905Y-102966723D02*
X149214286Y-102776247D01*
X149214286Y-102776247D02*
X149214286Y-102633390D01*
X149214286Y-102633390D02*
X149261905Y-102442914D01*
X149261905Y-102442914D02*
X149309524Y-102347676D01*
X149309524Y-102347676D02*
X149404762Y-102252438D01*
X149404762Y-102252438D02*
X149547619Y-102204819D01*
X149547619Y-102204819D02*
X149642857Y-102204819D01*
X149642857Y-102204819D02*
X149785714Y-102252438D01*
X149785714Y-102252438D02*
X149833333Y-102300057D01*
X150690476Y-102538152D02*
X150690476Y-103204819D01*
X150452381Y-102157200D02*
X150214286Y-102871485D01*
X150214286Y-102871485D02*
X150833333Y-102871485D01*
X164088253Y-110844724D02*
X164024205Y-110865534D01*
X164024205Y-110865534D02*
X163875300Y-110843107D01*
X163875300Y-110843107D02*
X163790442Y-110799870D01*
X163790442Y-110799870D02*
X163684774Y-110692585D01*
X163684774Y-110692585D02*
X163643153Y-110564490D01*
X163643153Y-110564490D02*
X163643962Y-110458014D01*
X163643962Y-110458014D02*
X163688007Y-110266680D01*
X163688007Y-110266680D02*
X163752863Y-110139393D01*
X163752863Y-110139393D02*
X163881766Y-109991296D01*
X163881766Y-109991296D02*
X163967432Y-109928057D01*
X163967432Y-109928057D02*
X164095527Y-109886436D01*
X164095527Y-109886436D02*
X164244433Y-109908863D01*
X164244433Y-109908863D02*
X164329290Y-109952100D01*
X164329290Y-109952100D02*
X164434958Y-110059385D01*
X164434958Y-110059385D02*
X164455769Y-110123433D01*
X164893593Y-111361953D02*
X164384446Y-111102530D01*
X164639020Y-111232242D02*
X165093010Y-110341235D01*
X165093010Y-110341235D02*
X164943297Y-110425285D01*
X164943297Y-110425285D02*
X164815202Y-110466905D01*
X164815202Y-110466905D02*
X164708725Y-110466097D01*
X171938095Y-90754819D02*
X172509523Y-90754819D01*
X172223809Y-91754819D02*
X172223809Y-90754819D01*
X172842857Y-91754819D02*
X172842857Y-90754819D01*
X172842857Y-90754819D02*
X173223809Y-90754819D01*
X173223809Y-90754819D02*
X173319047Y-90802438D01*
X173319047Y-90802438D02*
X173366666Y-90850057D01*
X173366666Y-90850057D02*
X173414285Y-90945295D01*
X173414285Y-90945295D02*
X173414285Y-91088152D01*
X173414285Y-91088152D02*
X173366666Y-91183390D01*
X173366666Y-91183390D02*
X173319047Y-91231009D01*
X173319047Y-91231009D02*
X173223809Y-91278628D01*
X173223809Y-91278628D02*
X172842857Y-91278628D01*
X173747619Y-90754819D02*
X174366666Y-90754819D01*
X174366666Y-90754819D02*
X174033333Y-91135771D01*
X174033333Y-91135771D02*
X174176190Y-91135771D01*
X174176190Y-91135771D02*
X174271428Y-91183390D01*
X174271428Y-91183390D02*
X174319047Y-91231009D01*
X174319047Y-91231009D02*
X174366666Y-91326247D01*
X174366666Y-91326247D02*
X174366666Y-91564342D01*
X174366666Y-91564342D02*
X174319047Y-91659580D01*
X174319047Y-91659580D02*
X174271428Y-91707200D01*
X174271428Y-91707200D02*
X174176190Y-91754819D01*
X174176190Y-91754819D02*
X173890476Y-91754819D01*
X173890476Y-91754819D02*
X173795238Y-91707200D01*
X173795238Y-91707200D02*
X173747619Y-91659580D01*
X149554819Y-111361904D02*
X150364342Y-111361904D01*
X150364342Y-111361904D02*
X150459580Y-111314285D01*
X150459580Y-111314285D02*
X150507200Y-111266666D01*
X150507200Y-111266666D02*
X150554819Y-111171428D01*
X150554819Y-111171428D02*
X150554819Y-110980952D01*
X150554819Y-110980952D02*
X150507200Y-110885714D01*
X150507200Y-110885714D02*
X150459580Y-110838095D01*
X150459580Y-110838095D02*
X150364342Y-110790476D01*
X150364342Y-110790476D02*
X149554819Y-110790476D01*
X150554819Y-109790476D02*
X150554819Y-110361904D01*
X150554819Y-110076190D02*
X149554819Y-110076190D01*
X149554819Y-110076190D02*
X149697676Y-110171428D01*
X149697676Y-110171428D02*
X149792914Y-110266666D01*
X149792914Y-110266666D02*
X149840533Y-110361904D01*
X121880615Y-105286710D02*
X121218340Y-105554286D01*
X121218340Y-105554286D02*
X121068047Y-105563649D01*
X121068047Y-105563649D02*
X120944067Y-105511023D01*
X120944067Y-105511023D02*
X120846400Y-105396407D01*
X120846400Y-105396407D02*
X120810723Y-105308103D01*
X121328037Y-106588500D02*
X121113976Y-106058681D01*
X121221007Y-106323591D02*
X122148191Y-105948984D01*
X122148191Y-105948984D02*
X121980059Y-105914196D01*
X121980059Y-105914196D02*
X121856079Y-105861570D01*
X121856079Y-105861570D02*
X121776251Y-105791105D01*
X167654819Y-104309523D02*
X166654819Y-104309523D01*
X166654819Y-104309523D02*
X167369104Y-103976190D01*
X167369104Y-103976190D02*
X166654819Y-103642857D01*
X166654819Y-103642857D02*
X167654819Y-103642857D01*
X166750057Y-103214285D02*
X166702438Y-103166666D01*
X166702438Y-103166666D02*
X166654819Y-103071428D01*
X166654819Y-103071428D02*
X166654819Y-102833333D01*
X166654819Y-102833333D02*
X166702438Y-102738095D01*
X166702438Y-102738095D02*
X166750057Y-102690476D01*
X166750057Y-102690476D02*
X166845295Y-102642857D01*
X166845295Y-102642857D02*
X166940533Y-102642857D01*
X166940533Y-102642857D02*
X167083390Y-102690476D01*
X167083390Y-102690476D02*
X167654819Y-103261904D01*
X167654819Y-103261904D02*
X167654819Y-102642857D01*
X155954819Y-113142857D02*
X155478628Y-113476190D01*
X155954819Y-113714285D02*
X154954819Y-113714285D01*
X154954819Y-113714285D02*
X154954819Y-113333333D01*
X154954819Y-113333333D02*
X155002438Y-113238095D01*
X155002438Y-113238095D02*
X155050057Y-113190476D01*
X155050057Y-113190476D02*
X155145295Y-113142857D01*
X155145295Y-113142857D02*
X155288152Y-113142857D01*
X155288152Y-113142857D02*
X155383390Y-113190476D01*
X155383390Y-113190476D02*
X155431009Y-113238095D01*
X155431009Y-113238095D02*
X155478628Y-113333333D01*
X155478628Y-113333333D02*
X155478628Y-113714285D01*
X155954819Y-112190476D02*
X155954819Y-112761904D01*
X155954819Y-112476190D02*
X154954819Y-112476190D01*
X154954819Y-112476190D02*
X155097676Y-112571428D01*
X155097676Y-112571428D02*
X155192914Y-112666666D01*
X155192914Y-112666666D02*
X155240533Y-112761904D01*
X154954819Y-111571428D02*
X154954819Y-111476190D01*
X154954819Y-111476190D02*
X155002438Y-111380952D01*
X155002438Y-111380952D02*
X155050057Y-111333333D01*
X155050057Y-111333333D02*
X155145295Y-111285714D01*
X155145295Y-111285714D02*
X155335771Y-111238095D01*
X155335771Y-111238095D02*
X155573866Y-111238095D01*
X155573866Y-111238095D02*
X155764342Y-111285714D01*
X155764342Y-111285714D02*
X155859580Y-111333333D01*
X155859580Y-111333333D02*
X155907200Y-111380952D01*
X155907200Y-111380952D02*
X155954819Y-111476190D01*
X155954819Y-111476190D02*
X155954819Y-111571428D01*
X155954819Y-111571428D02*
X155907200Y-111666666D01*
X155907200Y-111666666D02*
X155859580Y-111714285D01*
X155859580Y-111714285D02*
X155764342Y-111761904D01*
X155764342Y-111761904D02*
X155573866Y-111809523D01*
X155573866Y-111809523D02*
X155335771Y-111809523D01*
X155335771Y-111809523D02*
X155145295Y-111761904D01*
X155145295Y-111761904D02*
X155050057Y-111714285D01*
X155050057Y-111714285D02*
X155002438Y-111666666D01*
X155002438Y-111666666D02*
X154954819Y-111571428D01*
X131104819Y-100866666D02*
X130628628Y-101199999D01*
X131104819Y-101438094D02*
X130104819Y-101438094D01*
X130104819Y-101438094D02*
X130104819Y-101057142D01*
X130104819Y-101057142D02*
X130152438Y-100961904D01*
X130152438Y-100961904D02*
X130200057Y-100914285D01*
X130200057Y-100914285D02*
X130295295Y-100866666D01*
X130295295Y-100866666D02*
X130438152Y-100866666D01*
X130438152Y-100866666D02*
X130533390Y-100914285D01*
X130533390Y-100914285D02*
X130581009Y-100961904D01*
X130581009Y-100961904D02*
X130628628Y-101057142D01*
X130628628Y-101057142D02*
X130628628Y-101438094D01*
X130104819Y-99961904D02*
X130104819Y-100438094D01*
X130104819Y-100438094D02*
X130581009Y-100485713D01*
X130581009Y-100485713D02*
X130533390Y-100438094D01*
X130533390Y-100438094D02*
X130485771Y-100342856D01*
X130485771Y-100342856D02*
X130485771Y-100104761D01*
X130485771Y-100104761D02*
X130533390Y-100009523D01*
X130533390Y-100009523D02*
X130581009Y-99961904D01*
X130581009Y-99961904D02*
X130676247Y-99914285D01*
X130676247Y-99914285D02*
X130914342Y-99914285D01*
X130914342Y-99914285D02*
X131009580Y-99961904D01*
X131009580Y-99961904D02*
X131057200Y-100009523D01*
X131057200Y-100009523D02*
X131104819Y-100104761D01*
X131104819Y-100104761D02*
X131104819Y-100342856D01*
X131104819Y-100342856D02*
X131057200Y-100438094D01*
X131057200Y-100438094D02*
X131009580Y-100485713D01*
X166366667Y-96707200D02*
X166509524Y-96754819D01*
X166509524Y-96754819D02*
X166747619Y-96754819D01*
X166747619Y-96754819D02*
X166842857Y-96707200D01*
X166842857Y-96707200D02*
X166890476Y-96659580D01*
X166890476Y-96659580D02*
X166938095Y-96564342D01*
X166938095Y-96564342D02*
X166938095Y-96469104D01*
X166938095Y-96469104D02*
X166890476Y-96373866D01*
X166890476Y-96373866D02*
X166842857Y-96326247D01*
X166842857Y-96326247D02*
X166747619Y-96278628D01*
X166747619Y-96278628D02*
X166557143Y-96231009D01*
X166557143Y-96231009D02*
X166461905Y-96183390D01*
X166461905Y-96183390D02*
X166414286Y-96135771D01*
X166414286Y-96135771D02*
X166366667Y-96040533D01*
X166366667Y-96040533D02*
X166366667Y-95945295D01*
X166366667Y-95945295D02*
X166414286Y-95850057D01*
X166414286Y-95850057D02*
X166461905Y-95802438D01*
X166461905Y-95802438D02*
X166557143Y-95754819D01*
X166557143Y-95754819D02*
X166795238Y-95754819D01*
X166795238Y-95754819D02*
X166938095Y-95802438D01*
X167271429Y-95754819D02*
X167509524Y-96754819D01*
X167509524Y-96754819D02*
X167700000Y-96040533D01*
X167700000Y-96040533D02*
X167890476Y-96754819D01*
X167890476Y-96754819D02*
X168128572Y-95754819D01*
X169033333Y-96754819D02*
X168461905Y-96754819D01*
X168747619Y-96754819D02*
X168747619Y-95754819D01*
X168747619Y-95754819D02*
X168652381Y-95897676D01*
X168652381Y-95897676D02*
X168557143Y-95992914D01*
X168557143Y-95992914D02*
X168461905Y-96040533D01*
X135785772Y-87579152D02*
X135213353Y-87478137D01*
X135381711Y-87983213D02*
X134674605Y-87276106D01*
X134674605Y-87276106D02*
X134943979Y-87006732D01*
X134943979Y-87006732D02*
X135044994Y-86973060D01*
X135044994Y-86973060D02*
X135112337Y-86973060D01*
X135112337Y-86973060D02*
X135213353Y-87006732D01*
X135213353Y-87006732D02*
X135314368Y-87107747D01*
X135314368Y-87107747D02*
X135348040Y-87208763D01*
X135348040Y-87208763D02*
X135348040Y-87276106D01*
X135348040Y-87276106D02*
X135314368Y-87377121D01*
X135314368Y-87377121D02*
X135044994Y-87646495D01*
X135314368Y-86636343D02*
X135785772Y-86164938D01*
X135785772Y-86164938D02*
X136189833Y-87175091D01*
X164004761Y-103150057D02*
X163909523Y-103102438D01*
X163909523Y-103102438D02*
X163814285Y-103007200D01*
X163814285Y-103007200D02*
X163671428Y-102864342D01*
X163671428Y-102864342D02*
X163576190Y-102816723D01*
X163576190Y-102816723D02*
X163480952Y-102816723D01*
X163528571Y-103054819D02*
X163433333Y-103007200D01*
X163433333Y-103007200D02*
X163338095Y-102911961D01*
X163338095Y-102911961D02*
X163290476Y-102721485D01*
X163290476Y-102721485D02*
X163290476Y-102388152D01*
X163290476Y-102388152D02*
X163338095Y-102197676D01*
X163338095Y-102197676D02*
X163433333Y-102102438D01*
X163433333Y-102102438D02*
X163528571Y-102054819D01*
X163528571Y-102054819D02*
X163719047Y-102054819D01*
X163719047Y-102054819D02*
X163814285Y-102102438D01*
X163814285Y-102102438D02*
X163909523Y-102197676D01*
X163909523Y-102197676D02*
X163957142Y-102388152D01*
X163957142Y-102388152D02*
X163957142Y-102721485D01*
X163957142Y-102721485D02*
X163909523Y-102911961D01*
X163909523Y-102911961D02*
X163814285Y-103007200D01*
X163814285Y-103007200D02*
X163719047Y-103054819D01*
X163719047Y-103054819D02*
X163528571Y-103054819D01*
X164338095Y-102150057D02*
X164385714Y-102102438D01*
X164385714Y-102102438D02*
X164480952Y-102054819D01*
X164480952Y-102054819D02*
X164719047Y-102054819D01*
X164719047Y-102054819D02*
X164814285Y-102102438D01*
X164814285Y-102102438D02*
X164861904Y-102150057D01*
X164861904Y-102150057D02*
X164909523Y-102245295D01*
X164909523Y-102245295D02*
X164909523Y-102340533D01*
X164909523Y-102340533D02*
X164861904Y-102483390D01*
X164861904Y-102483390D02*
X164290476Y-103054819D01*
X164290476Y-103054819D02*
X164909523Y-103054819D01*
X125438095Y-89754819D02*
X125438095Y-88754819D01*
X125438095Y-89231009D02*
X126009523Y-89231009D01*
X126009523Y-89754819D02*
X126009523Y-88754819D01*
X127009523Y-89754819D02*
X126438095Y-89754819D01*
X126723809Y-89754819D02*
X126723809Y-88754819D01*
X126723809Y-88754819D02*
X126628571Y-88897676D01*
X126628571Y-88897676D02*
X126533333Y-88992914D01*
X126533333Y-88992914D02*
X126438095Y-89040533D01*
X135603678Y-109776153D02*
X136133497Y-109562093D01*
X136243194Y-110596307D02*
X135868588Y-109669123D01*
X136817165Y-110364407D02*
X136442559Y-109437224D01*
X136620943Y-109878740D02*
X137150762Y-109664679D01*
X137346985Y-110150347D02*
X136972378Y-109223163D01*
X138274169Y-109775740D02*
X137744349Y-109989801D01*
X138009259Y-109882770D02*
X137634652Y-108955587D01*
X137634652Y-108955587D02*
X137599864Y-109123718D01*
X137599864Y-109123718D02*
X137547238Y-109247698D01*
X137547238Y-109247698D02*
X137476773Y-109327527D01*
X171938095Y-94154819D02*
X172509523Y-94154819D01*
X172223809Y-95154819D02*
X172223809Y-94154819D01*
X172842857Y-95154819D02*
X172842857Y-94154819D01*
X172842857Y-94154819D02*
X173223809Y-94154819D01*
X173223809Y-94154819D02*
X173319047Y-94202438D01*
X173319047Y-94202438D02*
X173366666Y-94250057D01*
X173366666Y-94250057D02*
X173414285Y-94345295D01*
X173414285Y-94345295D02*
X173414285Y-94488152D01*
X173414285Y-94488152D02*
X173366666Y-94583390D01*
X173366666Y-94583390D02*
X173319047Y-94631009D01*
X173319047Y-94631009D02*
X173223809Y-94678628D01*
X173223809Y-94678628D02*
X172842857Y-94678628D01*
X173795238Y-94250057D02*
X173842857Y-94202438D01*
X173842857Y-94202438D02*
X173938095Y-94154819D01*
X173938095Y-94154819D02*
X174176190Y-94154819D01*
X174176190Y-94154819D02*
X174271428Y-94202438D01*
X174271428Y-94202438D02*
X174319047Y-94250057D01*
X174319047Y-94250057D02*
X174366666Y-94345295D01*
X174366666Y-94345295D02*
X174366666Y-94440533D01*
X174366666Y-94440533D02*
X174319047Y-94583390D01*
X174319047Y-94583390D02*
X173747619Y-95154819D01*
X173747619Y-95154819D02*
X174366666Y-95154819D01*
X161757142Y-96754819D02*
X161423809Y-96278628D01*
X161185714Y-96754819D02*
X161185714Y-95754819D01*
X161185714Y-95754819D02*
X161566666Y-95754819D01*
X161566666Y-95754819D02*
X161661904Y-95802438D01*
X161661904Y-95802438D02*
X161709523Y-95850057D01*
X161709523Y-95850057D02*
X161757142Y-95945295D01*
X161757142Y-95945295D02*
X161757142Y-96088152D01*
X161757142Y-96088152D02*
X161709523Y-96183390D01*
X161709523Y-96183390D02*
X161661904Y-96231009D01*
X161661904Y-96231009D02*
X161566666Y-96278628D01*
X161566666Y-96278628D02*
X161185714Y-96278628D01*
X162709523Y-96754819D02*
X162138095Y-96754819D01*
X162423809Y-96754819D02*
X162423809Y-95754819D01*
X162423809Y-95754819D02*
X162328571Y-95897676D01*
X162328571Y-95897676D02*
X162233333Y-95992914D01*
X162233333Y-95992914D02*
X162138095Y-96040533D01*
X163614285Y-95754819D02*
X163138095Y-95754819D01*
X163138095Y-95754819D02*
X163090476Y-96231009D01*
X163090476Y-96231009D02*
X163138095Y-96183390D01*
X163138095Y-96183390D02*
X163233333Y-96135771D01*
X163233333Y-96135771D02*
X163471428Y-96135771D01*
X163471428Y-96135771D02*
X163566666Y-96183390D01*
X163566666Y-96183390D02*
X163614285Y-96231009D01*
X163614285Y-96231009D02*
X163661904Y-96326247D01*
X163661904Y-96326247D02*
X163661904Y-96564342D01*
X163661904Y-96564342D02*
X163614285Y-96659580D01*
X163614285Y-96659580D02*
X163566666Y-96707200D01*
X163566666Y-96707200D02*
X163471428Y-96754819D01*
X163471428Y-96754819D02*
X163233333Y-96754819D01*
X163233333Y-96754819D02*
X163138095Y-96707200D01*
X163138095Y-96707200D02*
X163090476Y-96659580D01*
X136304761Y-97150057D02*
X136209523Y-97102438D01*
X136209523Y-97102438D02*
X136114285Y-97007200D01*
X136114285Y-97007200D02*
X135971428Y-96864342D01*
X135971428Y-96864342D02*
X135876190Y-96816723D01*
X135876190Y-96816723D02*
X135780952Y-96816723D01*
X135828571Y-97054819D02*
X135733333Y-97007200D01*
X135733333Y-97007200D02*
X135638095Y-96911961D01*
X135638095Y-96911961D02*
X135590476Y-96721485D01*
X135590476Y-96721485D02*
X135590476Y-96388152D01*
X135590476Y-96388152D02*
X135638095Y-96197676D01*
X135638095Y-96197676D02*
X135733333Y-96102438D01*
X135733333Y-96102438D02*
X135828571Y-96054819D01*
X135828571Y-96054819D02*
X136019047Y-96054819D01*
X136019047Y-96054819D02*
X136114285Y-96102438D01*
X136114285Y-96102438D02*
X136209523Y-96197676D01*
X136209523Y-96197676D02*
X136257142Y-96388152D01*
X136257142Y-96388152D02*
X136257142Y-96721485D01*
X136257142Y-96721485D02*
X136209523Y-96911961D01*
X136209523Y-96911961D02*
X136114285Y-97007200D01*
X136114285Y-97007200D02*
X136019047Y-97054819D01*
X136019047Y-97054819D02*
X135828571Y-97054819D01*
X137209523Y-97054819D02*
X136638095Y-97054819D01*
X136923809Y-97054819D02*
X136923809Y-96054819D01*
X136923809Y-96054819D02*
X136828571Y-96197676D01*
X136828571Y-96197676D02*
X136733333Y-96292914D01*
X136733333Y-96292914D02*
X136638095Y-96340533D01*
X152438095Y-116554819D02*
X152438095Y-115554819D01*
X152438095Y-116031009D02*
X153009523Y-116031009D01*
X153009523Y-116554819D02*
X153009523Y-115554819D01*
X153914285Y-115888152D02*
X153914285Y-116554819D01*
X153676190Y-115507200D02*
X153438095Y-116221485D01*
X153438095Y-116221485D02*
X154057142Y-116221485D01*
X130861905Y-88754819D02*
X130861905Y-87754819D01*
X130861905Y-87754819D02*
X131100000Y-87754819D01*
X131100000Y-87754819D02*
X131242857Y-87802438D01*
X131242857Y-87802438D02*
X131338095Y-87897676D01*
X131338095Y-87897676D02*
X131385714Y-87992914D01*
X131385714Y-87992914D02*
X131433333Y-88183390D01*
X131433333Y-88183390D02*
X131433333Y-88326247D01*
X131433333Y-88326247D02*
X131385714Y-88516723D01*
X131385714Y-88516723D02*
X131338095Y-88611961D01*
X131338095Y-88611961D02*
X131242857Y-88707200D01*
X131242857Y-88707200D02*
X131100000Y-88754819D01*
X131100000Y-88754819D02*
X130861905Y-88754819D01*
X132290476Y-88088152D02*
X132290476Y-88754819D01*
X132052381Y-87707200D02*
X131814286Y-88421485D01*
X131814286Y-88421485D02*
X132433333Y-88421485D01*
X133254819Y-97309523D02*
X132254819Y-97309523D01*
X132254819Y-97309523D02*
X132969104Y-96976190D01*
X132969104Y-96976190D02*
X132254819Y-96642857D01*
X132254819Y-96642857D02*
X133254819Y-96642857D01*
X133254819Y-95642857D02*
X133254819Y-96214285D01*
X133254819Y-95928571D02*
X132254819Y-95928571D01*
X132254819Y-95928571D02*
X132397676Y-96023809D01*
X132397676Y-96023809D02*
X132492914Y-96119047D01*
X132492914Y-96119047D02*
X132540533Y-96214285D01*
X138260646Y-85104278D02*
X137688227Y-85003263D01*
X137856585Y-85508339D02*
X137149479Y-84801232D01*
X137149479Y-84801232D02*
X137418853Y-84531858D01*
X137418853Y-84531858D02*
X137519868Y-84498186D01*
X137519868Y-84498186D02*
X137587211Y-84498186D01*
X137587211Y-84498186D02*
X137688227Y-84531858D01*
X137688227Y-84531858D02*
X137789242Y-84632873D01*
X137789242Y-84632873D02*
X137822914Y-84733889D01*
X137822914Y-84733889D02*
X137822914Y-84801232D01*
X137822914Y-84801232D02*
X137789242Y-84902247D01*
X137789242Y-84902247D02*
X137519868Y-85171621D01*
X138159631Y-83791080D02*
X138024944Y-83925767D01*
X138024944Y-83925767D02*
X137991272Y-84026782D01*
X137991272Y-84026782D02*
X137991272Y-84094125D01*
X137991272Y-84094125D02*
X138024944Y-84262484D01*
X138024944Y-84262484D02*
X138125959Y-84430843D01*
X138125959Y-84430843D02*
X138395333Y-84700217D01*
X138395333Y-84700217D02*
X138496349Y-84733889D01*
X138496349Y-84733889D02*
X138563692Y-84733889D01*
X138563692Y-84733889D02*
X138664707Y-84700217D01*
X138664707Y-84700217D02*
X138799394Y-84565530D01*
X138799394Y-84565530D02*
X138833066Y-84464515D01*
X138833066Y-84464515D02*
X138833066Y-84397171D01*
X138833066Y-84397171D02*
X138799394Y-84296156D01*
X138799394Y-84296156D02*
X138631036Y-84127797D01*
X138631036Y-84127797D02*
X138530020Y-84094125D01*
X138530020Y-84094125D02*
X138462677Y-84094125D01*
X138462677Y-84094125D02*
X138361662Y-84127797D01*
X138361662Y-84127797D02*
X138226975Y-84262484D01*
X138226975Y-84262484D02*
X138193303Y-84363499D01*
X138193303Y-84363499D02*
X138193303Y-84430843D01*
X138193303Y-84430843D02*
X138226975Y-84531858D01*
X169804819Y-101916666D02*
X169328628Y-102249999D01*
X169804819Y-102488094D02*
X168804819Y-102488094D01*
X168804819Y-102488094D02*
X168804819Y-102107142D01*
X168804819Y-102107142D02*
X168852438Y-102011904D01*
X168852438Y-102011904D02*
X168900057Y-101964285D01*
X168900057Y-101964285D02*
X168995295Y-101916666D01*
X168995295Y-101916666D02*
X169138152Y-101916666D01*
X169138152Y-101916666D02*
X169233390Y-101964285D01*
X169233390Y-101964285D02*
X169281009Y-102011904D01*
X169281009Y-102011904D02*
X169328628Y-102107142D01*
X169328628Y-102107142D02*
X169328628Y-102488094D01*
X169233390Y-101345237D02*
X169185771Y-101440475D01*
X169185771Y-101440475D02*
X169138152Y-101488094D01*
X169138152Y-101488094D02*
X169042914Y-101535713D01*
X169042914Y-101535713D02*
X168995295Y-101535713D01*
X168995295Y-101535713D02*
X168900057Y-101488094D01*
X168900057Y-101488094D02*
X168852438Y-101440475D01*
X168852438Y-101440475D02*
X168804819Y-101345237D01*
X168804819Y-101345237D02*
X168804819Y-101154761D01*
X168804819Y-101154761D02*
X168852438Y-101059523D01*
X168852438Y-101059523D02*
X168900057Y-101011904D01*
X168900057Y-101011904D02*
X168995295Y-100964285D01*
X168995295Y-100964285D02*
X169042914Y-100964285D01*
X169042914Y-100964285D02*
X169138152Y-101011904D01*
X169138152Y-101011904D02*
X169185771Y-101059523D01*
X169185771Y-101059523D02*
X169233390Y-101154761D01*
X169233390Y-101154761D02*
X169233390Y-101345237D01*
X169233390Y-101345237D02*
X169281009Y-101440475D01*
X169281009Y-101440475D02*
X169328628Y-101488094D01*
X169328628Y-101488094D02*
X169423866Y-101535713D01*
X169423866Y-101535713D02*
X169614342Y-101535713D01*
X169614342Y-101535713D02*
X169709580Y-101488094D01*
X169709580Y-101488094D02*
X169757200Y-101440475D01*
X169757200Y-101440475D02*
X169804819Y-101345237D01*
X169804819Y-101345237D02*
X169804819Y-101154761D01*
X169804819Y-101154761D02*
X169757200Y-101059523D01*
X169757200Y-101059523D02*
X169709580Y-101011904D01*
X169709580Y-101011904D02*
X169614342Y-100964285D01*
X169614342Y-100964285D02*
X169423866Y-100964285D01*
X169423866Y-100964285D02*
X169328628Y-101011904D01*
X169328628Y-101011904D02*
X169281009Y-101059523D01*
X169281009Y-101059523D02*
X169233390Y-101154761D01*
X154959580Y-105166666D02*
X155007200Y-105214285D01*
X155007200Y-105214285D02*
X155054819Y-105357142D01*
X155054819Y-105357142D02*
X155054819Y-105452380D01*
X155054819Y-105452380D02*
X155007200Y-105595237D01*
X155007200Y-105595237D02*
X154911961Y-105690475D01*
X154911961Y-105690475D02*
X154816723Y-105738094D01*
X154816723Y-105738094D02*
X154626247Y-105785713D01*
X154626247Y-105785713D02*
X154483390Y-105785713D01*
X154483390Y-105785713D02*
X154292914Y-105738094D01*
X154292914Y-105738094D02*
X154197676Y-105690475D01*
X154197676Y-105690475D02*
X154102438Y-105595237D01*
X154102438Y-105595237D02*
X154054819Y-105452380D01*
X154054819Y-105452380D02*
X154054819Y-105357142D01*
X154054819Y-105357142D02*
X154102438Y-105214285D01*
X154102438Y-105214285D02*
X154150057Y-105166666D01*
X154150057Y-104785713D02*
X154102438Y-104738094D01*
X154102438Y-104738094D02*
X154054819Y-104642856D01*
X154054819Y-104642856D02*
X154054819Y-104404761D01*
X154054819Y-104404761D02*
X154102438Y-104309523D01*
X154102438Y-104309523D02*
X154150057Y-104261904D01*
X154150057Y-104261904D02*
X154245295Y-104214285D01*
X154245295Y-104214285D02*
X154340533Y-104214285D01*
X154340533Y-104214285D02*
X154483390Y-104261904D01*
X154483390Y-104261904D02*
X155054819Y-104833332D01*
X155054819Y-104833332D02*
X155054819Y-104214285D01*
X130038095Y-102254819D02*
X130609523Y-102254819D01*
X130323809Y-103254819D02*
X130323809Y-102254819D01*
X130942857Y-103254819D02*
X130942857Y-102254819D01*
X130942857Y-102254819D02*
X131323809Y-102254819D01*
X131323809Y-102254819D02*
X131419047Y-102302438D01*
X131419047Y-102302438D02*
X131466666Y-102350057D01*
X131466666Y-102350057D02*
X131514285Y-102445295D01*
X131514285Y-102445295D02*
X131514285Y-102588152D01*
X131514285Y-102588152D02*
X131466666Y-102683390D01*
X131466666Y-102683390D02*
X131419047Y-102731009D01*
X131419047Y-102731009D02*
X131323809Y-102778628D01*
X131323809Y-102778628D02*
X130942857Y-102778628D01*
X132466666Y-103254819D02*
X131895238Y-103254819D01*
X132180952Y-103254819D02*
X132180952Y-102254819D01*
X132180952Y-102254819D02*
X132085714Y-102397676D01*
X132085714Y-102397676D02*
X131990476Y-102492914D01*
X131990476Y-102492914D02*
X131895238Y-102540533D01*
X153661905Y-100254819D02*
X153661905Y-99254819D01*
X153661905Y-99254819D02*
X153900000Y-99254819D01*
X153900000Y-99254819D02*
X154042857Y-99302438D01*
X154042857Y-99302438D02*
X154138095Y-99397676D01*
X154138095Y-99397676D02*
X154185714Y-99492914D01*
X154185714Y-99492914D02*
X154233333Y-99683390D01*
X154233333Y-99683390D02*
X154233333Y-99826247D01*
X154233333Y-99826247D02*
X154185714Y-100016723D01*
X154185714Y-100016723D02*
X154138095Y-100111961D01*
X154138095Y-100111961D02*
X154042857Y-100207200D01*
X154042857Y-100207200D02*
X153900000Y-100254819D01*
X153900000Y-100254819D02*
X153661905Y-100254819D01*
X154614286Y-99350057D02*
X154661905Y-99302438D01*
X154661905Y-99302438D02*
X154757143Y-99254819D01*
X154757143Y-99254819D02*
X154995238Y-99254819D01*
X154995238Y-99254819D02*
X155090476Y-99302438D01*
X155090476Y-99302438D02*
X155138095Y-99350057D01*
X155138095Y-99350057D02*
X155185714Y-99445295D01*
X155185714Y-99445295D02*
X155185714Y-99540533D01*
X155185714Y-99540533D02*
X155138095Y-99683390D01*
X155138095Y-99683390D02*
X154566667Y-100254819D01*
X154566667Y-100254819D02*
X155185714Y-100254819D01*
X161166666Y-84954819D02*
X161166666Y-85669104D01*
X161166666Y-85669104D02*
X161119047Y-85811961D01*
X161119047Y-85811961D02*
X161023809Y-85907200D01*
X161023809Y-85907200D02*
X160880952Y-85954819D01*
X160880952Y-85954819D02*
X160785714Y-85954819D01*
X161547619Y-84954819D02*
X162166666Y-84954819D01*
X162166666Y-84954819D02*
X161833333Y-85335771D01*
X161833333Y-85335771D02*
X161976190Y-85335771D01*
X161976190Y-85335771D02*
X162071428Y-85383390D01*
X162071428Y-85383390D02*
X162119047Y-85431009D01*
X162119047Y-85431009D02*
X162166666Y-85526247D01*
X162166666Y-85526247D02*
X162166666Y-85764342D01*
X162166666Y-85764342D02*
X162119047Y-85859580D01*
X162119047Y-85859580D02*
X162071428Y-85907200D01*
X162071428Y-85907200D02*
X161976190Y-85954819D01*
X161976190Y-85954819D02*
X161690476Y-85954819D01*
X161690476Y-85954819D02*
X161595238Y-85907200D01*
X161595238Y-85907200D02*
X161547619Y-85859580D01*
D11*
%TO.C,U2*%
X140880000Y-70840000D02*
X140880000Y-77255000D01*
X159120000Y-95800000D02*
X159120000Y-96580000D01*
X140880000Y-70840000D02*
X159120000Y-70840000D01*
X140880000Y-95800000D02*
X140880000Y-96580000D01*
X159120000Y-70840000D02*
X159120000Y-77255000D01*
X159120000Y-96580000D02*
X158120000Y-96580000D01*
X140880000Y-77255000D02*
X140500000Y-77255000D01*
X140880000Y-96580000D02*
X141880000Y-96580000D01*
%TO.C,R4*%
X129735000Y-98022936D02*
X129735000Y-98477064D01*
X128265000Y-98022936D02*
X128265000Y-98477064D01*
%TO.C,R11*%
X141235000Y-100772936D02*
X141235000Y-101227064D01*
X139765000Y-100772936D02*
X139765000Y-101227064D01*
D12*
%TO.C,U17*%
X158527029Y-121050100D02*
X159379571Y-121050100D01*
X159472971Y-119449900D02*
X157857000Y-119449900D01*
%TO.C,U40*%
X143527029Y-125550100D02*
X144379571Y-125550100D01*
X144472971Y-123949900D02*
X142857000Y-123949900D01*
D11*
%TO.C,R17*%
X145335000Y-108372936D02*
X145335000Y-108827064D01*
X143865000Y-108372936D02*
X143865000Y-108827064D01*
%TO.C,C3*%
X146515000Y-108811252D02*
X146515000Y-108288748D01*
X147985000Y-108811252D02*
X147985000Y-108288748D01*
D12*
%TO.C,U30*%
X142027029Y-118800100D02*
X142879571Y-118800100D01*
X142972971Y-117199900D02*
X141357000Y-117199900D01*
D11*
%TO.C,R16*%
X143335000Y-108372936D02*
X143335000Y-108827064D01*
X141865000Y-108372936D02*
X141865000Y-108827064D01*
%TO.C,JP2*%
X136150000Y-103700000D02*
X136150000Y-104300000D01*
X135450000Y-105000000D02*
X134050000Y-105000000D01*
X134050000Y-103000000D02*
X135450000Y-103000000D01*
X133350000Y-104300000D02*
X133350000Y-103700000D01*
X135450000Y-105000000D02*
G75*
G03*
X136150000Y-104300000I1J699999D01*
G01*
X136150000Y-103700000D02*
G75*
G03*
X135450000Y-103000000I-699999J1D01*
G01*
X133350000Y-104300000D02*
G75*
G03*
X134050000Y-105000000I700000J0D01*
G01*
X134050000Y-103000000D02*
G75*
G03*
X133350000Y-103700000I0J-700000D01*
G01*
%TO.C,JP1*%
X167400000Y-83700000D02*
X167400000Y-84300000D01*
X166700000Y-85000000D02*
X165300000Y-85000000D01*
X165300000Y-83000000D02*
X166700000Y-83000000D01*
X164600000Y-84300000D02*
X164600000Y-83700000D01*
X166700000Y-85000000D02*
G75*
G03*
X167400000Y-84300000I1J699999D01*
G01*
X167400000Y-83700000D02*
G75*
G03*
X166700000Y-83000000I-699999J1D01*
G01*
X164600000Y-84300000D02*
G75*
G03*
X165300000Y-85000000I700000J0D01*
G01*
X165300000Y-83000000D02*
G75*
G03*
X164600000Y-83700000I0J-700000D01*
G01*
%TO.C,J5*%
X171745064Y-81949013D02*
X171296051Y-82398026D01*
X171296051Y-81500000D02*
X171745064Y-81949013D01*
D12*
%TO.C,U36*%
X145027029Y-118800100D02*
X145879571Y-118800100D01*
X145972971Y-117199900D02*
X144357000Y-117199900D01*
%TO.C,U15*%
X161527029Y-125550100D02*
X162379571Y-125550100D01*
X162472971Y-123949900D02*
X160857000Y-123949900D01*
D11*
%TO.C,R3*%
X153485000Y-108272936D02*
X153485000Y-108727064D01*
X152015000Y-108272936D02*
X152015000Y-108727064D01*
%TO.C,R2*%
X169390835Y-114930282D02*
X169069718Y-114609165D01*
X170430282Y-113890835D02*
X170109165Y-113569718D01*
%TO.C,R13*%
X137977064Y-102485000D02*
X137522936Y-102485000D01*
X137977064Y-101015000D02*
X137522936Y-101015000D01*
D12*
%TO.C,U35*%
X146527029Y-125550100D02*
X147379571Y-125550100D01*
X147472971Y-123949900D02*
X145857000Y-123949900D01*
%TO.C,U23*%
X145027029Y-123300100D02*
X145879571Y-123300100D01*
X145972971Y-121699900D02*
X144357000Y-121699900D01*
D11*
%TO.C,R9*%
X170265000Y-98477064D02*
X170265000Y-98022936D01*
X171735000Y-98477064D02*
X171735000Y-98022936D01*
D12*
%TO.C,U10*%
X154027029Y-118800100D02*
X154879571Y-118800100D01*
X154972971Y-117199900D02*
X153357000Y-117199900D01*
D11*
%TO.C,R1*%
X171865709Y-117405156D02*
X171544592Y-117084039D01*
X172905156Y-116365709D02*
X172584039Y-116044592D01*
D12*
%TO.C,U4*%
X151027029Y-118800100D02*
X151879571Y-118800100D01*
X151972971Y-117199900D02*
X150357000Y-117199900D01*
D11*
%TO.C,L1*%
X147760000Y-104650000D02*
X147760000Y-105450000D01*
X146240000Y-104650000D02*
X146240000Y-105450000D01*
D12*
%TO.C,U12*%
X163027029Y-123300100D02*
X163879571Y-123300100D01*
X163972971Y-121699900D02*
X162357000Y-121699900D01*
%TO.C,U37*%
X143527029Y-121050100D02*
X144379571Y-121050100D01*
X144472971Y-119449900D02*
X142857000Y-119449900D01*
D11*
%TO.C,R12*%
X158135000Y-108372936D02*
X158135000Y-108827064D01*
X156665000Y-108372936D02*
X156665000Y-108827064D01*
D12*
%TO.C,U7*%
X151027029Y-123300100D02*
X151879571Y-123300100D01*
X151972971Y-121699900D02*
X150357000Y-121699900D01*
%TO.C,U26*%
X148027029Y-118800100D02*
X148879571Y-118800100D01*
X148972971Y-117199900D02*
X147357000Y-117199900D01*
%TO.C,U31*%
X140527029Y-121050100D02*
X141379571Y-121050100D01*
X141472971Y-119449900D02*
X139857000Y-119449900D01*
D11*
%TO.C,C5*%
X144761252Y-99235000D02*
X144238748Y-99235000D01*
X144761252Y-97765000D02*
X144238748Y-97765000D01*
%TO.C,R14*%
X158665000Y-100827064D02*
X158665000Y-100372936D01*
X160135000Y-100827064D02*
X160135000Y-100372936D01*
D12*
%TO.C,U14*%
X155527029Y-125550100D02*
X156379571Y-125550100D01*
X156472971Y-123949900D02*
X154857000Y-123949900D01*
%TO.C,U11*%
X155527029Y-121050100D02*
X156379571Y-121050100D01*
X156472971Y-119449900D02*
X154857000Y-119449900D01*
%TO.C,U41*%
X145027029Y-127800100D02*
X145879571Y-127800100D01*
X145972971Y-126199900D02*
X144357000Y-126199900D01*
%TO.C,U38*%
X142027029Y-127800100D02*
X142879571Y-127800100D01*
X142972971Y-126199900D02*
X141357000Y-126199900D01*
D11*
%TO.C,C4*%
X150261252Y-105035000D02*
X149738748Y-105035000D01*
X150261252Y-103565000D02*
X149738748Y-103565000D01*
%TO.C,C1*%
X160508845Y-102284376D02*
X158366009Y-106489927D01*
X160508845Y-102284376D02*
X167939839Y-106070657D01*
X165797004Y-110276208D02*
X158366009Y-106489927D01*
X170202996Y-107223793D02*
X177633990Y-111010074D01*
X170925476Y-106312463D02*
X171816483Y-106766454D01*
X171597975Y-106093955D02*
X171143984Y-106984962D01*
X177633990Y-111010074D02*
X175491155Y-115215624D01*
X175491155Y-115215624D02*
X168060160Y-111429344D01*
%TO.C,TP3*%
X177200000Y-91250000D02*
G75*
G03*
X174800000Y-91250000I-1200000J0D01*
G01*
X174800000Y-91250000D02*
G75*
G03*
X177200000Y-91250000I1200000J0D01*
G01*
D12*
%TO.C,U25*%
X137527029Y-121050100D02*
X138379571Y-121050100D01*
X138472971Y-119449900D02*
X136857000Y-119449900D01*
%TO.C,U42*%
X148027029Y-127800100D02*
X148879571Y-127800100D01*
X148972971Y-126199900D02*
X147357000Y-126199900D01*
%TO.C,U29*%
X146527029Y-121050100D02*
X147379571Y-121050100D01*
X147472971Y-119449900D02*
X145857000Y-119449900D01*
%TO.C,U28*%
X137527029Y-125550100D02*
X138379571Y-125550100D01*
X138472971Y-123949900D02*
X136857000Y-123949900D01*
D11*
%TO.C,U1*%
X148440000Y-107550000D02*
X148440000Y-109350000D01*
X148440000Y-107550000D02*
X148440000Y-106750000D01*
X151560000Y-107550000D02*
X151560000Y-108350000D01*
X151560000Y-107550000D02*
X151560000Y-106750000D01*
D12*
%TO.C,U19*%
X157027029Y-123300100D02*
X157879571Y-123300100D01*
X157972971Y-121699900D02*
X156357000Y-121699900D01*
D11*
%TO.C,J1*%
X123104587Y-106107615D02*
X121027695Y-106946734D01*
X121027695Y-106946734D02*
X121776908Y-108801101D01*
X128868858Y-104037547D02*
X121340125Y-107079352D01*
X128868858Y-104037547D02*
X132659876Y-113420647D01*
X126958859Y-104809236D02*
X130749878Y-114192337D01*
X123250123Y-106307663D02*
X127041142Y-115690763D01*
X121340125Y-107079352D02*
X125131143Y-116462453D01*
X126589550Y-111839498D02*
X126468109Y-111787181D01*
X126430709Y-112087025D02*
X126354830Y-112054049D01*
X129519505Y-113082423D02*
X129442700Y-113049821D01*
X129405300Y-113349664D02*
X129283859Y-113297347D01*
X132659876Y-113420647D02*
X125131143Y-116462453D01*
X126239116Y-106260535D02*
G75*
G03*
X124775955Y-106851741I-175634J-1671500D01*
G01*
X127734989Y-108107672D02*
G75*
G03*
X127143783Y-106644511I-1671500J175634D01*
G01*
X124391979Y-107756408D02*
G75*
G03*
X124516405Y-108588791I1671500J-175632D01*
G01*
X124505816Y-108561379D02*
G75*
G03*
X124983601Y-109218994I1557668J629339D01*
G01*
X125887852Y-109603545D02*
G75*
G03*
X127351013Y-109012339I175632J1671505D01*
G01*
X129616517Y-112567959D02*
G75*
G03*
X126256517Y-112567959I-1680000J0D01*
G01*
X126256517Y-112567959D02*
G75*
G03*
X129616517Y-112567959I1680000J0D01*
G01*
%TO.C,R10*%
X156135000Y-108372936D02*
X156135000Y-108827064D01*
X154665000Y-108372936D02*
X154665000Y-108827064D01*
%TO.C,R5*%
X129735000Y-101522936D02*
X129735000Y-101977064D01*
X128265000Y-101522936D02*
X128265000Y-101977064D01*
D12*
%TO.C,U8*%
X152527029Y-125550100D02*
X153379571Y-125550100D01*
X153472971Y-123949900D02*
X151857000Y-123949900D01*
%TO.C,U9*%
X161527029Y-121050100D02*
X162379571Y-121050100D01*
X162472971Y-119449900D02*
X160857000Y-119449900D01*
D11*
%TO.C,SW1*%
X163000000Y-95500000D02*
X169000000Y-95500000D01*
X169000000Y-95500000D02*
X169000000Y-89500000D01*
X169000000Y-89500000D02*
X163000000Y-89500000D01*
X163000000Y-89500000D02*
X163000000Y-95500000D01*
%TO.C,R7*%
X135095574Y-86332135D02*
X134774457Y-86653252D01*
X134056127Y-85292688D02*
X133735010Y-85613805D01*
D12*
%TO.C,U16*%
X157027029Y-118800100D02*
X157879571Y-118800100D01*
X157972971Y-117199900D02*
X156357000Y-117199900D01*
%TO.C,U32*%
X148027029Y-123300100D02*
X148879571Y-123300100D01*
X148972971Y-121699900D02*
X147357000Y-121699900D01*
%TO.C,U34*%
X140527029Y-125550100D02*
X141379571Y-125550100D01*
X141472971Y-123949900D02*
X139857000Y-123949900D01*
D11*
%TO.C,Q2*%
X162500000Y-99040000D02*
X160825000Y-99040000D01*
X162500000Y-99040000D02*
X163150000Y-99040000D01*
X162500000Y-102160000D02*
X161850000Y-102160000D01*
X162500000Y-102160000D02*
X163150000Y-102160000D01*
D12*
%TO.C,U21*%
X154027029Y-127800100D02*
X154879571Y-127800100D01*
X154972971Y-126199900D02*
X153357000Y-126199900D01*
D11*
%TO.C,TH1*%
X132188742Y-110865545D02*
X130503012Y-106693218D01*
X130503012Y-106693218D02*
X139311258Y-103134455D01*
X139311258Y-103134455D02*
X140996988Y-107306782D01*
X140996988Y-107306782D02*
X132188742Y-110865545D01*
D12*
%TO.C,U33*%
X139027029Y-123300100D02*
X139879571Y-123300100D01*
X139972971Y-121699900D02*
X138357000Y-121699900D01*
%TO.C,U39*%
X142027029Y-123300100D02*
X142879571Y-123300100D01*
X142972971Y-121699900D02*
X141357000Y-121699900D01*
D11*
%TO.C,TP2*%
X177200000Y-94750000D02*
G75*
G03*
X174800000Y-94750000I-1200000J0D01*
G01*
X174800000Y-94750000D02*
G75*
G03*
X177200000Y-94750000I1200000J0D01*
G01*
D12*
%TO.C,U22*%
X157027029Y-127800100D02*
X157879571Y-127800100D01*
X157972971Y-126199900D02*
X156357000Y-126199900D01*
D11*
%TO.C,R15*%
X162172936Y-97065000D02*
X162627064Y-97065000D01*
X162172936Y-98535000D02*
X162627064Y-98535000D01*
D12*
%TO.C,U24*%
X139027029Y-118800100D02*
X139879571Y-118800100D01*
X139972971Y-117199900D02*
X138357000Y-117199900D01*
%TO.C,U27*%
X136027029Y-123300100D02*
X136879571Y-123300100D01*
X136972971Y-121699900D02*
X135357000Y-121699900D01*
%TO.C,U3*%
X160027029Y-123300100D02*
X160879571Y-123300100D01*
X160972971Y-121699900D02*
X159357000Y-121699900D01*
D11*
%TO.C,Q1*%
X137500000Y-100560000D02*
X139175000Y-100560000D01*
X137500000Y-100560000D02*
X136850000Y-100560000D01*
X137500000Y-97440000D02*
X138150000Y-97440000D01*
X137500000Y-97440000D02*
X136850000Y-97440000D01*
D12*
%TO.C,U6*%
X160027029Y-118800100D02*
X160879571Y-118800100D01*
X160972971Y-117199900D02*
X159357000Y-117199900D01*
D11*
%TO.C,D4*%
X130600000Y-89000000D02*
X137900000Y-89000000D01*
X130600000Y-94500000D02*
X137900000Y-94500000D01*
X137900000Y-94500000D02*
X137900000Y-93350000D01*
D12*
%TO.C,U5*%
X152527029Y-121050100D02*
X153379571Y-121050100D01*
X153472971Y-119449900D02*
X151857000Y-119449900D01*
D11*
%TO.C,R6*%
X137570448Y-83857261D02*
X137249331Y-84178378D01*
X136531001Y-82817814D02*
X136209884Y-83138931D01*
%TO.C,R8*%
X170265000Y-101977064D02*
X170265000Y-101522936D01*
X171735000Y-101977064D02*
X171735000Y-101522936D01*
%TO.C,C2*%
X152015000Y-105261252D02*
X152015000Y-104738748D01*
X153485000Y-105261252D02*
X153485000Y-104738748D01*
D12*
%TO.C,U20*%
X158527029Y-125550100D02*
X159379571Y-125550100D01*
X159472971Y-123949900D02*
X157857000Y-123949900D01*
%TO.C,U13*%
X154027029Y-123300100D02*
X154879571Y-123300100D01*
X154972971Y-121699900D02*
X153357000Y-121699900D01*
D11*
%TO.C,TP1*%
X132700000Y-104500000D02*
G75*
G03*
X130300000Y-104500000I-1200000J0D01*
G01*
X130300000Y-104500000D02*
G75*
G03*
X132700000Y-104500000I1200000J0D01*
G01*
D12*
%TO.C,U18*%
X151027029Y-127800100D02*
X151879571Y-127800100D01*
X151972971Y-126199900D02*
X150357000Y-126199900D01*
D11*
%TO.C,D2*%
X146350000Y-97250000D02*
X153650000Y-97250000D01*
X146350000Y-102750000D02*
X153650000Y-102750000D01*
X153650000Y-102750000D02*
X153650000Y-101600000D01*
%TO.C,J3*%
X160320000Y-88580000D02*
X160320000Y-87250000D01*
X161650000Y-88580000D02*
X160320000Y-88580000D01*
X162920000Y-88580000D02*
X175680000Y-88580000D01*
X162920000Y-88580000D02*
X162920000Y-85920000D01*
X175680000Y-88580000D02*
X175680000Y-85920000D01*
X162920000Y-85920000D02*
X175680000Y-85920000D01*
%TD*%
%LPC*%
D13*
%TO.C,U2*%
X141250000Y-78450000D03*
X141250000Y-79720000D03*
X141250000Y-80990000D03*
X141250000Y-82260000D03*
X141250000Y-83530000D03*
X141250000Y-84800000D03*
X141250000Y-86070000D03*
X141250000Y-87340000D03*
X141250000Y-88610000D03*
X141250000Y-89880000D03*
X141250000Y-91150000D03*
X141250000Y-92420000D03*
X141250000Y-93690000D03*
X141250000Y-94960000D03*
D14*
X144290000Y-96210000D03*
X145560000Y-96210000D03*
X146830000Y-96210000D03*
X148100000Y-96210000D03*
X149370000Y-96210000D03*
X150640000Y-96210000D03*
X151910000Y-96210000D03*
X153180000Y-96210000D03*
X154450000Y-96210000D03*
X155720000Y-96210000D03*
D13*
X158750000Y-94960000D03*
X158750000Y-93690000D03*
X158750000Y-92420000D03*
X158750000Y-91150000D03*
X158750000Y-89880000D03*
X158750000Y-88610000D03*
X158750000Y-87340000D03*
X158750000Y-86070000D03*
X158750000Y-84800000D03*
X158750000Y-83530000D03*
X158750000Y-82260000D03*
X158750000Y-80990000D03*
X158750000Y-79720000D03*
X158750000Y-78450000D03*
D15*
X148500000Y-86170000D03*
D16*
X147100000Y-85470000D03*
X149200000Y-86170000D03*
X149900000Y-86870000D03*
X147800000Y-87570000D03*
X147100000Y-86870000D03*
X147800000Y-86170000D03*
X149900000Y-85470000D03*
X147800000Y-84770000D03*
X148475000Y-85470000D03*
X149200000Y-84770000D03*
X149200000Y-87570000D03*
X148475000Y-86870000D03*
%TD*%
D17*
%TO.C,J7*%
X176000000Y-100000000D03*
%TD*%
%TO.C,J4*%
X124000000Y-100000000D03*
%TD*%
D18*
%TO.C,J2*%
X168250000Y-118250000D03*
%TD*%
D19*
%TO.C,J6*%
X132117194Y-81200000D03*
%TD*%
D20*
%TO.C,R4*%
X129000000Y-97337500D03*
X129000000Y-99162500D03*
%TD*%
%TO.C,R11*%
X140500000Y-100087500D03*
X140500000Y-101912500D03*
%TD*%
D21*
%TO.C,U17*%
X158150000Y-119900000D03*
X158150000Y-120600000D03*
D22*
X159750000Y-120600000D03*
D21*
X159850000Y-119900000D03*
%TD*%
%TO.C,U40*%
X143150000Y-124400000D03*
X143150000Y-125100000D03*
D22*
X144750000Y-125100000D03*
D21*
X144850000Y-124400000D03*
%TD*%
D20*
%TO.C,R17*%
X144600000Y-107687500D03*
X144600000Y-109512500D03*
%TD*%
D23*
%TO.C,C3*%
X147250000Y-109500000D03*
X147250000Y-107600000D03*
%TD*%
D21*
%TO.C,U30*%
X141650000Y-117650000D03*
X141650000Y-118350000D03*
D22*
X143250000Y-118350000D03*
D21*
X143350000Y-117650000D03*
%TD*%
D20*
%TO.C,R16*%
X142600000Y-107687500D03*
X142600000Y-109512500D03*
%TD*%
D24*
%TO.C,JP2*%
X135400000Y-104000000D03*
D25*
X134100000Y-104000000D03*
%TD*%
D24*
%TO.C,JP1*%
X166650000Y-84000000D03*
D25*
X165350000Y-84000000D03*
%TD*%
D26*
%TO.C,J5*%
X171296051Y-83296051D03*
X166985528Y-80422369D03*
X168422369Y-78985528D03*
D27*
X170847038Y-81949013D03*
X169949013Y-82847038D03*
X169949013Y-81050987D03*
X169050987Y-81949013D03*
X169050987Y-80152962D03*
X168152962Y-81050987D03*
%TD*%
D21*
%TO.C,U36*%
X144650000Y-117650000D03*
X144650000Y-118350000D03*
D22*
X146250000Y-118350000D03*
D21*
X146350000Y-117650000D03*
%TD*%
%TO.C,U15*%
X161150000Y-124400000D03*
X161150000Y-125100000D03*
D22*
X162750000Y-125100000D03*
D21*
X162850000Y-124400000D03*
%TD*%
D20*
%TO.C,R3*%
X152750000Y-107587500D03*
X152750000Y-109412500D03*
%TD*%
D28*
%TO.C,R2*%
X170395235Y-114895235D03*
X169104765Y-113604765D03*
%TD*%
D29*
%TO.C,H2*%
X175750000Y-105750000D03*
%TD*%
D30*
%TO.C,R13*%
X138662500Y-101750000D03*
X136837500Y-101750000D03*
%TD*%
D21*
%TO.C,U35*%
X146150000Y-124400000D03*
X146150000Y-125100000D03*
D22*
X147750000Y-125100000D03*
D21*
X147850000Y-124400000D03*
%TD*%
D31*
%TO.C,D3*%
X165250000Y-100725000D03*
D32*
X165250000Y-99100000D03*
%TD*%
D21*
%TO.C,U23*%
X144650000Y-122150000D03*
X144650000Y-122850000D03*
D22*
X146250000Y-122850000D03*
D21*
X146350000Y-122150000D03*
%TD*%
D33*
%TO.C,R9*%
X171000000Y-99162500D03*
X171000000Y-97337500D03*
%TD*%
D21*
%TO.C,U10*%
X153650000Y-117650000D03*
X153650000Y-118350000D03*
D22*
X155250000Y-118350000D03*
D21*
X155350000Y-117650000D03*
%TD*%
D34*
%TO.C,H3*%
X146800000Y-114000000D03*
%TD*%
D28*
%TO.C,R1*%
X172870109Y-117370109D03*
X171579639Y-116079639D03*
%TD*%
D21*
%TO.C,U4*%
X150650000Y-117650000D03*
X150650000Y-118350000D03*
D22*
X152250000Y-118350000D03*
D21*
X152350000Y-117650000D03*
%TD*%
D35*
%TO.C,L1*%
X147000000Y-103987500D03*
X147000000Y-106112500D03*
%TD*%
D21*
%TO.C,U12*%
X162650000Y-122150000D03*
X162650000Y-122850000D03*
D22*
X164250000Y-122850000D03*
D21*
X164350000Y-122150000D03*
%TD*%
%TO.C,U37*%
X143150000Y-119900000D03*
X143150000Y-120600000D03*
D22*
X144750000Y-120600000D03*
D21*
X144850000Y-119900000D03*
%TD*%
D20*
%TO.C,R12*%
X157400000Y-107687500D03*
X157400000Y-109512500D03*
%TD*%
D21*
%TO.C,U7*%
X150650000Y-122150000D03*
X150650000Y-122850000D03*
D22*
X152250000Y-122850000D03*
D21*
X152350000Y-122150000D03*
%TD*%
%TO.C,U26*%
X147650000Y-117650000D03*
X147650000Y-118350000D03*
D22*
X149250000Y-118350000D03*
D21*
X149350000Y-117650000D03*
%TD*%
%TO.C,U31*%
X140150000Y-119900000D03*
X140150000Y-120600000D03*
D22*
X141750000Y-120600000D03*
D21*
X141850000Y-119900000D03*
%TD*%
D36*
%TO.C,C5*%
X145450000Y-98500000D03*
X143550000Y-98500000D03*
%TD*%
D33*
%TO.C,R14*%
X159400000Y-101512500D03*
X159400000Y-99687500D03*
%TD*%
D21*
%TO.C,U14*%
X155150000Y-124400000D03*
X155150000Y-125100000D03*
D22*
X156750000Y-125100000D03*
D21*
X156850000Y-124400000D03*
%TD*%
%TO.C,U11*%
X155150000Y-119900000D03*
X155150000Y-120600000D03*
D22*
X156750000Y-120600000D03*
D21*
X156850000Y-119900000D03*
%TD*%
D31*
%TO.C,D1*%
X134750000Y-100725000D03*
D32*
X134750000Y-99100000D03*
%TD*%
D21*
%TO.C,U41*%
X144650000Y-126650000D03*
X144650000Y-127350000D03*
D22*
X146250000Y-127350000D03*
D21*
X146350000Y-126650000D03*
%TD*%
%TO.C,U38*%
X141650000Y-126650000D03*
X141650000Y-127350000D03*
D22*
X143250000Y-127350000D03*
D21*
X143350000Y-126650000D03*
%TD*%
D36*
%TO.C,C4*%
X150950000Y-104300000D03*
X149050000Y-104300000D03*
%TD*%
D37*
%TO.C,C1*%
X169134976Y-106522484D03*
D38*
X166865024Y-110977517D03*
%TD*%
D39*
%TO.C,TP3*%
X176000000Y-91250000D03*
%TD*%
D21*
%TO.C,U25*%
X137150000Y-119900000D03*
X137150000Y-120600000D03*
D22*
X138750000Y-120600000D03*
D21*
X138850000Y-119900000D03*
%TD*%
%TO.C,U42*%
X147650000Y-126650000D03*
X147650000Y-127350000D03*
D22*
X149250000Y-127350000D03*
D21*
X149350000Y-126650000D03*
%TD*%
%TO.C,U29*%
X146150000Y-119900000D03*
X146150000Y-120600000D03*
D22*
X147750000Y-120600000D03*
D21*
X147850000Y-119900000D03*
%TD*%
%TO.C,U28*%
X137150000Y-124400000D03*
X137150000Y-125100000D03*
D22*
X138750000Y-125100000D03*
D21*
X138850000Y-124400000D03*
%TD*%
D40*
%TO.C,U1*%
X149050000Y-108687500D03*
X150000000Y-108687500D03*
X150950000Y-108687500D03*
X150950000Y-106412500D03*
X150000000Y-106412500D03*
X149050000Y-106412500D03*
%TD*%
D21*
%TO.C,U19*%
X156650000Y-122150000D03*
X156650000Y-122850000D03*
D22*
X158250000Y-122850000D03*
D21*
X158350000Y-122150000D03*
%TD*%
D41*
%TO.C,J1*%
X126063484Y-107932040D03*
D34*
X127936517Y-112567959D03*
%TD*%
D42*
%TO.C,M2*%
X167250000Y-101500000D03*
X167250000Y-98500000D03*
%TD*%
D20*
%TO.C,R10*%
X155400000Y-107687500D03*
X155400000Y-109512500D03*
%TD*%
%TO.C,R5*%
X129000000Y-100837500D03*
X129000000Y-102662500D03*
%TD*%
D21*
%TO.C,U8*%
X152150000Y-124400000D03*
X152150000Y-125100000D03*
D22*
X153750000Y-125100000D03*
D21*
X153850000Y-124400000D03*
%TD*%
%TO.C,U9*%
X161150000Y-119900000D03*
X161150000Y-120600000D03*
D22*
X162750000Y-120600000D03*
D21*
X162850000Y-119900000D03*
%TD*%
D43*
%TO.C,SW1*%
X161450000Y-94750000D03*
X170550000Y-94750000D03*
X161450000Y-90250000D03*
X170550000Y-90250000D03*
%TD*%
D44*
%TO.C,R7*%
X135060527Y-85327735D03*
X133770057Y-86618205D03*
%TD*%
D21*
%TO.C,U16*%
X156650000Y-117650000D03*
X156650000Y-118350000D03*
D22*
X158250000Y-118350000D03*
D21*
X158350000Y-117650000D03*
%TD*%
%TO.C,U32*%
X147650000Y-122150000D03*
X147650000Y-122850000D03*
D22*
X149250000Y-122850000D03*
D21*
X149350000Y-122150000D03*
%TD*%
%TO.C,U34*%
X140150000Y-124400000D03*
X140150000Y-125100000D03*
D22*
X141750000Y-125100000D03*
D21*
X141850000Y-124400000D03*
%TD*%
D45*
%TO.C,Q2*%
X161562500Y-99650000D03*
X161562500Y-101550000D03*
X163437500Y-100600000D03*
%TD*%
D21*
%TO.C,U21*%
X153650000Y-126650000D03*
X153650000Y-127350000D03*
D22*
X155250000Y-127350000D03*
D21*
X155350000Y-126650000D03*
%TD*%
D29*
%TO.C,H1*%
X126250000Y-92000000D03*
%TD*%
D46*
%TO.C,TH1*%
X133289230Y-106915681D03*
X138210770Y-107084319D03*
%TD*%
D21*
%TO.C,U33*%
X138650000Y-122150000D03*
X138650000Y-122850000D03*
D22*
X140250000Y-122850000D03*
D21*
X140350000Y-122150000D03*
%TD*%
%TO.C,U39*%
X141650000Y-122150000D03*
X141650000Y-122850000D03*
D22*
X143250000Y-122850000D03*
D21*
X143350000Y-122150000D03*
%TD*%
D39*
%TO.C,TP2*%
X176000000Y-94750000D03*
%TD*%
D21*
%TO.C,U22*%
X156650000Y-126650000D03*
X156650000Y-127350000D03*
D22*
X158250000Y-127350000D03*
D21*
X158350000Y-126650000D03*
%TD*%
D47*
%TO.C,R15*%
X161487500Y-97800000D03*
X163312500Y-97800000D03*
%TD*%
D21*
%TO.C,U24*%
X138650000Y-117650000D03*
X138650000Y-118350000D03*
D22*
X140250000Y-118350000D03*
D21*
X140350000Y-117650000D03*
%TD*%
%TO.C,U27*%
X135650000Y-122150000D03*
X135650000Y-122850000D03*
D22*
X137250000Y-122850000D03*
D21*
X137350000Y-122150000D03*
%TD*%
%TO.C,U3*%
X159650000Y-122150000D03*
X159650000Y-122850000D03*
D22*
X161250000Y-122850000D03*
D21*
X161350000Y-122150000D03*
%TD*%
D48*
%TO.C,Q1*%
X138437500Y-99950000D03*
X138437500Y-98050000D03*
X136562500Y-99000000D03*
%TD*%
D21*
%TO.C,U6*%
X159650000Y-117650000D03*
X159650000Y-118350000D03*
D22*
X161250000Y-118350000D03*
D21*
X161350000Y-117650000D03*
%TD*%
D34*
%TO.C,H4*%
X153200000Y-114000000D03*
%TD*%
D49*
%TO.C,D4*%
X136700000Y-93350000D03*
X136700000Y-90150000D03*
X131800000Y-90150000D03*
X131800000Y-93350000D03*
%TD*%
D21*
%TO.C,U5*%
X152150000Y-119900000D03*
X152150000Y-120600000D03*
D22*
X153750000Y-120600000D03*
D21*
X153850000Y-119900000D03*
%TD*%
D42*
%TO.C,M1*%
X132750000Y-101500000D03*
X132750000Y-98500000D03*
%TD*%
D44*
%TO.C,R6*%
X137535401Y-82852861D03*
X136244931Y-84143331D03*
%TD*%
D33*
%TO.C,R8*%
X171000000Y-102662500D03*
X171000000Y-100837500D03*
%TD*%
D23*
%TO.C,C2*%
X152750000Y-105950000D03*
X152750000Y-104050000D03*
%TD*%
D21*
%TO.C,U20*%
X158150000Y-124400000D03*
X158150000Y-125100000D03*
D22*
X159750000Y-125100000D03*
D21*
X159850000Y-124400000D03*
%TD*%
%TO.C,U13*%
X153650000Y-122150000D03*
X153650000Y-122850000D03*
D22*
X155250000Y-122850000D03*
D21*
X155350000Y-122150000D03*
%TD*%
D39*
%TO.C,TP1*%
X131500000Y-104500000D03*
%TD*%
D21*
%TO.C,U18*%
X150650000Y-126650000D03*
X150650000Y-127350000D03*
D22*
X152250000Y-127350000D03*
D21*
X152350000Y-126650000D03*
%TD*%
D49*
%TO.C,D2*%
X152450000Y-101600000D03*
X152450000Y-98400000D03*
X147550000Y-98400000D03*
X147550000Y-101600000D03*
%TD*%
D50*
%TO.C,J3*%
X161650000Y-87250000D03*
D51*
X164190000Y-87250000D03*
X166730000Y-87250000D03*
X169270000Y-87250000D03*
X171810000Y-87250000D03*
X174350000Y-87250000D03*
%TD*%
%LPD*%
M02*
