%TF.GenerationSoftware,KiCad,Pcbnew,7.0.10*%
%TF.CreationDate,2024-02-08T00:21:34+01:00*%
%TF.ProjectId,robot_pcb,726f626f-745f-4706-9362-2e6b69636164,rev?*%
%TF.SameCoordinates,Original*%
%TF.FileFunction,Legend,Bot*%
%TF.FilePolarity,Positive*%
%FSLAX46Y46*%
G04 Gerber Fmt 4.6, Leading zero omitted, Abs format (unit mm)*
G04 Created by KiCad (PCBNEW 7.0.10) date 2024-02-08 00:21:34*
%MOMM*%
%LPD*%
G01*
G04 APERTURE LIST*
G04 Aperture macros list*
%AMHorizOval*
0 Thick line with rounded ends*
0 $1 width*
0 $2 $3 position (X,Y) of the first rounded end (center of the circle)*
0 $4 $5 position (X,Y) of the second rounded end (center of the circle)*
0 Add line between two ends*
20,1,$1,$2,$3,$4,$5,0*
0 Add two circle primitives to create the rounded ends*
1,1,$1,$2,$3*
1,1,$1,$4,$5*%
%AMRotRect*
0 Rectangle, with rotation*
0 The origin of the aperture is its center*
0 $1 length*
0 $2 width*
0 $3 Rotation angle, in degrees counterclockwise*
0 Add horizontal line*
21,1,$1,$2,0,0,$3*%
G04 Aperture macros list end*
%ADD10C,0.225000*%
%ADD11C,0.300000*%
%ADD12C,0.990600*%
%ADD13C,3.200000*%
%ADD14C,2.500000*%
%ADD15RotRect,2.500000X2.000000X333.000000*%
%ADD16HorizOval,2.000000X0.222752X-0.113498X-0.222752X0.113498X0*%
%ADD17RotRect,2.500000X2.500000X292.000000*%
%ADD18C,1.800000*%
%ADD19C,1.600000*%
%ADD20R,1.700000X1.700000*%
%ADD21O,1.700000X1.700000*%
G04 APERTURE END LIST*
D10*
X144458792Y-97867235D02*
X144512364Y-97920807D01*
X144512364Y-97920807D02*
X144619507Y-97974378D01*
X144619507Y-97974378D02*
X144887364Y-97974378D01*
X144887364Y-97974378D02*
X144994507Y-97920807D01*
X144994507Y-97920807D02*
X145048078Y-97867235D01*
X145048078Y-97867235D02*
X145101649Y-97760092D01*
X145101649Y-97760092D02*
X145101649Y-97652950D01*
X145101649Y-97652950D02*
X145048078Y-97492235D01*
X145048078Y-97492235D02*
X144405221Y-96849378D01*
X144405221Y-96849378D02*
X145101649Y-96849378D01*
X145798078Y-97974378D02*
X145905221Y-97974378D01*
X145905221Y-97974378D02*
X146012364Y-97920807D01*
X146012364Y-97920807D02*
X146065936Y-97867235D01*
X146065936Y-97867235D02*
X146119507Y-97760092D01*
X146119507Y-97760092D02*
X146173078Y-97545807D01*
X146173078Y-97545807D02*
X146173078Y-97277950D01*
X146173078Y-97277950D02*
X146119507Y-97063664D01*
X146119507Y-97063664D02*
X146065936Y-96956521D01*
X146065936Y-96956521D02*
X146012364Y-96902950D01*
X146012364Y-96902950D02*
X145905221Y-96849378D01*
X145905221Y-96849378D02*
X145798078Y-96849378D01*
X145798078Y-96849378D02*
X145690936Y-96902950D01*
X145690936Y-96902950D02*
X145637364Y-96956521D01*
X145637364Y-96956521D02*
X145583793Y-97063664D01*
X145583793Y-97063664D02*
X145530221Y-97277950D01*
X145530221Y-97277950D02*
X145530221Y-97545807D01*
X145530221Y-97545807D02*
X145583793Y-97760092D01*
X145583793Y-97760092D02*
X145637364Y-97867235D01*
X145637364Y-97867235D02*
X145690936Y-97920807D01*
X145690936Y-97920807D02*
X145798078Y-97974378D01*
X146601650Y-97867235D02*
X146655222Y-97920807D01*
X146655222Y-97920807D02*
X146762365Y-97974378D01*
X146762365Y-97974378D02*
X147030222Y-97974378D01*
X147030222Y-97974378D02*
X147137365Y-97920807D01*
X147137365Y-97920807D02*
X147190936Y-97867235D01*
X147190936Y-97867235D02*
X147244507Y-97760092D01*
X147244507Y-97760092D02*
X147244507Y-97652950D01*
X147244507Y-97652950D02*
X147190936Y-97492235D01*
X147190936Y-97492235D02*
X146548079Y-96849378D01*
X146548079Y-96849378D02*
X147244507Y-96849378D01*
X148208794Y-97599378D02*
X148208794Y-96849378D01*
X147940936Y-98027950D02*
X147673079Y-97224378D01*
X147673079Y-97224378D02*
X148369508Y-97224378D01*
X148798080Y-97277950D02*
X149655223Y-97277950D01*
X150405222Y-97974378D02*
X150512365Y-97974378D01*
X150512365Y-97974378D02*
X150619508Y-97920807D01*
X150619508Y-97920807D02*
X150673080Y-97867235D01*
X150673080Y-97867235D02*
X150726651Y-97760092D01*
X150726651Y-97760092D02*
X150780222Y-97545807D01*
X150780222Y-97545807D02*
X150780222Y-97277950D01*
X150780222Y-97277950D02*
X150726651Y-97063664D01*
X150726651Y-97063664D02*
X150673080Y-96956521D01*
X150673080Y-96956521D02*
X150619508Y-96902950D01*
X150619508Y-96902950D02*
X150512365Y-96849378D01*
X150512365Y-96849378D02*
X150405222Y-96849378D01*
X150405222Y-96849378D02*
X150298080Y-96902950D01*
X150298080Y-96902950D02*
X150244508Y-96956521D01*
X150244508Y-96956521D02*
X150190937Y-97063664D01*
X150190937Y-97063664D02*
X150137365Y-97277950D01*
X150137365Y-97277950D02*
X150137365Y-97545807D01*
X150137365Y-97545807D02*
X150190937Y-97760092D01*
X150190937Y-97760092D02*
X150244508Y-97867235D01*
X150244508Y-97867235D02*
X150298080Y-97920807D01*
X150298080Y-97920807D02*
X150405222Y-97974378D01*
X151208794Y-97867235D02*
X151262366Y-97920807D01*
X151262366Y-97920807D02*
X151369509Y-97974378D01*
X151369509Y-97974378D02*
X151637366Y-97974378D01*
X151637366Y-97974378D02*
X151744509Y-97920807D01*
X151744509Y-97920807D02*
X151798080Y-97867235D01*
X151798080Y-97867235D02*
X151851651Y-97760092D01*
X151851651Y-97760092D02*
X151851651Y-97652950D01*
X151851651Y-97652950D02*
X151798080Y-97492235D01*
X151798080Y-97492235D02*
X151155223Y-96849378D01*
X151155223Y-96849378D02*
X151851651Y-96849378D01*
X152333795Y-97277950D02*
X153190938Y-97277950D01*
X153940937Y-97974378D02*
X154048080Y-97974378D01*
X154048080Y-97974378D02*
X154155223Y-97920807D01*
X154155223Y-97920807D02*
X154208795Y-97867235D01*
X154208795Y-97867235D02*
X154262366Y-97760092D01*
X154262366Y-97760092D02*
X154315937Y-97545807D01*
X154315937Y-97545807D02*
X154315937Y-97277950D01*
X154315937Y-97277950D02*
X154262366Y-97063664D01*
X154262366Y-97063664D02*
X154208795Y-96956521D01*
X154208795Y-96956521D02*
X154155223Y-96902950D01*
X154155223Y-96902950D02*
X154048080Y-96849378D01*
X154048080Y-96849378D02*
X153940937Y-96849378D01*
X153940937Y-96849378D02*
X153833795Y-96902950D01*
X153833795Y-96902950D02*
X153780223Y-96956521D01*
X153780223Y-96956521D02*
X153726652Y-97063664D01*
X153726652Y-97063664D02*
X153673080Y-97277950D01*
X153673080Y-97277950D02*
X153673080Y-97545807D01*
X153673080Y-97545807D02*
X153726652Y-97760092D01*
X153726652Y-97760092D02*
X153780223Y-97867235D01*
X153780223Y-97867235D02*
X153833795Y-97920807D01*
X153833795Y-97920807D02*
X153940937Y-97974378D01*
X154690938Y-97974378D02*
X155440938Y-97974378D01*
X155440938Y-97974378D02*
X154958795Y-96849378D01*
D11*
X141611709Y-100999171D02*
X142468852Y-100999171D01*
X142040280Y-99499171D02*
X142040280Y-100999171D01*
X142968851Y-99499171D02*
X142968851Y-100999171D01*
X144183137Y-100284885D02*
X143683137Y-100284885D01*
X143683137Y-99499171D02*
X143683137Y-100999171D01*
X143683137Y-100999171D02*
X144397423Y-100999171D01*
X144825994Y-100999171D02*
X145825994Y-99499171D01*
X145825994Y-100999171D02*
X144825994Y-99499171D01*
X147183137Y-99499171D02*
X146325994Y-99499171D01*
X146754565Y-99499171D02*
X146754565Y-100999171D01*
X146754565Y-100999171D02*
X146611708Y-100784885D01*
X146611708Y-100784885D02*
X146468851Y-100642028D01*
X146468851Y-100642028D02*
X146325994Y-100570600D01*
X148611708Y-99499171D02*
X147754565Y-99499171D01*
X148183136Y-99499171D02*
X148183136Y-100999171D01*
X148183136Y-100999171D02*
X148040279Y-100784885D01*
X148040279Y-100784885D02*
X147897422Y-100642028D01*
X147897422Y-100642028D02*
X147754565Y-100570600D01*
X149254564Y-100070600D02*
X150397422Y-100070600D01*
X151040279Y-100856314D02*
X151111707Y-100927742D01*
X151111707Y-100927742D02*
X151254565Y-100999171D01*
X151254565Y-100999171D02*
X151611707Y-100999171D01*
X151611707Y-100999171D02*
X151754565Y-100927742D01*
X151754565Y-100927742D02*
X151825993Y-100856314D01*
X151825993Y-100856314D02*
X151897422Y-100713457D01*
X151897422Y-100713457D02*
X151897422Y-100570600D01*
X151897422Y-100570600D02*
X151825993Y-100356314D01*
X151825993Y-100356314D02*
X150968850Y-99499171D01*
X150968850Y-99499171D02*
X151897422Y-99499171D01*
X153183136Y-100499171D02*
X153183136Y-99499171D01*
X152825993Y-101070600D02*
X152468850Y-99999171D01*
X152468850Y-99999171D02*
X153397421Y-99999171D01*
X153968849Y-100070600D02*
X155111707Y-100070600D01*
X156611707Y-99499171D02*
X155754564Y-99499171D01*
X156183135Y-99499171D02*
X156183135Y-100999171D01*
X156183135Y-100999171D02*
X156040278Y-100784885D01*
X156040278Y-100784885D02*
X155897421Y-100642028D01*
X155897421Y-100642028D02*
X155754564Y-100570600D01*
X157111706Y-100999171D02*
X158111706Y-100999171D01*
X158111706Y-100999171D02*
X157468849Y-99499171D01*
%TO.C,G\u002A\u002A\u002A*%
G36*
X149992220Y-94013503D02*
G01*
X150018204Y-94013557D01*
X150047283Y-94013638D01*
X150079621Y-94013745D01*
X150115378Y-94013878D01*
X150154718Y-94014035D01*
X150197802Y-94014217D01*
X150205043Y-94014248D01*
X150240691Y-94014408D01*
X150275239Y-94014571D01*
X150308487Y-94014737D01*
X150340235Y-94014904D01*
X150370281Y-94015071D01*
X150398426Y-94015236D01*
X150424469Y-94015398D01*
X150448210Y-94015557D01*
X150469448Y-94015709D01*
X150487982Y-94015855D01*
X150503612Y-94015993D01*
X150516137Y-94016121D01*
X150525358Y-94016239D01*
X150531073Y-94016344D01*
X150533083Y-94016436D01*
X150533114Y-94016477D01*
X150533263Y-94019015D01*
X150532952Y-94024899D01*
X150532229Y-94033643D01*
X150531146Y-94044756D01*
X150529752Y-94057751D01*
X150528097Y-94072138D01*
X150526232Y-94087430D01*
X150524205Y-94103138D01*
X150522980Y-94112256D01*
X150513880Y-94173858D01*
X150503470Y-94234813D01*
X150491844Y-94294718D01*
X150479102Y-94353169D01*
X150465340Y-94409765D01*
X150450654Y-94464102D01*
X150435144Y-94515777D01*
X150418904Y-94564388D01*
X150402034Y-94609533D01*
X150396969Y-94621903D01*
X150388907Y-94640441D01*
X150379940Y-94659993D01*
X150370452Y-94679782D01*
X150360826Y-94699029D01*
X150351443Y-94716959D01*
X150342688Y-94732794D01*
X150334943Y-94745756D01*
X150323316Y-94763456D01*
X150300825Y-94793866D01*
X150277513Y-94820539D01*
X150253403Y-94843458D01*
X150228516Y-94862605D01*
X150202876Y-94877960D01*
X150176504Y-94889506D01*
X150149423Y-94897225D01*
X150149349Y-94897240D01*
X150135214Y-94899352D01*
X150118755Y-94900425D01*
X150101407Y-94900456D01*
X150084603Y-94899441D01*
X150069779Y-94897378D01*
X150049822Y-94892675D01*
X150021137Y-94882690D01*
X149994258Y-94869279D01*
X149969222Y-94852485D01*
X149946065Y-94832346D01*
X149924821Y-94808906D01*
X149905528Y-94782205D01*
X149888221Y-94752284D01*
X149872936Y-94719185D01*
X149859709Y-94682948D01*
X149848576Y-94643616D01*
X149841563Y-94612032D01*
X149833735Y-94565721D01*
X149828046Y-94516301D01*
X149824499Y-94463868D01*
X149823096Y-94408514D01*
X149823427Y-94382546D01*
X149903282Y-94382546D01*
X149903582Y-94432065D01*
X149905553Y-94479189D01*
X149909189Y-94523728D01*
X149914482Y-94565487D01*
X149921428Y-94604275D01*
X149930021Y-94639899D01*
X149940253Y-94672168D01*
X149942013Y-94676945D01*
X149954652Y-94706870D01*
X149968804Y-94733228D01*
X149984520Y-94756065D01*
X150001848Y-94775433D01*
X150020838Y-94791378D01*
X150041539Y-94803952D01*
X150064000Y-94813201D01*
X150088271Y-94819176D01*
X150101211Y-94820775D01*
X150121881Y-94820523D01*
X150142063Y-94816663D01*
X150161897Y-94809136D01*
X150181524Y-94797884D01*
X150201084Y-94782848D01*
X150220716Y-94763970D01*
X150238738Y-94743159D01*
X150258256Y-94716419D01*
X150277225Y-94685919D01*
X150295618Y-94651719D01*
X150313409Y-94613881D01*
X150330572Y-94572464D01*
X150347079Y-94527529D01*
X150362905Y-94479136D01*
X150378023Y-94427347D01*
X150392406Y-94372220D01*
X150402830Y-94327925D01*
X150413202Y-94279665D01*
X150422879Y-94230334D01*
X150431581Y-94181372D01*
X150439025Y-94134220D01*
X150444642Y-94095962D01*
X150286455Y-94094667D01*
X150283611Y-94094644D01*
X150235527Y-94094268D01*
X150191268Y-94093956D01*
X150150755Y-94093707D01*
X150113912Y-94093523D01*
X150080661Y-94093404D01*
X150050926Y-94093349D01*
X150024629Y-94093360D01*
X150001693Y-94093435D01*
X149982040Y-94093577D01*
X149965594Y-94093784D01*
X149952276Y-94094056D01*
X149942010Y-94094396D01*
X149934719Y-94094801D01*
X149930325Y-94095274D01*
X149928751Y-94095813D01*
X149928294Y-94098095D01*
X149927379Y-94103695D01*
X149926129Y-94111891D01*
X149924644Y-94122019D01*
X149923026Y-94133413D01*
X149918911Y-94164380D01*
X149912467Y-94221551D01*
X149907718Y-94277097D01*
X149904659Y-94330826D01*
X149903282Y-94382546D01*
X149823427Y-94382546D01*
X149823837Y-94350335D01*
X149826726Y-94289424D01*
X149831763Y-94225875D01*
X149838952Y-94159782D01*
X149839135Y-94158292D01*
X149841292Y-94141572D01*
X149843716Y-94123991D01*
X149846321Y-94106075D01*
X149849021Y-94088350D01*
X149851732Y-94071342D01*
X149854367Y-94055577D01*
X149856841Y-94041582D01*
X149859068Y-94029883D01*
X149860962Y-94021005D01*
X149862438Y-94015475D01*
X149862914Y-94015160D01*
X149864388Y-94014846D01*
X149867012Y-94014566D01*
X149870949Y-94014319D01*
X149876361Y-94014106D01*
X149883411Y-94013924D01*
X149892261Y-94013774D01*
X149903071Y-94013655D01*
X149916006Y-94013566D01*
X149931226Y-94013507D01*
X149948893Y-94013478D01*
X149969171Y-94013476D01*
X149992220Y-94013503D01*
G37*
G36*
X150942153Y-94200714D02*
G01*
X150967594Y-94200754D01*
X150996077Y-94200814D01*
X151027776Y-94200891D01*
X151062864Y-94200985D01*
X151101512Y-94201095D01*
X151143894Y-94201218D01*
X151151438Y-94201241D01*
X151187095Y-94201351D01*
X151221651Y-94201467D01*
X151254905Y-94201587D01*
X151286656Y-94201710D01*
X151316705Y-94201835D01*
X151344850Y-94201961D01*
X151370892Y-94202087D01*
X151394631Y-94202211D01*
X151415865Y-94202334D01*
X151434395Y-94202453D01*
X151450020Y-94202568D01*
X151462540Y-94202678D01*
X151471754Y-94202781D01*
X151477463Y-94202877D01*
X151479465Y-94202965D01*
X151479548Y-94203934D01*
X151479305Y-94208274D01*
X151478668Y-94215575D01*
X151477700Y-94225284D01*
X151476463Y-94236846D01*
X151475020Y-94249707D01*
X151473433Y-94263313D01*
X151471766Y-94277108D01*
X151470081Y-94290538D01*
X151468440Y-94303050D01*
X151466906Y-94314088D01*
X151461926Y-94347317D01*
X151451625Y-94409172D01*
X151440250Y-94469375D01*
X151427865Y-94527702D01*
X151414533Y-94583932D01*
X151400318Y-94637840D01*
X151385283Y-94689204D01*
X151369491Y-94737802D01*
X151353006Y-94783409D01*
X151335892Y-94825803D01*
X151318212Y-94864762D01*
X151300029Y-94900062D01*
X151287169Y-94922351D01*
X151266339Y-94954447D01*
X151244598Y-94983314D01*
X151222056Y-95008843D01*
X151198824Y-95030919D01*
X151175014Y-95049433D01*
X151150736Y-95064271D01*
X151126101Y-95075323D01*
X151109015Y-95080586D01*
X151086407Y-95085073D01*
X151063014Y-95087338D01*
X151040083Y-95087273D01*
X151018863Y-95084767D01*
X150990514Y-95077828D01*
X150961672Y-95067069D01*
X150934814Y-95052955D01*
X150909943Y-95035493D01*
X150887067Y-95014693D01*
X150866191Y-94990563D01*
X150847322Y-94963112D01*
X150830464Y-94932349D01*
X150815625Y-94898282D01*
X150802810Y-94860920D01*
X150792025Y-94820272D01*
X150783276Y-94776347D01*
X150776570Y-94729153D01*
X150775699Y-94721460D01*
X150773695Y-94701359D01*
X150772138Y-94681401D01*
X150771002Y-94660913D01*
X150770264Y-94639222D01*
X150769896Y-94615654D01*
X150769873Y-94589537D01*
X150769972Y-94579751D01*
X150850602Y-94579751D01*
X150850635Y-94600756D01*
X150850779Y-94621166D01*
X150851035Y-94640428D01*
X150851402Y-94657991D01*
X150851881Y-94673304D01*
X150852472Y-94685814D01*
X150853174Y-94694971D01*
X150856217Y-94721432D01*
X150862278Y-94762452D01*
X150869635Y-94799948D01*
X150878325Y-94834037D01*
X150888390Y-94864831D01*
X150899868Y-94892447D01*
X150912799Y-94916999D01*
X150927221Y-94938601D01*
X150943175Y-94957369D01*
X150960551Y-94973449D01*
X150979423Y-94986649D01*
X150999785Y-94996678D01*
X151022267Y-95003906D01*
X151023228Y-95004145D01*
X151031754Y-95005961D01*
X151039874Y-95006969D01*
X151049017Y-95007285D01*
X151060612Y-95007024D01*
X151068066Y-95006682D01*
X151076964Y-95005956D01*
X151084174Y-95004760D01*
X151091030Y-95002847D01*
X151098866Y-94999972D01*
X151110361Y-94994850D01*
X151130816Y-94982630D01*
X151150903Y-94966628D01*
X151170590Y-94946915D01*
X151189842Y-94923562D01*
X151208624Y-94896641D01*
X151226904Y-94866223D01*
X151244645Y-94832379D01*
X151261815Y-94795183D01*
X151278379Y-94754704D01*
X151294303Y-94711014D01*
X151309552Y-94664185D01*
X151324093Y-94614289D01*
X151337892Y-94561397D01*
X151350914Y-94505579D01*
X151363125Y-94446909D01*
X151366398Y-94429917D01*
X151369781Y-94411723D01*
X151373106Y-94393264D01*
X151376306Y-94374950D01*
X151379316Y-94357191D01*
X151382069Y-94340399D01*
X151384499Y-94324984D01*
X151386541Y-94311356D01*
X151388127Y-94299926D01*
X151389193Y-94291104D01*
X151389672Y-94285301D01*
X151389499Y-94282927D01*
X151389275Y-94282886D01*
X151386073Y-94282750D01*
X151379264Y-94282611D01*
X151369079Y-94282469D01*
X151355746Y-94282328D01*
X151339495Y-94282187D01*
X151320556Y-94282049D01*
X151299158Y-94281915D01*
X151275530Y-94281787D01*
X151249901Y-94281665D01*
X151222503Y-94281552D01*
X151193563Y-94281449D01*
X151163312Y-94281357D01*
X151131978Y-94281278D01*
X150875524Y-94280697D01*
X150874422Y-94285185D01*
X150874079Y-94286680D01*
X150872678Y-94294226D01*
X150871001Y-94305017D01*
X150869106Y-94318553D01*
X150867053Y-94334331D01*
X150864900Y-94351851D01*
X150862706Y-94370610D01*
X150860532Y-94390109D01*
X150858434Y-94409845D01*
X150856474Y-94429317D01*
X150854709Y-94448024D01*
X150853198Y-94465465D01*
X150852737Y-94472078D01*
X150852104Y-94485080D01*
X150851581Y-94500795D01*
X150851169Y-94518671D01*
X150850869Y-94538156D01*
X150850680Y-94558700D01*
X150850602Y-94579751D01*
X150769972Y-94579751D01*
X150770171Y-94560197D01*
X150771038Y-94520921D01*
X150772827Y-94477513D01*
X150775548Y-94435603D01*
X150779299Y-94393933D01*
X150784181Y-94351244D01*
X150790293Y-94306275D01*
X150790589Y-94304249D01*
X150792456Y-94291921D01*
X150794592Y-94278421D01*
X150796888Y-94264378D01*
X150799235Y-94250421D01*
X150801526Y-94237178D01*
X150803651Y-94225279D01*
X150805502Y-94215353D01*
X150806971Y-94208030D01*
X150807949Y-94203937D01*
X150807975Y-94203858D01*
X150808222Y-94203397D01*
X150808749Y-94202977D01*
X150809727Y-94202598D01*
X150811330Y-94202258D01*
X150813730Y-94201956D01*
X150817100Y-94201690D01*
X150821613Y-94201459D01*
X150827441Y-94201261D01*
X150834758Y-94201095D01*
X150843735Y-94200960D01*
X150854546Y-94200854D01*
X150867364Y-94200776D01*
X150882361Y-94200724D01*
X150899709Y-94200698D01*
X150919583Y-94200695D01*
X150942153Y-94200714D01*
G37*
G36*
X149977768Y-91900472D02*
G01*
X149997070Y-91900639D01*
X150017218Y-91900880D01*
X150037708Y-91901188D01*
X150058037Y-91901554D01*
X150077702Y-91901973D01*
X150096199Y-91902435D01*
X150113025Y-91902934D01*
X150127678Y-91903463D01*
X150139652Y-91904013D01*
X150148446Y-91904577D01*
X150198538Y-91909154D01*
X150270706Y-91917752D01*
X150341009Y-91928628D01*
X150410322Y-91941921D01*
X150479521Y-91957774D01*
X150495386Y-91961769D01*
X150579781Y-91985385D01*
X150663040Y-92012674D01*
X150745009Y-92043558D01*
X150825531Y-92077958D01*
X150904450Y-92115796D01*
X150981610Y-92156994D01*
X151056855Y-92201474D01*
X151130029Y-92249157D01*
X151200976Y-92299966D01*
X151269541Y-92353822D01*
X151318798Y-92395709D01*
X151382902Y-92454596D01*
X151444576Y-92516377D01*
X151503601Y-92580812D01*
X151559759Y-92647660D01*
X151612832Y-92716678D01*
X151662600Y-92787627D01*
X151671118Y-92800468D01*
X151718135Y-92875465D01*
X151761665Y-92952191D01*
X151801677Y-93030556D01*
X151838138Y-93110471D01*
X151871015Y-93191843D01*
X151900277Y-93274584D01*
X151925891Y-93358603D01*
X151947824Y-93443810D01*
X151966045Y-93530114D01*
X151980520Y-93617425D01*
X151991219Y-93705653D01*
X151992285Y-93716544D01*
X151993910Y-93734025D01*
X151995263Y-93750134D01*
X151996367Y-93765458D01*
X151997246Y-93780583D01*
X151997924Y-93796096D01*
X151998426Y-93812583D01*
X151998774Y-93830631D01*
X151998993Y-93850825D01*
X151999107Y-93873753D01*
X151999140Y-93900000D01*
X151999130Y-93915521D01*
X151999053Y-93939789D01*
X151998882Y-93961075D01*
X151998591Y-93979964D01*
X151998158Y-93997044D01*
X151997558Y-94012899D01*
X151996767Y-94028118D01*
X151995761Y-94043286D01*
X151994518Y-94058989D01*
X151993011Y-94075815D01*
X151991219Y-94094348D01*
X151985603Y-94144537D01*
X151972812Y-94231680D01*
X151956282Y-94317954D01*
X151936063Y-94403234D01*
X151912207Y-94487398D01*
X151884765Y-94570325D01*
X151853786Y-94651892D01*
X151819323Y-94731976D01*
X151781426Y-94810455D01*
X151740146Y-94887206D01*
X151695534Y-94962108D01*
X151647640Y-95035038D01*
X151596516Y-95105874D01*
X151542212Y-95174493D01*
X151506019Y-95216833D01*
X151463372Y-95263750D01*
X151418705Y-95310032D01*
X151372795Y-95354900D01*
X151326418Y-95397574D01*
X151280352Y-95437275D01*
X151262602Y-95451862D01*
X151192714Y-95506142D01*
X151120768Y-95557131D01*
X151046866Y-95604783D01*
X150971110Y-95649057D01*
X150893601Y-95689908D01*
X150814442Y-95727294D01*
X150733734Y-95761170D01*
X150651579Y-95791493D01*
X150568079Y-95818220D01*
X150483337Y-95841308D01*
X150397453Y-95860712D01*
X150310530Y-95876390D01*
X150222669Y-95888298D01*
X150209528Y-95889765D01*
X150189244Y-95891910D01*
X150170455Y-95893708D01*
X150152561Y-95895187D01*
X150134962Y-95896377D01*
X150117057Y-95897306D01*
X150098247Y-95898004D01*
X150077932Y-95898501D01*
X150055511Y-95898826D01*
X150030385Y-95899008D01*
X150001953Y-95899076D01*
X149997101Y-95899078D01*
X149971524Y-95899056D01*
X149949169Y-95898954D01*
X149929454Y-95898745D01*
X149911795Y-95898405D01*
X149895612Y-95897909D01*
X149880320Y-95897233D01*
X149865338Y-95896350D01*
X149850084Y-95895236D01*
X149833975Y-95893866D01*
X149816428Y-95892215D01*
X149796862Y-95890258D01*
X149791042Y-95889655D01*
X149703718Y-95878531D01*
X149617079Y-95863584D01*
X149531250Y-95844857D01*
X149446360Y-95822393D01*
X149362535Y-95796235D01*
X149279904Y-95766424D01*
X149198592Y-95733003D01*
X149118727Y-95696015D01*
X149040436Y-95655503D01*
X148963847Y-95611509D01*
X148936081Y-95594276D01*
X148905484Y-95574395D01*
X148873780Y-95552988D01*
X148841737Y-95530602D01*
X148810121Y-95507779D01*
X148779699Y-95485067D01*
X148751239Y-95463008D01*
X148725507Y-95442150D01*
X148702458Y-95422669D01*
X148642054Y-95368787D01*
X148583826Y-95312685D01*
X148528201Y-95254801D01*
X148475603Y-95195570D01*
X148426457Y-95135428D01*
X148395584Y-95094930D01*
X148344178Y-95022502D01*
X148296185Y-94948224D01*
X148251639Y-94872181D01*
X148210576Y-94794460D01*
X148173031Y-94715148D01*
X148139040Y-94634331D01*
X148108638Y-94552096D01*
X148081860Y-94468529D01*
X148058743Y-94383716D01*
X148039320Y-94297745D01*
X148023628Y-94210701D01*
X148011702Y-94122670D01*
X148009677Y-94104422D01*
X148007641Y-94084845D01*
X148005939Y-94066639D01*
X148004544Y-94049218D01*
X148003426Y-94031996D01*
X148002557Y-94014386D01*
X148001910Y-93995802D01*
X148001456Y-93975658D01*
X148001167Y-93953367D01*
X148001014Y-93928344D01*
X148000969Y-93900000D01*
X148000996Y-93879234D01*
X148080958Y-93879234D01*
X148080979Y-93897125D01*
X148081067Y-93915402D01*
X148081221Y-93933637D01*
X148081440Y-93951402D01*
X148081722Y-93968268D01*
X148082067Y-93983806D01*
X148082473Y-93997588D01*
X148082940Y-94009186D01*
X148083465Y-94018172D01*
X148087589Y-94067344D01*
X148097131Y-94151555D01*
X148109686Y-94233566D01*
X148125327Y-94313639D01*
X148144125Y-94392040D01*
X148166154Y-94469033D01*
X148191485Y-94544883D01*
X148220190Y-94619854D01*
X148252341Y-94694211D01*
X148288011Y-94768218D01*
X148301213Y-94793804D01*
X148343191Y-94869552D01*
X148388312Y-94943022D01*
X148436500Y-95014141D01*
X148487680Y-95082833D01*
X148541776Y-95149023D01*
X148598712Y-95212637D01*
X148658414Y-95273599D01*
X148720806Y-95331835D01*
X148785811Y-95387271D01*
X148853355Y-95439830D01*
X148923363Y-95489439D01*
X148995757Y-95536022D01*
X149070464Y-95579505D01*
X149147408Y-95619812D01*
X149165543Y-95628694D01*
X149240683Y-95663150D01*
X149316380Y-95694060D01*
X149392873Y-95721488D01*
X149470398Y-95745498D01*
X149549194Y-95766153D01*
X149629497Y-95783517D01*
X149711546Y-95797654D01*
X149795577Y-95808628D01*
X149881828Y-95816501D01*
X149891139Y-95817053D01*
X149905825Y-95817640D01*
X149923313Y-95818112D01*
X149942993Y-95818468D01*
X149964256Y-95818709D01*
X149986492Y-95818835D01*
X150009092Y-95818846D01*
X150031444Y-95818741D01*
X150052941Y-95818521D01*
X150072972Y-95818185D01*
X150090927Y-95817735D01*
X150106196Y-95817169D01*
X150118171Y-95816488D01*
X150130622Y-95815552D01*
X150198219Y-95809399D01*
X150263050Y-95801586D01*
X150325827Y-95791980D01*
X150387262Y-95780451D01*
X150448066Y-95766867D01*
X150508951Y-95751096D01*
X150570629Y-95733009D01*
X150617709Y-95717747D01*
X150697839Y-95688553D01*
X150776567Y-95655781D01*
X150853754Y-95619521D01*
X150929260Y-95579865D01*
X151002948Y-95536903D01*
X151074677Y-95490729D01*
X151144309Y-95441432D01*
X151211705Y-95389104D01*
X151276725Y-95333836D01*
X151339231Y-95275720D01*
X151399084Y-95214848D01*
X151456144Y-95151310D01*
X151482832Y-95119535D01*
X151535094Y-95053076D01*
X151584043Y-94984812D01*
X151629876Y-94914450D01*
X151672785Y-94841698D01*
X151712967Y-94766265D01*
X151730787Y-94730166D01*
X151764777Y-94655685D01*
X151795272Y-94580621D01*
X151822341Y-94504727D01*
X151846049Y-94427758D01*
X151866465Y-94349468D01*
X151883654Y-94269609D01*
X151897684Y-94187938D01*
X151908622Y-94104208D01*
X151916534Y-94018172D01*
X151916607Y-94017156D01*
X151917147Y-94007493D01*
X151917622Y-93995314D01*
X151918030Y-93981048D01*
X151918372Y-93965123D01*
X151918646Y-93947967D01*
X151918852Y-93930008D01*
X151918988Y-93911674D01*
X151919054Y-93893393D01*
X151919049Y-93875593D01*
X151918972Y-93858703D01*
X151918822Y-93843149D01*
X151918599Y-93829361D01*
X151918301Y-93817767D01*
X151917928Y-93808794D01*
X151917480Y-93802870D01*
X151916954Y-93800425D01*
X151916549Y-93800204D01*
X151912922Y-93799098D01*
X151905904Y-93797352D01*
X151895827Y-93795035D01*
X151883022Y-93792216D01*
X151867820Y-93788963D01*
X151850555Y-93785345D01*
X151831556Y-93781429D01*
X151811157Y-93777286D01*
X151789688Y-93772982D01*
X151767482Y-93768588D01*
X151744869Y-93764170D01*
X151722183Y-93759799D01*
X151699753Y-93755542D01*
X151609759Y-93739045D01*
X151422547Y-93707576D01*
X151235579Y-93680004D01*
X151048843Y-93656326D01*
X150862327Y-93636542D01*
X150676018Y-93620651D01*
X150489905Y-93608652D01*
X150303974Y-93600543D01*
X150118214Y-93596324D01*
X149932613Y-93595992D01*
X149918875Y-93596116D01*
X149875864Y-93596570D01*
X149836292Y-93597099D01*
X149799802Y-93597709D01*
X149766037Y-93598410D01*
X149734636Y-93599209D01*
X149705244Y-93600114D01*
X149677502Y-93601133D01*
X149651051Y-93602275D01*
X149623412Y-93603560D01*
X149622217Y-93587219D01*
X149621508Y-93576845D01*
X149620195Y-93553857D01*
X149618987Y-93527676D01*
X149617890Y-93498774D01*
X149616914Y-93467623D01*
X149616067Y-93434694D01*
X149615357Y-93400458D01*
X149614791Y-93365388D01*
X149614379Y-93329955D01*
X149614127Y-93294631D01*
X149614046Y-93259887D01*
X149614141Y-93226194D01*
X149614423Y-93194025D01*
X149614898Y-93163851D01*
X149615163Y-93150836D01*
X149615586Y-93131369D01*
X149616011Y-93113319D01*
X149616428Y-93097041D01*
X149616826Y-93082891D01*
X149617195Y-93071225D01*
X149617525Y-93062398D01*
X149617806Y-93056765D01*
X149618028Y-93054683D01*
X149618244Y-93054589D01*
X149621419Y-93054142D01*
X149628018Y-93053581D01*
X149637658Y-93052926D01*
X149649955Y-93052196D01*
X149664528Y-93051410D01*
X149680993Y-93050589D01*
X149698967Y-93049750D01*
X149718068Y-93048914D01*
X149737914Y-93048099D01*
X149758121Y-93047325D01*
X149778306Y-93046611D01*
X149919241Y-93043423D01*
X150071529Y-93043505D01*
X150224261Y-93047245D01*
X150377500Y-93054649D01*
X150531309Y-93065727D01*
X150685749Y-93080485D01*
X150840883Y-93098930D01*
X150996773Y-93121070D01*
X151153481Y-93146912D01*
X151311070Y-93176465D01*
X151469601Y-93209734D01*
X151629137Y-93246729D01*
X151789741Y-93287455D01*
X151801371Y-93290512D01*
X151809973Y-93292692D01*
X151815793Y-93293998D01*
X151819330Y-93294500D01*
X151821084Y-93294270D01*
X151821554Y-93293377D01*
X151821241Y-93291891D01*
X151821234Y-93291871D01*
X151820166Y-93288702D01*
X151818006Y-93282524D01*
X151814987Y-93273994D01*
X151811342Y-93263767D01*
X151807302Y-93252500D01*
X151801847Y-93237522D01*
X151769985Y-93156736D01*
X151734623Y-93077628D01*
X151695820Y-93000304D01*
X151653634Y-92924869D01*
X151608124Y-92851430D01*
X151559349Y-92780092D01*
X151507368Y-92710962D01*
X151505338Y-92708390D01*
X151497339Y-92698387D01*
X151491180Y-92691005D01*
X151486457Y-92685824D01*
X151482766Y-92682424D01*
X151479701Y-92680384D01*
X151476858Y-92679285D01*
X151472393Y-92678125D01*
X151462902Y-92675770D01*
X151450530Y-92672785D01*
X151435835Y-92669303D01*
X151419376Y-92665453D01*
X151401712Y-92661368D01*
X151383400Y-92657178D01*
X151365000Y-92653014D01*
X151299325Y-92638577D01*
X151153176Y-92608875D01*
X151007972Y-92582759D01*
X150863401Y-92560185D01*
X150719148Y-92541110D01*
X150574902Y-92525490D01*
X150430348Y-92513284D01*
X150285173Y-92504446D01*
X150271149Y-92503777D01*
X150200865Y-92501016D01*
X150128439Y-92499107D01*
X150054723Y-92498050D01*
X149980567Y-92497841D01*
X149906822Y-92498481D01*
X149834339Y-92499967D01*
X149763969Y-92502298D01*
X149696562Y-92505472D01*
X149694529Y-92505582D01*
X149682808Y-92506150D01*
X149672555Y-92506540D01*
X149664377Y-92506736D01*
X149658883Y-92506724D01*
X149656681Y-92506487D01*
X149656613Y-92506374D01*
X149656440Y-92503443D01*
X149656766Y-92496955D01*
X149657559Y-92487185D01*
X149658783Y-92474406D01*
X149660404Y-92458891D01*
X149662386Y-92440916D01*
X149664696Y-92420752D01*
X149667298Y-92398674D01*
X149670157Y-92374956D01*
X149673240Y-92349871D01*
X149676511Y-92323693D01*
X149679936Y-92296695D01*
X149683480Y-92269152D01*
X149687108Y-92241336D01*
X149690786Y-92213523D01*
X149694479Y-92185984D01*
X149698153Y-92158994D01*
X149701771Y-92132827D01*
X149705301Y-92107756D01*
X149708708Y-92084055D01*
X149711955Y-92061998D01*
X149715010Y-92041858D01*
X149717837Y-92023908D01*
X149718435Y-92020139D01*
X149719582Y-92012568D01*
X149720378Y-92006811D01*
X149720678Y-92003888D01*
X149720643Y-92003306D01*
X149720218Y-92002394D01*
X149718999Y-92001830D01*
X149716606Y-92001656D01*
X149712657Y-92001918D01*
X149706771Y-92002658D01*
X149698566Y-92003920D01*
X149687662Y-92005748D01*
X149673676Y-92008186D01*
X149656228Y-92011277D01*
X149646292Y-92013075D01*
X149575410Y-92027698D01*
X149503617Y-92045558D01*
X149431644Y-92066432D01*
X149360220Y-92090094D01*
X149290077Y-92116320D01*
X149221946Y-92144885D01*
X149213686Y-92148573D01*
X149199191Y-92155160D01*
X149185216Y-92161647D01*
X149172196Y-92167821D01*
X149160566Y-92173469D01*
X149150763Y-92178378D01*
X149143221Y-92182336D01*
X149138377Y-92185130D01*
X149136665Y-92186546D01*
X149136616Y-92187073D01*
X149136128Y-92190859D01*
X149135172Y-92197821D01*
X149133816Y-92207474D01*
X149132130Y-92219332D01*
X149130181Y-92232909D01*
X149128038Y-92247721D01*
X149126727Y-92256777D01*
X149120072Y-92303918D01*
X149113921Y-92349610D01*
X149108104Y-92395193D01*
X149102449Y-92442003D01*
X149096784Y-92491377D01*
X149096198Y-92496596D01*
X149094322Y-92513128D01*
X149092575Y-92528280D01*
X149091006Y-92541633D01*
X149089666Y-92552772D01*
X149088604Y-92561279D01*
X149087871Y-92566737D01*
X149087516Y-92568730D01*
X149085902Y-92569104D01*
X149080982Y-92569995D01*
X149073384Y-92571278D01*
X149063738Y-92572848D01*
X149052676Y-92574597D01*
X149022940Y-92579385D01*
X148978739Y-92586967D01*
X148931846Y-92595499D01*
X148882867Y-92604856D01*
X148832405Y-92614917D01*
X148781065Y-92625556D01*
X148729451Y-92636651D01*
X148678169Y-92648078D01*
X148627821Y-92659713D01*
X148579014Y-92671433D01*
X148565334Y-92674761D01*
X148550190Y-92678425D01*
X148538032Y-92681437D01*
X148528414Y-92684015D01*
X148520890Y-92686375D01*
X148515015Y-92688734D01*
X148510343Y-92691309D01*
X148506429Y-92694316D01*
X148502826Y-92697972D01*
X148499089Y-92702495D01*
X148494773Y-92708100D01*
X148489431Y-92715005D01*
X148468557Y-92742040D01*
X148418970Y-92810728D01*
X148372315Y-92881966D01*
X148328640Y-92955677D01*
X148287995Y-93031783D01*
X148284113Y-93039472D01*
X148272982Y-93061779D01*
X148263195Y-93081897D01*
X148254330Y-93100755D01*
X148245964Y-93119284D01*
X148237674Y-93138412D01*
X148229040Y-93159068D01*
X148219637Y-93182183D01*
X148217849Y-93186649D01*
X148212791Y-93199509D01*
X148207442Y-93213392D01*
X148201972Y-93227831D01*
X148196550Y-93242358D01*
X148191346Y-93256509D01*
X148186529Y-93269814D01*
X148182269Y-93281809D01*
X148178736Y-93292025D01*
X148176098Y-93299997D01*
X148174526Y-93305257D01*
X148174189Y-93307338D01*
X148175758Y-93307114D01*
X148180530Y-93305946D01*
X148187896Y-93303964D01*
X148197246Y-93301333D01*
X148207968Y-93298218D01*
X148218664Y-93295080D01*
X148289404Y-93274989D01*
X148363166Y-93255123D01*
X148439184Y-93235661D01*
X148516695Y-93216779D01*
X148594933Y-93198656D01*
X148673132Y-93181470D01*
X148750528Y-93165400D01*
X148826355Y-93150621D01*
X148899848Y-93137314D01*
X148908379Y-93135841D01*
X148924585Y-93133083D01*
X148941562Y-93130236D01*
X148958849Y-93127375D01*
X148975983Y-93124573D01*
X148992501Y-93121905D01*
X149007943Y-93119444D01*
X149021844Y-93117265D01*
X149033743Y-93115441D01*
X149043178Y-93114047D01*
X149049685Y-93113156D01*
X149052803Y-93112843D01*
X149057006Y-93112843D01*
X149055656Y-93165092D01*
X149055411Y-93176409D01*
X149055124Y-93202316D01*
X149055119Y-93231410D01*
X149055380Y-93263216D01*
X149055894Y-93297257D01*
X149056645Y-93333058D01*
X149057620Y-93370143D01*
X149058805Y-93408036D01*
X149060184Y-93446261D01*
X149061745Y-93484342D01*
X149063471Y-93521804D01*
X149065350Y-93558171D01*
X149067366Y-93592967D01*
X149069506Y-93625715D01*
X149070740Y-93643440D01*
X149037780Y-93646853D01*
X149035383Y-93647102D01*
X148984687Y-93652606D01*
X148930894Y-93658877D01*
X148874684Y-93665821D01*
X148816737Y-93673344D01*
X148757731Y-93681351D01*
X148698347Y-93689750D01*
X148639263Y-93698444D01*
X148581159Y-93707342D01*
X148524714Y-93716348D01*
X148470609Y-93725368D01*
X148461083Y-93727003D01*
X148438385Y-93730960D01*
X148414373Y-93735222D01*
X148389335Y-93739735D01*
X148363556Y-93744442D01*
X148337324Y-93749289D01*
X148310925Y-93754219D01*
X148284645Y-93759176D01*
X148258771Y-93764106D01*
X148233589Y-93768953D01*
X148209387Y-93773660D01*
X148186450Y-93778173D01*
X148165064Y-93782436D01*
X148145518Y-93786393D01*
X148128096Y-93789989D01*
X148113086Y-93793167D01*
X148100774Y-93795874D01*
X148091447Y-93798051D01*
X148085391Y-93799646D01*
X148082892Y-93800601D01*
X148082780Y-93800803D01*
X148082301Y-93803993D01*
X148081896Y-93810569D01*
X148081566Y-93820102D01*
X148081308Y-93832163D01*
X148081121Y-93846324D01*
X148081005Y-93862157D01*
X148080958Y-93879234D01*
X148000996Y-93879234D01*
X148001001Y-93875572D01*
X148001136Y-93850100D01*
X148001404Y-93827447D01*
X148001832Y-93807027D01*
X148002450Y-93788252D01*
X148003284Y-93770536D01*
X148004364Y-93753294D01*
X148005717Y-93735939D01*
X148007373Y-93717884D01*
X148009358Y-93698543D01*
X148011702Y-93677331D01*
X148013140Y-93664988D01*
X148025565Y-93577331D01*
X148041751Y-93490606D01*
X148061657Y-93404920D01*
X148085239Y-93320376D01*
X148112458Y-93237080D01*
X148143270Y-93155137D01*
X148177634Y-93074652D01*
X148215509Y-92995731D01*
X148256852Y-92918478D01*
X148301621Y-92842998D01*
X148349776Y-92769396D01*
X148401273Y-92697778D01*
X148422629Y-92669800D01*
X148448255Y-92637372D01*
X148473575Y-92606722D01*
X148499288Y-92577044D01*
X148526096Y-92547534D01*
X148554698Y-92517386D01*
X148585796Y-92485797D01*
X148594586Y-92477054D01*
X148608318Y-92463559D01*
X148622219Y-92450070D01*
X148635707Y-92437144D01*
X148648203Y-92425337D01*
X148659123Y-92415204D01*
X148667886Y-92407301D01*
X148702667Y-92377274D01*
X148771830Y-92321178D01*
X148842405Y-92268677D01*
X148914521Y-92219694D01*
X148988306Y-92174151D01*
X149063888Y-92131972D01*
X149141394Y-92093080D01*
X149220952Y-92057397D01*
X149302691Y-92024847D01*
X149325872Y-92016353D01*
X149400552Y-91991314D01*
X149477094Y-91969055D01*
X149554911Y-91949701D01*
X149633416Y-91933378D01*
X149712020Y-91920213D01*
X149790137Y-91910331D01*
X149867179Y-91903858D01*
X149875676Y-91903329D01*
X149887292Y-91902597D01*
X149897662Y-91901935D01*
X149905902Y-91901398D01*
X149911127Y-91901043D01*
X149911557Y-91901013D01*
X149919082Y-91900697D01*
X149929968Y-91900492D01*
X149943714Y-91900391D01*
X149959815Y-91900387D01*
X149977768Y-91900472D01*
G37*
%TD*%
%LPC*%
D12*
%TO.C,J5*%
X171296051Y-83296051D03*
X166985528Y-80422369D03*
X168422369Y-78985528D03*
%TD*%
D13*
%TO.C,H2*%
X175750000Y-105750000D03*
%TD*%
D14*
%TO.C,H3*%
X146800000Y-114000000D03*
%TD*%
D15*
%TO.C,C1*%
X169134976Y-106522484D03*
D16*
X166865024Y-110977517D03*
%TD*%
D17*
%TO.C,J1*%
X126063484Y-107932040D03*
D14*
X127936517Y-112567959D03*
%TD*%
D18*
%TO.C,M2*%
X167250000Y-101500000D03*
X167250000Y-98500000D03*
%TD*%
D13*
%TO.C,H1*%
X126250000Y-92000000D03*
%TD*%
D19*
%TO.C,TH1*%
X133289230Y-106915681D03*
X138210770Y-107084319D03*
%TD*%
D14*
%TO.C,H4*%
X153200000Y-114000000D03*
%TD*%
D18*
%TO.C,M1*%
X132750000Y-101500000D03*
X132750000Y-98500000D03*
%TD*%
D20*
%TO.C,J3*%
X161650000Y-87250000D03*
D21*
X164190000Y-87250000D03*
X166730000Y-87250000D03*
X169270000Y-87250000D03*
X171810000Y-87250000D03*
X174350000Y-87250000D03*
%TD*%
%LPD*%
M02*
