%TF.GenerationSoftware,KiCad,Pcbnew,7.0.10*%
%TF.CreationDate,2024-02-08T00:21:34+01:00*%
%TF.ProjectId,robot_pcb,726f626f-745f-4706-9362-2e6b69636164,rev?*%
%TF.SameCoordinates,Original*%
%TF.FileFunction,Soldermask,Top*%
%TF.FilePolarity,Negative*%
%FSLAX46Y46*%
G04 Gerber Fmt 4.6, Leading zero omitted, Abs format (unit mm)*
G04 Created by KiCad (PCBNEW 7.0.10) date 2024-02-08 00:21:34*
%MOMM*%
%LPD*%
G01*
G04 APERTURE LIST*
G04 Aperture macros list*
%AMRoundRect*
0 Rectangle with rounded corners*
0 $1 Rounding radius*
0 $2 $3 $4 $5 $6 $7 $8 $9 X,Y pos of 4 corners*
0 Add a 4 corners polygon primitive as box body*
4,1,4,$2,$3,$4,$5,$6,$7,$8,$9,$2,$3,0*
0 Add four circle primitives for the rounded corners*
1,1,$1+$1,$2,$3*
1,1,$1+$1,$4,$5*
1,1,$1+$1,$6,$7*
1,1,$1+$1,$8,$9*
0 Add four rect primitives between the rounded corners*
20,1,$1+$1,$2,$3,$4,$5,0*
20,1,$1+$1,$4,$5,$6,$7,0*
20,1,$1+$1,$6,$7,$8,$9,0*
20,1,$1+$1,$8,$9,$2,$3,0*%
%AMHorizOval*
0 Thick line with rounded ends*
0 $1 width*
0 $2 $3 position (X,Y) of the first rounded end (center of the circle)*
0 $4 $5 position (X,Y) of the second rounded end (center of the circle)*
0 Add line between two ends*
20,1,$1,$2,$3,$4,$5,0*
0 Add two circle primitives to create the rounded ends*
1,1,$1,$2,$3*
1,1,$1,$4,$5*%
%AMRotRect*
0 Rectangle, with rotation*
0 The origin of the aperture is its center*
0 $1 length*
0 $2 width*
0 $3 Rotation angle, in degrees counterclockwise*
0 Add horizontal line*
21,1,$1,$2,0,0,$3*%
%AMFreePoly0*
4,1,19,0.500000,-0.750000,0.000000,-0.750000,0.000000,-0.744911,-0.071157,-0.744911,-0.207708,-0.704816,-0.327430,-0.627875,-0.420627,-0.520320,-0.479746,-0.390866,-0.500000,-0.250000,-0.500000,0.250000,-0.479746,0.390866,-0.420627,0.520320,-0.327430,0.627875,-0.207708,0.704816,-0.071157,0.744911,0.000000,0.744911,0.000000,0.750000,0.500000,0.750000,0.500000,-0.750000,0.500000,-0.750000,
$1*%
%AMFreePoly1*
4,1,19,0.000000,0.744911,0.071157,0.744911,0.207708,0.704816,0.327430,0.627875,0.420627,0.520320,0.479746,0.390866,0.500000,0.250000,0.500000,-0.250000,0.479746,-0.390866,0.420627,-0.520320,0.327430,-0.627875,0.207708,-0.704816,0.071157,-0.744911,0.000000,-0.744911,0.000000,-0.750000,-0.500000,-0.750000,-0.500000,0.750000,0.000000,0.750000,0.000000,0.744911,0.000000,0.744911,
$1*%
G04 Aperture macros list end*
%ADD10R,1.500000X0.900000*%
%ADD11R,0.900000X1.500000*%
%ADD12R,3.800000X3.800000*%
%ADD13C,0.600000*%
%ADD14R,7.500000X4.000000*%
%ADD15RotRect,4.000000X7.500000X45.000000*%
%ADD16RotRect,4.000000X7.500000X225.000000*%
%ADD17RoundRect,0.250000X-0.450000X0.262500X-0.450000X-0.262500X0.450000X-0.262500X0.450000X0.262500X0*%
%ADD18R,0.700000X0.350000*%
%ADD19R,0.900000X0.350000*%
%ADD20RoundRect,0.250000X0.475000X-0.250000X0.475000X0.250000X-0.475000X0.250000X-0.475000X-0.250000X0*%
%ADD21FreePoly0,180.000000*%
%ADD22FreePoly1,180.000000*%
%ADD23C,0.990600*%
%ADD24C,0.787400*%
%ADD25RoundRect,0.250000X0.503814X0.132583X0.132583X0.503814X-0.503814X-0.132583X-0.132583X-0.503814X0*%
%ADD26C,3.200000*%
%ADD27RoundRect,0.250000X0.262500X0.450000X-0.262500X0.450000X-0.262500X-0.450000X0.262500X-0.450000X0*%
%ADD28R,1.100000X1.450000*%
%ADD29R,0.800000X0.800000*%
%ADD30RoundRect,0.250000X0.450000X-0.262500X0.450000X0.262500X-0.450000X0.262500X-0.450000X-0.262500X0*%
%ADD31C,2.500000*%
%ADD32RoundRect,0.218750X-0.706250X0.218750X-0.706250X-0.218750X0.706250X-0.218750X0.706250X0.218750X0*%
%ADD33RoundRect,0.250000X0.250000X0.475000X-0.250000X0.475000X-0.250000X-0.475000X0.250000X-0.475000X0*%
%ADD34RotRect,2.500000X2.000000X333.000000*%
%ADD35HorizOval,2.000000X0.222752X-0.113498X-0.222752X0.113498X0*%
%ADD36C,2.000000*%
%ADD37RoundRect,0.150000X0.150000X-0.512500X0.150000X0.512500X-0.150000X0.512500X-0.150000X-0.512500X0*%
%ADD38RotRect,2.500000X2.500000X292.000000*%
%ADD39C,1.800000*%
%ADD40R,2.100000X1.400000*%
%ADD41RoundRect,0.250000X-0.132583X0.503814X-0.503814X0.132583X0.132583X-0.503814X0.503814X-0.132583X0*%
%ADD42RoundRect,0.150000X-0.587500X-0.150000X0.587500X-0.150000X0.587500X0.150000X-0.587500X0.150000X0*%
%ADD43C,1.600000*%
%ADD44RoundRect,0.250000X-0.262500X-0.450000X0.262500X-0.450000X0.262500X0.450000X-0.262500X0.450000X0*%
%ADD45RoundRect,0.150000X0.587500X0.150000X-0.587500X0.150000X-0.587500X-0.150000X0.587500X-0.150000X0*%
%ADD46R,1.500000X1.000000*%
%ADD47R,1.700000X1.700000*%
%ADD48O,1.700000X1.700000*%
G04 APERTURE END LIST*
D10*
%TO.C,U2*%
X141250000Y-78450000D03*
X141250000Y-79720000D03*
X141250000Y-80990000D03*
X141250000Y-82260000D03*
X141250000Y-83530000D03*
X141250000Y-84800000D03*
X141250000Y-86070000D03*
X141250000Y-87340000D03*
X141250000Y-88610000D03*
X141250000Y-89880000D03*
X141250000Y-91150000D03*
X141250000Y-92420000D03*
X141250000Y-93690000D03*
X141250000Y-94960000D03*
D11*
X144290000Y-96210000D03*
X145560000Y-96210000D03*
X146830000Y-96210000D03*
X148100000Y-96210000D03*
X149370000Y-96210000D03*
X150640000Y-96210000D03*
X151910000Y-96210000D03*
X153180000Y-96210000D03*
X154450000Y-96210000D03*
X155720000Y-96210000D03*
D10*
X158750000Y-94960000D03*
X158750000Y-93690000D03*
X158750000Y-92420000D03*
X158750000Y-91150000D03*
X158750000Y-89880000D03*
X158750000Y-88610000D03*
X158750000Y-87340000D03*
X158750000Y-86070000D03*
X158750000Y-84800000D03*
X158750000Y-83530000D03*
X158750000Y-82260000D03*
X158750000Y-80990000D03*
X158750000Y-79720000D03*
X158750000Y-78450000D03*
D12*
X148500000Y-86170000D03*
D13*
X147100000Y-85470000D03*
X149200000Y-86170000D03*
X149900000Y-86870000D03*
X147800000Y-87570000D03*
X147100000Y-86870000D03*
X147800000Y-86170000D03*
X149900000Y-85470000D03*
X147800000Y-84770000D03*
X148475000Y-85470000D03*
X149200000Y-84770000D03*
X149200000Y-87570000D03*
X148475000Y-86870000D03*
%TD*%
D14*
%TO.C,J7*%
X176000000Y-100000000D03*
%TD*%
%TO.C,J4*%
X124000000Y-100000000D03*
%TD*%
D15*
%TO.C,J2*%
X168250000Y-118250000D03*
%TD*%
D16*
%TO.C,J6*%
X132117194Y-81200000D03*
%TD*%
D17*
%TO.C,R4*%
X129000000Y-97337500D03*
X129000000Y-99162500D03*
%TD*%
%TO.C,R11*%
X140500000Y-100087500D03*
X140500000Y-101912500D03*
%TD*%
D18*
%TO.C,U17*%
X158150000Y-119900000D03*
X158150000Y-120600000D03*
D19*
X159750000Y-120600000D03*
D18*
X159850000Y-119900000D03*
%TD*%
%TO.C,U40*%
X143150000Y-124400000D03*
X143150000Y-125100000D03*
D19*
X144750000Y-125100000D03*
D18*
X144850000Y-124400000D03*
%TD*%
D17*
%TO.C,R17*%
X144600000Y-107687500D03*
X144600000Y-109512500D03*
%TD*%
D20*
%TO.C,C3*%
X147250000Y-109500000D03*
X147250000Y-107600000D03*
%TD*%
D18*
%TO.C,U30*%
X141650000Y-117650000D03*
X141650000Y-118350000D03*
D19*
X143250000Y-118350000D03*
D18*
X143350000Y-117650000D03*
%TD*%
D17*
%TO.C,R16*%
X142600000Y-107687500D03*
X142600000Y-109512500D03*
%TD*%
D21*
%TO.C,JP2*%
X135400000Y-104000000D03*
D22*
X134100000Y-104000000D03*
%TD*%
D21*
%TO.C,JP1*%
X166650000Y-84000000D03*
D22*
X165350000Y-84000000D03*
%TD*%
D23*
%TO.C,J5*%
X171296051Y-83296051D03*
X166985528Y-80422369D03*
X168422369Y-78985528D03*
D24*
X170847038Y-81949013D03*
X169949013Y-82847038D03*
X169949013Y-81050987D03*
X169050987Y-81949013D03*
X169050987Y-80152962D03*
X168152962Y-81050987D03*
%TD*%
D18*
%TO.C,U36*%
X144650000Y-117650000D03*
X144650000Y-118350000D03*
D19*
X146250000Y-118350000D03*
D18*
X146350000Y-117650000D03*
%TD*%
%TO.C,U15*%
X161150000Y-124400000D03*
X161150000Y-125100000D03*
D19*
X162750000Y-125100000D03*
D18*
X162850000Y-124400000D03*
%TD*%
D17*
%TO.C,R3*%
X152750000Y-107587500D03*
X152750000Y-109412500D03*
%TD*%
D25*
%TO.C,R2*%
X170395235Y-114895235D03*
X169104765Y-113604765D03*
%TD*%
D26*
%TO.C,H2*%
X175750000Y-105750000D03*
%TD*%
D27*
%TO.C,R13*%
X138662500Y-101750000D03*
X136837500Y-101750000D03*
%TD*%
D18*
%TO.C,U35*%
X146150000Y-124400000D03*
X146150000Y-125100000D03*
D19*
X147750000Y-125100000D03*
D18*
X147850000Y-124400000D03*
%TD*%
D28*
%TO.C,D3*%
X165250000Y-100725000D03*
D29*
X165250000Y-99100000D03*
%TD*%
D18*
%TO.C,U23*%
X144650000Y-122150000D03*
X144650000Y-122850000D03*
D19*
X146250000Y-122850000D03*
D18*
X146350000Y-122150000D03*
%TD*%
D30*
%TO.C,R9*%
X171000000Y-99162500D03*
X171000000Y-97337500D03*
%TD*%
D18*
%TO.C,U10*%
X153650000Y-117650000D03*
X153650000Y-118350000D03*
D19*
X155250000Y-118350000D03*
D18*
X155350000Y-117650000D03*
%TD*%
D31*
%TO.C,H3*%
X146800000Y-114000000D03*
%TD*%
D25*
%TO.C,R1*%
X172870109Y-117370109D03*
X171579639Y-116079639D03*
%TD*%
D18*
%TO.C,U4*%
X150650000Y-117650000D03*
X150650000Y-118350000D03*
D19*
X152250000Y-118350000D03*
D18*
X152350000Y-117650000D03*
%TD*%
D32*
%TO.C,L1*%
X147000000Y-103987500D03*
X147000000Y-106112500D03*
%TD*%
D18*
%TO.C,U12*%
X162650000Y-122150000D03*
X162650000Y-122850000D03*
D19*
X164250000Y-122850000D03*
D18*
X164350000Y-122150000D03*
%TD*%
%TO.C,U37*%
X143150000Y-119900000D03*
X143150000Y-120600000D03*
D19*
X144750000Y-120600000D03*
D18*
X144850000Y-119900000D03*
%TD*%
D17*
%TO.C,R12*%
X157400000Y-107687500D03*
X157400000Y-109512500D03*
%TD*%
D18*
%TO.C,U7*%
X150650000Y-122150000D03*
X150650000Y-122850000D03*
D19*
X152250000Y-122850000D03*
D18*
X152350000Y-122150000D03*
%TD*%
%TO.C,U26*%
X147650000Y-117650000D03*
X147650000Y-118350000D03*
D19*
X149250000Y-118350000D03*
D18*
X149350000Y-117650000D03*
%TD*%
%TO.C,U31*%
X140150000Y-119900000D03*
X140150000Y-120600000D03*
D19*
X141750000Y-120600000D03*
D18*
X141850000Y-119900000D03*
%TD*%
D33*
%TO.C,C5*%
X145450000Y-98500000D03*
X143550000Y-98500000D03*
%TD*%
D30*
%TO.C,R14*%
X159400000Y-101512500D03*
X159400000Y-99687500D03*
%TD*%
D18*
%TO.C,U14*%
X155150000Y-124400000D03*
X155150000Y-125100000D03*
D19*
X156750000Y-125100000D03*
D18*
X156850000Y-124400000D03*
%TD*%
%TO.C,U11*%
X155150000Y-119900000D03*
X155150000Y-120600000D03*
D19*
X156750000Y-120600000D03*
D18*
X156850000Y-119900000D03*
%TD*%
D28*
%TO.C,D1*%
X134750000Y-100725000D03*
D29*
X134750000Y-99100000D03*
%TD*%
D18*
%TO.C,U41*%
X144650000Y-126650000D03*
X144650000Y-127350000D03*
D19*
X146250000Y-127350000D03*
D18*
X146350000Y-126650000D03*
%TD*%
%TO.C,U38*%
X141650000Y-126650000D03*
X141650000Y-127350000D03*
D19*
X143250000Y-127350000D03*
D18*
X143350000Y-126650000D03*
%TD*%
D33*
%TO.C,C4*%
X150950000Y-104300000D03*
X149050000Y-104300000D03*
%TD*%
D34*
%TO.C,C1*%
X169134976Y-106522484D03*
D35*
X166865024Y-110977517D03*
%TD*%
D36*
%TO.C,TP3*%
X176000000Y-91250000D03*
%TD*%
D18*
%TO.C,U25*%
X137150000Y-119900000D03*
X137150000Y-120600000D03*
D19*
X138750000Y-120600000D03*
D18*
X138850000Y-119900000D03*
%TD*%
%TO.C,U42*%
X147650000Y-126650000D03*
X147650000Y-127350000D03*
D19*
X149250000Y-127350000D03*
D18*
X149350000Y-126650000D03*
%TD*%
%TO.C,U29*%
X146150000Y-119900000D03*
X146150000Y-120600000D03*
D19*
X147750000Y-120600000D03*
D18*
X147850000Y-119900000D03*
%TD*%
%TO.C,U28*%
X137150000Y-124400000D03*
X137150000Y-125100000D03*
D19*
X138750000Y-125100000D03*
D18*
X138850000Y-124400000D03*
%TD*%
D37*
%TO.C,U1*%
X149050000Y-108687500D03*
X150000000Y-108687500D03*
X150950000Y-108687500D03*
X150950000Y-106412500D03*
X150000000Y-106412500D03*
X149050000Y-106412500D03*
%TD*%
D18*
%TO.C,U19*%
X156650000Y-122150000D03*
X156650000Y-122850000D03*
D19*
X158250000Y-122850000D03*
D18*
X158350000Y-122150000D03*
%TD*%
D38*
%TO.C,J1*%
X126063484Y-107932040D03*
D31*
X127936517Y-112567959D03*
%TD*%
D39*
%TO.C,M2*%
X167250000Y-101500000D03*
X167250000Y-98500000D03*
%TD*%
D17*
%TO.C,R10*%
X155400000Y-107687500D03*
X155400000Y-109512500D03*
%TD*%
%TO.C,R5*%
X129000000Y-100837500D03*
X129000000Y-102662500D03*
%TD*%
D18*
%TO.C,U8*%
X152150000Y-124400000D03*
X152150000Y-125100000D03*
D19*
X153750000Y-125100000D03*
D18*
X153850000Y-124400000D03*
%TD*%
%TO.C,U9*%
X161150000Y-119900000D03*
X161150000Y-120600000D03*
D19*
X162750000Y-120600000D03*
D18*
X162850000Y-119900000D03*
%TD*%
D40*
%TO.C,SW1*%
X161450000Y-94750000D03*
X170550000Y-94750000D03*
X161450000Y-90250000D03*
X170550000Y-90250000D03*
%TD*%
D41*
%TO.C,R7*%
X135060527Y-85327735D03*
X133770057Y-86618205D03*
%TD*%
D18*
%TO.C,U16*%
X156650000Y-117650000D03*
X156650000Y-118350000D03*
D19*
X158250000Y-118350000D03*
D18*
X158350000Y-117650000D03*
%TD*%
%TO.C,U32*%
X147650000Y-122150000D03*
X147650000Y-122850000D03*
D19*
X149250000Y-122850000D03*
D18*
X149350000Y-122150000D03*
%TD*%
%TO.C,U34*%
X140150000Y-124400000D03*
X140150000Y-125100000D03*
D19*
X141750000Y-125100000D03*
D18*
X141850000Y-124400000D03*
%TD*%
D42*
%TO.C,Q2*%
X161562500Y-99650000D03*
X161562500Y-101550000D03*
X163437500Y-100600000D03*
%TD*%
D18*
%TO.C,U21*%
X153650000Y-126650000D03*
X153650000Y-127350000D03*
D19*
X155250000Y-127350000D03*
D18*
X155350000Y-126650000D03*
%TD*%
D26*
%TO.C,H1*%
X126250000Y-92000000D03*
%TD*%
D43*
%TO.C,TH1*%
X133289230Y-106915681D03*
X138210770Y-107084319D03*
%TD*%
D18*
%TO.C,U33*%
X138650000Y-122150000D03*
X138650000Y-122850000D03*
D19*
X140250000Y-122850000D03*
D18*
X140350000Y-122150000D03*
%TD*%
%TO.C,U39*%
X141650000Y-122150000D03*
X141650000Y-122850000D03*
D19*
X143250000Y-122850000D03*
D18*
X143350000Y-122150000D03*
%TD*%
D36*
%TO.C,TP2*%
X176000000Y-94750000D03*
%TD*%
D18*
%TO.C,U22*%
X156650000Y-126650000D03*
X156650000Y-127350000D03*
D19*
X158250000Y-127350000D03*
D18*
X158350000Y-126650000D03*
%TD*%
D44*
%TO.C,R15*%
X161487500Y-97800000D03*
X163312500Y-97800000D03*
%TD*%
D18*
%TO.C,U24*%
X138650000Y-117650000D03*
X138650000Y-118350000D03*
D19*
X140250000Y-118350000D03*
D18*
X140350000Y-117650000D03*
%TD*%
%TO.C,U27*%
X135650000Y-122150000D03*
X135650000Y-122850000D03*
D19*
X137250000Y-122850000D03*
D18*
X137350000Y-122150000D03*
%TD*%
%TO.C,U3*%
X159650000Y-122150000D03*
X159650000Y-122850000D03*
D19*
X161250000Y-122850000D03*
D18*
X161350000Y-122150000D03*
%TD*%
D45*
%TO.C,Q1*%
X138437500Y-99950000D03*
X138437500Y-98050000D03*
X136562500Y-99000000D03*
%TD*%
D18*
%TO.C,U6*%
X159650000Y-117650000D03*
X159650000Y-118350000D03*
D19*
X161250000Y-118350000D03*
D18*
X161350000Y-117650000D03*
%TD*%
D31*
%TO.C,H4*%
X153200000Y-114000000D03*
%TD*%
D46*
%TO.C,D4*%
X136700000Y-93350000D03*
X136700000Y-90150000D03*
X131800000Y-90150000D03*
X131800000Y-93350000D03*
%TD*%
D18*
%TO.C,U5*%
X152150000Y-119900000D03*
X152150000Y-120600000D03*
D19*
X153750000Y-120600000D03*
D18*
X153850000Y-119900000D03*
%TD*%
D39*
%TO.C,M1*%
X132750000Y-101500000D03*
X132750000Y-98500000D03*
%TD*%
D41*
%TO.C,R6*%
X137535401Y-82852861D03*
X136244931Y-84143331D03*
%TD*%
D30*
%TO.C,R8*%
X171000000Y-102662500D03*
X171000000Y-100837500D03*
%TD*%
D20*
%TO.C,C2*%
X152750000Y-105950000D03*
X152750000Y-104050000D03*
%TD*%
D18*
%TO.C,U20*%
X158150000Y-124400000D03*
X158150000Y-125100000D03*
D19*
X159750000Y-125100000D03*
D18*
X159850000Y-124400000D03*
%TD*%
%TO.C,U13*%
X153650000Y-122150000D03*
X153650000Y-122850000D03*
D19*
X155250000Y-122850000D03*
D18*
X155350000Y-122150000D03*
%TD*%
D36*
%TO.C,TP1*%
X131500000Y-104500000D03*
%TD*%
D18*
%TO.C,U18*%
X150650000Y-126650000D03*
X150650000Y-127350000D03*
D19*
X152250000Y-127350000D03*
D18*
X152350000Y-126650000D03*
%TD*%
D46*
%TO.C,D2*%
X152450000Y-101600000D03*
X152450000Y-98400000D03*
X147550000Y-98400000D03*
X147550000Y-101600000D03*
%TD*%
D47*
%TO.C,J3*%
X161650000Y-87250000D03*
D48*
X164190000Y-87250000D03*
X166730000Y-87250000D03*
X169270000Y-87250000D03*
X171810000Y-87250000D03*
X174350000Y-87250000D03*
%TD*%
M02*
