M48
; DRILL file {KiCad 7.0.10} date Thu 08 Feb 2024 12:21:30 AM CET
; FORMAT={-:-/ absolute / inch / decimal}
; #@! TF.CreationDate,2024-02-08T00:21:30+01:00
; #@! TF.GenerationSoftware,Kicad,Pcbnew,7.0.10
; #@! TF.FileFunction,Plated,1,2,PTH
FMAT,2
INCH
; #@! TA.AperFunction,Plated,PTH,ComponentDrill
T1C0.0079
; #@! TA.AperFunction,Plated,PTH,ViaDrill
T2C0.0118
; #@! TA.AperFunction,Plated,PTH,ViaDrill
T3C0.0157
; #@! TA.AperFunction,Plated,PTH,ComponentDrill
T4C0.0394
; #@! TA.AperFunction,Plated,PTH,ComponentDrill
T5C0.0472
; #@! TA.AperFunction,Plated,PTH,ComponentDrill
T6C0.0512
%
G90
G05
T1
X5.7913Y-3.365
X5.7913Y-3.4201
X5.8189Y-3.3374
X5.8189Y-3.3925
X5.8189Y-3.4476
X5.8455Y-3.365
X5.8455Y-3.4201
X5.874Y-3.3374
X5.874Y-3.3925
X5.874Y-3.4476
X5.9016Y-3.365
X5.9016Y-3.4201
T2
X5.3745Y-4.8386
X5.3819Y-4.811
X5.4336Y-4.75
X5.4336Y-4.9272
X5.4402Y-4.8976
X5.4409Y-4.7205
X5.4926Y-4.8386
X5.4926Y-4.6614
X5.5Y-4.6339
X5.5Y-4.811
X5.5517Y-4.75
X5.5517Y-4.9272
X5.5583Y-4.8976
X5.5591Y-4.7205
X5.6102Y-5.0157
X5.6107Y-4.6614
X5.6107Y-4.8386
X5.6181Y-4.6339
X5.6181Y-4.811
X5.6181Y-4.9882
X5.6698Y-4.75
X5.6698Y-4.9272
X5.6764Y-4.8976
X5.6772Y-4.7205
X5.7283Y-5.0157
X5.7288Y-4.6614
X5.7288Y-4.8386
X5.7362Y-4.6339
X5.7362Y-4.811
X5.7362Y-4.9882
X5.7879Y-4.75
X5.7879Y-4.9272
X5.7953Y-4.8976
X5.796Y-4.7205
X5.8465Y-5.0157
X5.847Y-4.6614
X5.847Y-4.8386
X5.8543Y-4.6339
X5.8543Y-4.811
X5.8543Y-4.9882
X5.9646Y-5.0157
X5.9651Y-4.6614
X5.9651Y-4.8386
X5.9724Y-4.6339
X5.9724Y-4.811
X5.9724Y-4.9882
X6.0241Y-4.75
X6.0241Y-4.9272
X6.0315Y-4.7205
X6.0315Y-4.8976
X6.0827Y-5.0157
X6.0832Y-4.6614
X6.0832Y-4.8386
X6.0906Y-4.6339
X6.0906Y-4.811
X6.0906Y-4.9882
X6.1422Y-4.75
X6.1422Y-4.9272
X6.1496Y-4.7205
X6.1496Y-4.8976
X6.2008Y-4.6614
X6.2008Y-5.0157
X6.2013Y-4.8386
X6.2087Y-4.6339
X6.2087Y-4.811
X6.2087Y-4.9882
X6.2603Y-4.75
X6.2603Y-4.9272
X6.2677Y-4.7205
X6.2677Y-4.8976
X6.3189Y-4.6614
X6.3194Y-4.8386
X6.3268Y-4.6339
X6.3268Y-4.811
X6.3785Y-4.75
X6.3785Y-4.9272
X6.3866Y-4.7205
X6.3866Y-4.8976
X6.4375Y-4.8386
X6.4449Y-4.811
T3
X5.3755Y-3.2233
X5.5669Y-4.2283
X5.6142Y-3.189
X5.6142Y-3.3886
X5.6142Y-3.689
X5.6142Y-4.3543
X5.6378Y-3.5906
X5.6614Y-3.4409
X5.6614Y-4.0551
X5.6929Y-4.3543
X5.7303Y-4.0945
X5.7441Y-3.9291
X5.748Y-4.315
X5.748Y-4.3465
X5.7874Y-4.3465
X6.0157Y-3.5354
X6.1181Y-4.3543
X6.122Y-3.4882
X6.1929Y-3.689
X6.1969Y-4.3543
X6.2441Y-4.2362
X6.3071Y-3.2362
X6.5118Y-3.2441
X6.5276Y-4.5039
X6.6535Y-3.2677
X6.6772Y-3.9055
X6.7874Y-4.0472
X6.8425Y-4.5827
X7.0079Y-3.7283
T4
X5.2476Y-4.2093
X5.4414Y-4.2159
X6.3642Y-3.435
X6.4642Y-3.435
X6.5642Y-3.435
X6.6642Y-3.435
X6.7642Y-3.435
X6.8642Y-3.435
T5
X5.2264Y-3.878
X5.2264Y-3.9961
X6.5846Y-3.878
X6.5846Y-3.9961
T6
X4.9631Y-4.2493
X5.0369Y-4.4318
T4
G00X6.5607Y-4.3647
M15
G01X6.5783Y-4.3737
M16
G05
G00X6.6501Y-4.1893
M15
G01X6.6676Y-4.1983
M16
G05
M30
